<svg version="1.1" xmlns="http://www.w3.org/2000/svg" xmlns:xlink="http://www.w3.org/1999/xlink" x="0px" y="0px"
	 viewBox="0 0 923.3 290.6" enable-background="new 0 0 923.3 290.6" xml:space="preserve">
<g id="dahdos-logo-1">
	<g id="l1">
		<g id="Group_10921">
			<path id="Path_16408" fill="#19D7AA" d="M78.6,93.2c6.2,0,11.2-5,11.2-11.2s-5-11.2-11.2-11.2c-6.2,0-11.2,5-11.2,11.2
				c0,0,0,0,0,0C67.4,88.2,72.4,93.2,78.6,93.2 M78.6,75.2c3.7,0,6.7,3,6.7,6.7c0,3.7-3,6.7-6.7,6.7c-3.7,0-6.7-3-6.7-6.7
				C71.9,78.3,74.9,75.2,78.6,75.2"/>
			<path id="Path_16409" fill="#19D7AA" d="M20.7,93.2c6.2,0,11.2-5,11.2-11.2s-5-11.2-11.2-11.2c-6.2,0-11.2,5-11.2,11.2
				c0,0,0,0,0,0C9.5,88.2,14.5,93.2,20.7,93.2 M20.7,75.2c3.7,0,6.7,3,6.7,6.7s-3,6.7-6.7,6.7c-3.7,0-6.7-3-6.7-6.7
				C13.9,78.3,16.9,75.2,20.7,75.2"/>
			<path id="Path_16410" fill="#19D7AA" d="M164,176.2c-6.2,0-11.2,5-11.2,11.2c0,6.2,5,11.2,11.2,11.2c6.2,0,11.2-5,11.2-11.2
				C175.3,181.3,170.2,176.2,164,176.2C164,176.2,164,176.2,164,176.2 M164,194.2c-3.7,0-6.7-3-6.7-6.7c0-3.7,3-6.7,6.7-6.7
				c3.7,0,6.7,3,6.7,6.7c0,0,0,0,0,0C170.8,191.2,167.8,194.2,164,194.2"/>
			<path id="Path_16411" fill="#19D7AA" d="M164,222.8c-6.2,0-11.2,5-11.2,11.2c0,6.2,5,11.2,11.2,11.2c6.2,0,11.2-5,11.2-11.2
				C175.3,227.9,170.2,222.8,164,222.8C164,222.8,164,222.8,164,222.8 M164,240.8c-3.7,0-6.7-3-6.7-6.7c0-3.7,3-6.7,6.7-6.7
				c3.7,0,6.7,3,6.7,6.7c0,0,0,0,0,0C170.8,237.8,167.8,240.8,164,240.8"/>
			<path id="Path_16412" fill="#19D7AA" d="M164,35.4c6.2,0,11.2-5,11.2-11.2c0-6.2-5-11.2-11.2-11.2c-6.2,0-11.2,5-11.2,11.2
				c0,0,0,0,0,0C152.8,30.3,157.9,35.4,164,35.4 M164,17.4c3.7,0,6.8,3,6.8,6.7s-3,6.8-6.7,6.8c-3.7,0-6.8-3-6.8-6.7c0,0,0,0,0,0
				C157.3,20.4,160.3,17.4,164,17.4"/>
			<path id="Path_16413" fill="#19D7AA" d="M164,82c6.2,0,11.2-5,11.2-11.2c0-6.2-5-11.2-11.2-11.2c-6.2,0-11.2,5-11.2,11.2
				c0,0,0,0,0,0C152.8,77,157.8,82,164,82 M164,64c3.7,0,6.7,3,6.7,6.7c0,3.7-3,6.7-6.7,6.7s-6.7-3-6.7-6.7v0
				C157.3,67,160.3,64,164,64"/>
			<path id="Path_16414" fill="#19D7AA" d="M221.6,118.3c6.2,0,11.2-5,11.2-11.2c0-6.2-5-11.2-11.2-11.2c-6.2,0-11.2,5-11.2,11.2
				c0,0,0,0,0,0C210.4,113.3,215.4,118.3,221.6,118.3 M221.6,100.4c3.7,0,6.7,3,6.7,6.7c0,3.7-3,6.7-6.7,6.7c-3.7,0-6.7-3-6.7-6.7
				C214.9,103.4,217.9,100.4,221.6,100.4"/>
			<path id="Path_16415" fill="#19D7AA" d="M221.6,165c6.2,0,11.2-5,11.2-11.2c0-6.2-5-11.2-11.2-11.2c-6.2,0-11.2,5-11.2,11.2
				C210.4,159.9,215.4,165,221.6,165 M221.6,147c3.7,0,6.7,3,6.7,6.7c0,3.7-3,6.7-6.7,6.7c-3.7,0-6.7-3-6.7-6.7c0,0,0,0,0,0
				C214.9,150,217.9,147,221.6,147"/>
			<path id="Path_16416" fill="#19D7AA" d="M50,95.9c-6.2,0-11.2,5-11.2,11.2c0,6.2,5,11.2,11.2,11.2c6.2,0,11.2-5,11.2-11.2
				C61.2,100.9,56.2,95.9,50,95.9C50,95.9,50,95.9,50,95.9 M50,113.9c-3.7,0-6.7-3-6.7-6.7c0-3.7,3-6.7,6.7-6.7c3.7,0,6.7,3,6.7,6.7
				c0,0,0,0,0,0C56.7,110.9,53.7,113.9,50,113.9"/>
			<path id="Path_16417" fill="#19D7AA" d="M50,142.5c-6.2,0-11.2,5-11.2,11.2c0,6.2,5,11.2,11.2,11.2c6.2,0,11.2-5,11.2-11.2
				C61.2,147.5,56.2,142.5,50,142.5C50,142.5,50,142.5,50,142.5 M50,160.5c-3.7,0-6.7-3-6.7-6.7c0-3.7,3-6.7,6.7-6.7
				c3.7,0,6.7,3,6.7,6.7C56.7,157.5,53.7,160.5,50,160.5"/>
			<path id="Path_16418" fill="#19D7AA" d="M32,133.7c0-0.1,0.1-0.2,0.1-0.3c0-0.1,0-0.1,0.1-0.2c0-0.1,0.1-0.2,0.1-0.3
				c0-0.1,0-0.2,0.1-0.2c0-0.1,0-0.2,0.1-0.3c0-0.1,0-0.2,0-0.3s0-0.2,0-0.3c0-0.1,0-0.2,0-0.3c0-0.1,0-0.2,0-0.2c0-0.1,0-0.2,0-0.4
				c0-0.1,0-0.1,0-0.2c0-0.2,0-0.4,0-0.6c0-0.8-0.1-1.6-0.2-2.3c-0.1-0.4-0.2-0.7-0.3-1.1c-1.9-6.1-8.4-9.5-14.5-7.6
				c-3.1,1-5.6,3.1-7,6c-0.2,0.5-0.5,1-0.6,1.6c-0.1,0.4-0.2,0.7-0.3,1.1c-0.2,0.8-0.2,1.5-0.2,2.3c0,0.2,0,0.4,0,0.6
				c0,0.1,0,0.1,0,0.2c0,0.1,0,0.2,0,0.4c0,0.1,0,0.2,0,0.2c0,0.1,0,0.2,0,0.3s0,0.2,0,0.3c0,0.1,0,0.2,0,0.3c0,0.1,0,0.2,0.1,0.3
				c0,0.1,0,0.1,0.1,0.2c0,0.1,0.1,0.2,0.1,0.3c0,0.1,0,0.1,0.1,0.2c0,0.1,0.1,0.2,0.1,0.3c0,0,0,0.1,0,0.1c0,0.1,0.1,0.3,0.1,0.4
				l5.3,13.9c1.1,3.2,1.1,6.7,0,9.9l-5.3,13.9c0,0.1-0.1,0.3-0.1,0.4c0,0,0,0.1,0,0.1c0,0.1-0.1,0.2-0.1,0.3c0,0.1,0,0.1-0.1,0.2
				c0,0.1-0.1,0.2-0.1,0.3c0,0.1,0,0.1-0.1,0.2c0,0.1,0,0.2-0.1,0.3c0,0.1,0,0.2,0,0.3s0,0.2,0,0.3s0,0.2,0,0.3c0,0.1,0,0.2,0,0.2
				c0,0.1,0,0.2,0,0.4c0,0.1,0,0.1,0,0.2c0,0.2,0,0.4,0,0.6c0,0.8,0.1,1.6,0.2,2.3c0.1,0.4,0.2,0.8,0.3,1.1c0.2,0.5,0.4,1.1,0.6,1.6
				c2.8,5.8,9.7,8.2,15.4,5.4c2.9-1.4,5.1-3.9,6-7c0.1-0.4,0.2-0.7,0.3-1.1c0.2-0.8,0.2-1.6,0.2-2.3c0-0.2,0-0.4,0-0.6
				c0-0.1,0-0.1,0-0.2c0-0.1,0-0.2,0-0.4c0-0.1,0-0.2,0-0.2c0-0.1,0-0.2,0-0.3s0-0.2,0-0.3s0-0.2,0-0.3c0-0.1,0-0.2-0.1-0.3
				c0-0.1,0-0.2-0.1-0.2c0-0.1-0.1-0.2-0.1-0.3c0-0.1,0-0.1-0.1-0.2c0-0.1-0.1-0.2-0.1-0.3c0,0,0-0.1,0-0.1c0-0.1-0.1-0.3-0.1-0.4
				l0,0L26.6,158c-1.1-3.2-1.1-6.7,0-9.9l5.3-13.9l0,0c0-0.1,0.1-0.2,0.1-0.4C32,133.8,32,133.7,32,133.7"/>
			<path id="Path_16419" fill="#19D7AA" d="M89.2,133.7c0-0.1,0.1-0.2,0.1-0.3c0-0.1,0-0.1,0.1-0.2l0.1-0.3c0-0.1,0-0.2,0.1-0.2
				c0-0.1,0-0.2,0.1-0.3s0-0.2,0-0.3s0-0.2,0-0.3s0-0.2,0-0.3c0-0.1,0-0.2,0-0.2c0-0.1,0-0.2,0-0.4c0-0.1,0-0.1,0-0.2
				c0-0.2,0-0.4,0-0.6c0-0.8-0.1-1.6-0.2-2.3c-0.1-0.4-0.2-0.7-0.3-1.1c-0.2-0.5-0.4-1.1-0.6-1.6c-2.8-5.8-9.7-8.2-15.5-5.4
				c-2.4,1.1-4.3,3-5.4,5.4c-0.2,0.5-0.5,1-0.6,1.6c-0.1,0.4-0.2,0.7-0.3,1.1c-0.2,0.8-0.2,1.5-0.2,2.3c0,0.2,0,0.4,0,0.6
				c0,0.1,0,0.1,0,0.2c0,0.1,0,0.2,0,0.4c0,0.1,0,0.2,0,0.2c0,0.1,0,0.2,0,0.3s0,0.2,0,0.3s0,0.2,0,0.3s0,0.2,0.1,0.3
				c0,0.1,0,0.1,0.1,0.2l0.1,0.3c0,0.1,0,0.1,0.1,0.2c0,0.1,0.1,0.2,0.1,0.3c0,0,0,0.1,0,0.1c0,0.1,0.1,0.3,0.1,0.4l5.3,13.9
				c1.1,3.2,1.1,6.7,0,9.9l-5.3,13.9c0,0.1-0.1,0.3-0.1,0.4c0,0,0,0.1,0,0.1c0,0.1-0.1,0.2-0.1,0.3c0,0.1,0,0.1-0.1,0.2
				c0,0.1-0.1,0.2-0.1,0.3c0,0.1,0,0.1-0.1,0.2c0,0.1,0,0.2-0.1,0.3c0,0.1,0,0.2,0,0.3s0,0.2,0,0.3s0,0.2,0,0.3c0,0.1,0,0.2,0,0.2
				c0,0.1,0,0.2,0,0.4c0,0.1,0,0.1,0,0.2c0,0.2,0,0.4,0,0.6c0,0.8,0.1,1.6,0.2,2.3c0.1,0.4,0.2,0.8,0.3,1.1
				c1.9,6.1,8.4,9.5,14.5,7.6c3.1-1,5.6-3.1,7-6c0.2-0.5,0.5-1,0.6-1.6c0.1-0.4,0.2-0.7,0.3-1.1c0.2-0.8,0.2-1.6,0.2-2.3
				c0-0.2,0-0.4,0-0.6c0-0.1,0-0.1,0-0.2c0-0.1,0-0.2,0-0.4c0-0.1,0-0.2,0-0.2c0-0.1,0-0.2,0-0.3s0-0.2,0-0.3s0-0.2,0-0.3
				c0-0.1,0-0.2-0.1-0.3c0-0.1,0-0.2-0.1-0.2c0-0.1-0.1-0.2-0.1-0.3c0-0.1,0-0.1-0.1-0.2c0-0.1-0.1-0.2-0.1-0.3c0,0,0-0.1,0-0.1
				c0-0.1-0.1-0.3-0.1-0.4l0,0L83.7,158c-1.1-3.2-1.1-6.7,0-9.9l5.3-13.9l0,0c0-0.1,0.1-0.2,0.1-0.4
				C89.2,133.8,89.2,133.7,89.2,133.7"/>
			<path id="Path_16420" fill="#19D7AA" d="M117.8,111.1c0-0.1,0.1-0.2,0.1-0.3c0-0.1,0-0.1,0.1-0.2c0-0.1,0.1-0.2,0.1-0.3
				c0-0.1,0-0.2,0.1-0.2c0-0.1,0-0.2,0.1-0.3s0-0.2,0-0.3s0-0.2,0-0.3s0-0.2,0-0.3s0-0.2,0-0.3c0-0.1,0-0.2,0-0.4c0-0.1,0-0.1,0-0.2
				c0-0.2,0-0.4,0-0.6c0-0.8-0.1-1.6-0.2-2.3c-0.1-0.4-0.2-0.7-0.3-1.1c-0.2-0.5-0.4-1.1-0.6-1.6c-2.8-5.8-9.7-8.2-15.5-5.4
				c-2.4,1.1-4.3,3-5.4,5.4c-0.2,0.5-0.5,1-0.6,1.6c-0.1,0.4-0.2,0.7-0.3,1.1c-0.2,0.8-0.2,1.5-0.2,2.3c0,0.2,0,0.4,0,0.6
				c0,0.1,0,0.1,0,0.2c0,0.1,0,0.2,0,0.4c0,0.1,0,0.2,0,0.3s0,0.2,0,0.3s0,0.2,0,0.3s0,0.2,0.1,0.3s0,0.2,0.1,0.3
				c0,0.1,0,0.2,0.1,0.2c0,0.1,0.1,0.2,0.1,0.3c0,0.1,0,0.1,0.1,0.2c0,0.1,0.1,0.2,0.1,0.3c0,0,0,0.1,0,0.1c0,0.1,0.1,0.3,0.1,0.4
				l5.3,13.9c1.1,3.2,1.1,6.7,0,9.9L96,149.3c0,0.1-0.1,0.3-0.1,0.4c0,0,0,0.1,0,0.1c0,0.1-0.1,0.2-0.1,0.3c0,0.1,0,0.1-0.1,0.2
				c0,0.1-0.1,0.2-0.1,0.3c0,0.1,0,0.2-0.1,0.2c0,0.1,0,0.2-0.1,0.3c0,0.1,0,0.2-0.1,0.3s0,0.2,0,0.3s0,0.2,0,0.3c0,0.1,0,0.2,0,0.3
				c0,0.1,0,0.2,0,0.4c0,0.1,0,0.1,0,0.2c0,0.2,0,0.4,0,0.6c0,0.8,0.1,1.6,0.2,2.3c0.1,0.4,0.2,0.7,0.3,1.1
				c1.9,6.1,8.4,9.5,14.5,7.6c3.1-1,5.6-3.1,7-6c0.2-0.5,0.5-1,0.6-1.6c0.1-0.4,0.2-0.7,0.3-1.1c0.2-0.8,0.2-1.5,0.2-2.3
				c0-0.2,0-0.4,0-0.6c0-0.1,0-0.1,0-0.2c0-0.1,0-0.2,0-0.4c0-0.1,0-0.2,0-0.2c0-0.1,0-0.2,0-0.3s0-0.2,0-0.3s0-0.2,0-0.3
				c0-0.1,0-0.2-0.1-0.3c0-0.1,0-0.2-0.1-0.2c0-0.1-0.1-0.2-0.1-0.3c0-0.1,0-0.1-0.1-0.2c0-0.1-0.1-0.2-0.1-0.3c0,0,0-0.1,0-0.1
				c0-0.1-0.1-0.2-0.1-0.4l0,0l-5.3-13.9c-1.1-3.2-1.1-6.7,0-9.9l5.3-13.9l0,0c0-0.1,0.1-0.2,0.1-0.4
				C117.8,111.2,117.8,111.1,117.8,111.1"/>
			<path id="Path_16421" fill="#19D7AA" d="M146.5,133.7c0-0.1,0.1-0.2,0.1-0.3c0-0.1,0-0.1,0.1-0.2c0-0.1,0.1-0.2,0.1-0.3
				c0-0.1,0-0.2,0.1-0.2c0-0.1,0-0.2,0.1-0.3s0-0.2,0-0.3s0-0.2,0-0.3s0-0.2,0-0.3c0-0.1,0-0.2,0-0.2c0-0.1,0-0.2,0-0.4
				c0-0.1,0-0.1,0-0.2c0-0.2,0-0.4,0-0.6c0-0.8-0.1-1.6-0.2-2.3c-0.1-0.4-0.2-0.7-0.3-1.1c-1.9-6.1-8.4-9.5-14.5-7.6
				c-3.1,1-5.6,3.1-7,6c-0.2,0.5-0.5,1-0.6,1.6c-0.1,0.4-0.2,0.7-0.3,1.1c-0.2,0.8-0.2,1.5-0.2,2.3c0,0.2,0,0.4,0,0.6
				c0,0.1,0,0.1,0,0.2c0,0.1,0,0.2,0,0.4c0,0.1,0,0.2,0,0.2c0,0.1,0,0.2,0,0.3s0,0.2,0,0.3s0,0.2,0.1,0.3s0,0.2,0.1,0.3
				c0,0.1,0,0.1,0.1,0.2c0,0.1,0.1,0.2,0.1,0.3c0,0.1,0,0.1,0.1,0.2c0,0.1,0.1,0.2,0.1,0.3c0,0,0,0.1,0,0.1c0,0.1,0.1,0.3,0.1,0.4
				l5.3,13.9c1.1,3.2,1.1,6.7,0,9.9l-5.3,13.9c0,0.1-0.1,0.3-0.1,0.4c0,0,0,0.1,0,0.1c0,0.1-0.1,0.2-0.1,0.3c0,0.1,0,0.1-0.1,0.2
				c0,0.1-0.1,0.2-0.1,0.3c0,0.1,0,0.1-0.1,0.2c0,0.1,0,0.2-0.1,0.3c0,0.1,0,0.2-0.1,0.3s0,0.2,0,0.3s0,0.2,0,0.3c0,0.1,0,0.2,0,0.2
				c0,0.1,0,0.2,0,0.4c0,0.1,0,0.1,0,0.2c0,0.2,0,0.4,0,0.6c0,0.8,0.1,1.6,0.2,2.3c0.1,0.4,0.2,0.7,0.3,1.1c0.2,0.5,0.4,1.1,0.6,1.6
				c2.8,5.8,9.7,8.2,15.5,5.4c2.4-1.1,4.3-3,5.4-5.4c0.2-0.5,0.5-1,0.6-1.6c0.1-0.4,0.2-0.7,0.3-1.1c0.2-0.8,0.2-1.6,0.2-2.3
				c0-0.2,0-0.4,0-0.6c0-0.1,0-0.1,0-0.2c0-0.1,0-0.2,0-0.4c0-0.1,0-0.2,0-0.2c0-0.1,0-0.2,0-0.3s0-0.2,0-0.3s0-0.2,0-0.3
				c0-0.1,0-0.2-0.1-0.3c0-0.1,0-0.2-0.1-0.2c0-0.1-0.1-0.2-0.1-0.3c0-0.1,0-0.1-0.1-0.2c0-0.1-0.1-0.2-0.1-0.3c0,0,0-0.1,0-0.1
				c0-0.1-0.1-0.3-0.1-0.4h0L141,158c-1.1-3.2-1.1-6.7,0-9.9l5.3-13.9h0c0-0.1,0.1-0.2,0.1-0.4C146.4,133.8,146.4,133.8,146.5,133.7
				"/>
			<path id="Path_16422" fill="#19D7AA" d="M184,171.9c0,0.1-0.1,0.2-0.1,0.4c0,0,0,0.1,0,0.1c0,0.1-0.1,0.2-0.1,0.3
				c0,0.1,0,0.1-0.1,0.2c0,0.1-0.1,0.2-0.1,0.3c0,0.1,0,0.1-0.1,0.2c0,0.1,0,0.2-0.1,0.3c0,0.1,0,0.2,0,0.3c0,0.1,0,0.2,0,0.3
				c0,0.1,0,0.2,0,0.3c0,0.1,0,0.2,0,0.2c0,0.1,0,0.2,0,0.4c0,0.1,0,0.1,0,0.2c0,0.2,0,0.4,0,0.6c0,0.8,0.1,1.6,0.2,2.3
				c0.1,0.4,0.2,0.7,0.3,1.1c0.2,0.5,0.4,1.1,0.6,1.6c2.8,5.8,9.7,8.2,15.4,5.4c2.9-1.4,5.1-3.9,6-7c0.1-0.4,0.2-0.7,0.3-1.1
				c0.2-0.8,0.2-1.5,0.2-2.3c0-0.2,0-0.4,0-0.6c0-0.1,0-0.1,0-0.2c0-0.1,0-0.2,0-0.4c0-0.1,0-0.2,0-0.2c0-0.1,0-0.2,0-0.3
				s0-0.2,0-0.3s0-0.2,0-0.3c0-0.1,0-0.2-0.1-0.3c0-0.1,0-0.2-0.1-0.2c0-0.1-0.1-0.2-0.1-0.3c0-0.1,0-0.1-0.1-0.2
				c0-0.1-0.1-0.2-0.1-0.3c0,0,0-0.1,0-0.1c0-0.1-0.1-0.2-0.1-0.4l0,0l-5.3-13.9c-1.1-3.2-1.1-6.7,0-9.9l5.3-13.9l0,0
				c0-0.1,0.1-0.3,0.1-0.4c0,0,0-0.1,0-0.1c0-0.1,0.1-0.2,0.1-0.3c0-0.1,0-0.1,0.1-0.2c0-0.1,0.1-0.2,0.1-0.3c0-0.1,0-0.2,0.1-0.2
				c0-0.1,0-0.2,0.1-0.3s0-0.2,0-0.3s0-0.2,0-0.3s0-0.2,0-0.3c0-0.1,0-0.2,0-0.2c0-0.1,0-0.2,0-0.4c0-0.1,0-0.1,0-0.2
				c0-0.2,0-0.4,0-0.6c0-0.8-0.1-1.6-0.2-2.3c-0.1-0.4-0.2-0.7-0.3-1.1c-0.2-0.5-0.4-1.1-0.6-1.6c-2.8-5.8-9.7-8.2-15.5-5.4
				c-2.4,1.1-4.3,3-5.4,5.4c-0.2,0.5-0.5,1-0.6,1.6c-0.1,0.4-0.2,0.7-0.3,1.1c-0.2,0.8-0.2,1.6-0.2,2.3c0,0.2,0,0.4,0,0.6
				c0,0.1,0,0.1,0,0.2c0,0.1,0,0.2,0,0.4c0,0.1,0,0.2,0,0.2c0,0.1,0,0.2,0,0.3c0,0.1,0,0.2,0,0.3c0,0.1,0,0.2,0,0.3s0,0.2,0.1,0.3
				c0,0.1,0,0.1,0.1,0.2c0,0.1,0.1,0.2,0.1,0.3c0,0.1,0,0.1,0.1,0.2c0,0.1,0.1,0.2,0.1,0.3c0,0,0,0.1,0,0.1c0,0.1,0.1,0.3,0.1,0.4
				l5.3,13.9c1.1,3.2,1.1,6.7,0,9.9L184,171.9z"/>
			<path id="Path_16423" fill="#19D7AA" d="M153.2,149.3c0,0.1-0.1,0.3-0.1,0.4c0,0,0,0.1,0,0.1c0,0.1-0.1,0.2-0.1,0.3
				c0,0.1,0,0.1-0.1,0.2c0,0.1-0.1,0.2-0.1,0.3c0,0.1,0,0.2-0.1,0.2c0,0.1,0,0.2-0.1,0.3c0,0.1,0,0.2,0,0.3s0,0.2,0,0.3s0,0.2,0,0.3
				c0,0.1,0,0.2,0,0.3c0,0.1,0,0.2,0,0.4c0,0.1,0,0.1,0,0.2c0,0.2,0,0.4,0,0.6c0,0.8,0.1,1.6,0.2,2.3c0.1,0.4,0.2,0.7,0.3,1.1
				c1.9,6.1,8.4,9.5,14.5,7.6c3.1-1,5.6-3.1,7-6c0.2-0.5,0.5-1,0.6-1.6c0.1-0.4,0.2-0.7,0.3-1.1c0.2-0.8,0.2-1.6,0.2-2.3
				c0-0.2,0-0.4,0-0.6c0-0.1,0-0.1,0-0.2c0-0.1,0-0.2,0-0.4c0-0.1,0-0.2,0-0.2c0-0.1,0-0.2,0-0.3s0-0.2,0-0.3s0-0.2,0-0.3
				c0-0.1,0-0.2-0.1-0.3c0-0.1,0-0.2-0.1-0.2c0-0.1-0.1-0.2-0.1-0.3c0-0.1,0-0.1-0.1-0.2c0-0.1-0.1-0.2-0.1-0.3c0,0,0-0.1,0-0.1
				c0-0.1-0.1-0.2-0.1-0.4h0l-5.3-13.9c-1.1-3.2-1.1-6.7,0-9.9l5.3-13.9h0c0.1-0.1,0.1-0.2,0.1-0.4c0,0,0-0.1,0-0.1
				c0-0.1,0.1-0.2,0.1-0.3c0-0.1,0-0.1,0.1-0.2c0-0.1,0.1-0.2,0.1-0.3c0-0.1,0-0.2,0.1-0.2c0-0.1,0-0.2,0.1-0.3s0-0.2,0-0.3
				s0-0.2,0-0.3s0-0.2,0-0.3s0-0.2,0-0.3c0-0.1,0-0.2,0-0.4c0-0.1,0-0.1,0-0.2c0-0.2,0-0.4,0-0.6c0-0.8-0.1-1.6-0.2-2.3
				c-0.1-0.4-0.2-0.8-0.3-1.1c-0.2-0.5-0.4-1.1-0.6-1.6c-2.8-5.8-9.7-8.2-15.5-5.4c-2.4,1.1-4.3,3-5.4,5.4c-0.2,0.5-0.5,1-0.6,1.6
				c-0.1,0.4-0.2,0.7-0.3,1.1c-0.2,0.8-0.2,1.5-0.2,2.3c0,0.2,0,0.4,0,0.6c0,0.1,0,0.1,0,0.2c0,0.1,0,0.2,0,0.4c0,0.1,0,0.2,0,0.3
				s0,0.2,0,0.3s0,0.2,0,0.3s0,0.2,0,0.3s0,0.2,0.1,0.3c0,0.1,0,0.2,0.1,0.2c0,0.1,0.1,0.2,0.1,0.3c0,0.1,0,0.1,0.1,0.2
				c0,0.1,0.1,0.2,0.1,0.3c0,0,0,0.1,0,0.1c0,0.1,0.1,0.3,0.1,0.4l5.3,13.9c1.1,3.2,1.1,6.7,0,9.9L153.2,149.3z"/>
			<path id="Path_16424" fill="#19D7AA" d="M239,171.9c0,0.1-0.1,0.2-0.1,0.4c0,0,0,0.1,0,0.1c0,0.1-0.1,0.2-0.1,0.3
				c0,0.1,0,0.1-0.1,0.2c0,0.1-0.1,0.2-0.1,0.3c0,0.1,0,0.1-0.1,0.2c0,0.1,0,0.2-0.1,0.3c0,0.1,0,0.2,0,0.3s0,0.2,0,0.3s0,0.2,0,0.3
				c0,0.1,0,0.2,0,0.2c0,0.1,0,0.2,0,0.4c0,0.1,0,0.1,0,0.2c0,0.2,0,0.4,0,0.6c0,0.8,0.1,1.6,0.2,2.3c0.1,0.4,0.2,0.8,0.3,1.1
				c1.9,6.1,8.4,9.5,14.5,7.6c3.6-1.1,6.5-4,7.6-7.6c0.1-0.4,0.2-0.7,0.3-1.1c0.2-0.8,0.2-1.5,0.2-2.3c0-0.2,0-0.4,0-0.6
				c0-0.1,0-0.1,0-0.2c0-0.1,0-0.2,0-0.4c0-0.1,0-0.2,0-0.2c0-0.1,0-0.2,0-0.3s0-0.2,0-0.3s0-0.2,0-0.3c0-0.1,0-0.2-0.1-0.3
				c0-0.1,0-0.2-0.1-0.2c0-0.1-0.1-0.2-0.1-0.3c0-0.1,0-0.1-0.1-0.2c0-0.1-0.1-0.2-0.1-0.3c0,0,0-0.1,0-0.1c0-0.1-0.1-0.2-0.1-0.4
				l0,0l-5.3-13.9c-1.1-3.2-1.1-6.7,0-9.9l5.3-13.9l0,0c0-0.1,0.1-0.3,0.1-0.4c0,0,0-0.1,0-0.1c0-0.1,0.1-0.2,0.1-0.3
				c0-0.1,0-0.1,0.1-0.2c0-0.1,0-0.2,0.1-0.3c0-0.1,0-0.2,0.1-0.2c0-0.1,0-0.2,0.1-0.3s0-0.2,0-0.3s0-0.2,0-0.3s0-0.2,0-0.3
				c0-0.1,0-0.2,0-0.2c0-0.1,0-0.2,0-0.4c0-0.1,0-0.1,0-0.2c0-0.2,0-0.4,0-0.6c0-0.8-0.1-1.6-0.2-2.3c-0.1-0.4-0.2-0.7-0.3-1.1
				c-0.2-0.5-0.4-1.1-0.6-1.6c-2.8-5.8-9.7-8.2-15.5-5.4c-2.4,1.1-4.3,3-5.4,5.4c-0.2,0.5-0.5,1-0.6,1.6c-0.1,0.4-0.2,0.7-0.3,1.1
				c-0.2,0.8-0.2,1.6-0.2,2.3c0,0.2,0,0.4,0,0.6c0,0.1,0,0.1,0,0.2c0,0.1,0,0.2,0,0.4c0,0.1,0,0.2,0,0.2c0,0.1,0,0.2,0,0.3
				s0,0.2,0,0.3s0,0.2,0,0.3s0,0.2,0.1,0.3c0,0.1,0,0.1,0.1,0.2c0,0.1,0.1,0.2,0.1,0.3c0,0.1,0,0.1,0.1,0.2c0,0.1,0.1,0.2,0.1,0.3
				c0,0,0,0.1,0,0.1c0,0.1,0.1,0.3,0.1,0.4l5.3,13.9c1.1,3.2,1.1,6.7,0,9.9L239,171.9z"/>
			<path id="Path_16425" fill="#19D7AA" d="M31.9,214.2c0-0.1,0.1-0.2,0.1-0.4c0-0.1,0-0.1,0-0.1c0-0.1,0.1-0.2,0.1-0.3
				c0-0.1,0-0.1,0.1-0.2c0-0.1,0.1-0.2,0.1-0.3c0-0.1,0-0.2,0.1-0.2c0-0.1,0-0.2,0.1-0.3c0-0.1,0-0.2,0-0.3s0-0.2,0-0.3
				c0-0.1,0-0.2,0-0.3c0-0.1,0-0.2,0-0.3c0-0.1,0-0.2,0-0.4c0-0.1,0-0.1,0-0.2c0-0.2,0-0.4,0-0.6c0-0.8-0.1-1.6-0.2-2.3
				c-0.1-0.4-0.2-0.7-0.3-1.1c-0.2-0.5-0.4-1.1-0.6-1.6c-2.8-5.8-9.7-8.2-15.5-5.4c-2.4,1.1-4.3,3-5.4,5.4c-0.2,0.5-0.5,1-0.6,1.6
				c-0.1,0.4-0.2,0.7-0.3,1.1c-0.1,0.4-0.1,0.8-0.2,1.2c2,4.5,5.4,8.5,9.1,10.7l9.2,5.3L31.9,214.2L31.9,214.2z"/>
			<path id="Path_16426" fill="#19D7AA" d="M60.1,238.3c0.2-0.5,0.5-1,0.6-1.6c0.1-0.4,0.2-0.7,0.3-1.1c0.2-0.8,0.2-1.5,0.2-2.3
				c0-0.2,0-0.4,0-0.6c0-0.1,0-0.1,0-0.2c0-0.1,0-0.2,0-0.4c0-0.1,0-0.2,0-0.2c0-0.1,0-0.2,0-0.3s0-0.2,0-0.3s0-0.2,0-0.3
				s0-0.2-0.1-0.3c0-0.1,0-0.1-0.1-0.2c0-0.1-0.1-0.2-0.1-0.3c0-0.1,0-0.1-0.1-0.2c0-0.1-0.1-0.2-0.1-0.3c0,0,0-0.1,0-0.1
				c0-0.1-0.1-0.3-0.1-0.4l0,0l-5.3-13.9c-1.1-3.2-1.1-6.7,0-9.9l5.3-13.9l0,0c0-0.1,0.1-0.3,0.1-0.4c0,0,0-0.1,0-0.1
				c0-0.1,0.1-0.2,0.1-0.3c0-0.1,0-0.1,0.1-0.2c0-0.1,0.1-0.2,0.1-0.3c0-0.1,0-0.2,0.1-0.2s0-0.2,0.1-0.3s0-0.2,0-0.3s0-0.2,0-0.3
				c0-0.1,0-0.2,0-0.3c0-0.1,0-0.2,0-0.2c0-0.1,0-0.2,0-0.4c0-0.1,0-0.1,0-0.2c0-0.2,0-0.4,0-0.6c0-0.8-0.1-1.6-0.2-2.3
				c-0.1-0.4-0.2-0.7-0.3-1.1c-0.2-0.5-0.4-1.1-0.6-1.6c-2.8-5.8-9.7-8.2-15.4-5.4c-2.4,1.1-4.3,3-5.4,5.4c-0.2,0.5-0.5,1-0.6,1.6
				c-0.1,0.4-0.2,0.7-0.3,1.1c-0.2,0.8-0.2,1.5-0.2,2.3c0,0.2,0,0.4,0,0.6c0,0.1,0,0.1,0,0.2c0,0.1,0,0.2,0,0.4c0,0.1,0,0.2,0,0.2
				c0,0.1,0,0.2,0,0.3s0,0.2,0,0.3c0,0.1,0,0.2,0,0.3s0,0.2,0.1,0.3c0,0.1,0,0.2,0.1,0.2c0,0.1,0.1,0.2,0.1,0.3c0,0.1,0,0.1,0.1,0.2
				c0,0.1,0.1,0.2,0.1,0.3c0,0,0,0.1,0,0.1c0,0.1,0.1,0.3,0.1,0.4l5.3,13.9c1.1,3.2,1.1,6.7,0,9.9l-5.3,13.9c0,0.1-0.1,0.3-0.1,0.4
				c0,0,0,0.1,0,0.1c0,0.1-0.1,0.2-0.1,0.3c0,0.1,0,0.1-0.1,0.2c0,0.1-0.1,0.2-0.1,0.3c0,0.1,0,0.2-0.1,0.2c0,0,0,0.1,0,0.1l19,11
				C58.5,240.9,59.4,239.7,60.1,238.3"/>
			<path id="Path_16427" fill="#19D7AA" d="M89.6,258.3c0.2-0.8,0.2-1.6,0.2-2.3c0-0.2,0-0.4,0-0.6c0-0.1,0-0.1,0-0.2
				c0-0.1,0-0.2,0-0.4c0-0.1,0-0.2,0-0.2c0-0.1,0-0.2,0-0.3s0-0.2,0-0.3s0-0.2,0-0.3s0-0.2-0.1-0.3c0-0.1,0-0.2-0.1-0.2l-0.1-0.3
				c0-0.1,0-0.1-0.1-0.2c0-0.1-0.1-0.2-0.1-0.3c0,0,0-0.1,0-0.1c0-0.1-0.1-0.3-0.1-0.4l0,0L83.8,238c-1.1-3.2-1.1-6.7,0-9.9
				l5.3-13.9l0,0c0-0.1,0.1-0.2,0.1-0.4c0-0.1,0-0.1,0-0.1c0-0.1,0.1-0.2,0.1-0.3c0-0.1,0-0.1,0.1-0.2c0-0.1,0.1-0.2,0.1-0.3
				c0-0.1,0-0.2,0.1-0.2c0-0.1,0-0.2,0.1-0.3s0-0.2,0-0.3s0-0.2,0-0.3s0-0.2,0-0.3c0-0.1,0-0.2,0-0.3c0-0.1,0-0.2,0-0.4
				c0-0.1,0-0.1,0-0.2c0-0.2,0-0.4,0-0.6c0-0.8-0.1-1.6-0.2-2.3c-0.1-0.4-0.2-0.7-0.3-1.1c-0.2-0.5-0.4-1.1-0.6-1.6
				c-2.8-5.8-9.7-8.2-15.4-5.4c-2.4,1.1-4.3,3-5.4,5.4c-0.2,0.5-0.5,1-0.6,1.6c-0.1,0.4-0.2,0.7-0.3,1.1c-0.2,0.8-0.2,1.5-0.2,2.3
				c0,0.2,0,0.4,0,0.6c0,0.1,0,0.1,0,0.2c0,0.1,0,0.2,0,0.4c0,0.1,0,0.2,0,0.3c0,0.1,0,0.2,0,0.3s0,0.2,0,0.3s0,0.2,0,0.3
				s0,0.2,0.1,0.3c0,0.1,0,0.1,0.1,0.2c0,0.1,0.1,0.2,0.1,0.3c0,0.1,0,0.1,0.1,0.2c0,0.1,0.1,0.2,0.1,0.3c0,0,0,0.1,0,0.1
				c0,0.1,0.1,0.2,0.1,0.4l5.3,13.9c1.1,3.2,1.1,6.7,0,9.9l-4,10.5L89,260.2c0.1-0.3,0.2-0.5,0.3-0.8
				C89.4,259,89.5,258.7,89.6,258.3"/>
			<path id="Path_16428" fill="#19D7AA" d="M117.8,191c0-0.1,0.1-0.2,0.1-0.3c0-0.1,0-0.1,0.1-0.2c0-0.1,0.1-0.2,0.1-0.3
				c0-0.1,0-0.2,0.1-0.2s0-0.2,0.1-0.3s0-0.2,0-0.3s0-0.2,0-0.3s0-0.2,0-0.3c0-0.1,0-0.2,0-0.2c0-0.1,0-0.2,0-0.4c0-0.1,0-0.1,0-0.2
				c0-0.2,0-0.4,0-0.6c0-0.8-0.1-1.6-0.2-2.3c-0.1-0.4-0.2-0.7-0.3-1.1c-0.2-0.5-0.4-1.1-0.6-1.6c-2.8-5.8-9.7-8.2-15.4-5.4
				c-2.4,1.1-4.3,3-5.4,5.4c-0.2,0.5-0.5,1-0.6,1.6c-0.1,0.4-0.2,0.7-0.3,1.1c-0.2,0.8-0.2,1.5-0.2,2.3c0,0.2,0,0.4,0,0.6
				c0,0.1,0,0.1,0,0.2c0,0.1,0,0.2,0,0.4c0,0.1,0,0.2,0,0.2c0,0.1,0,0.2,0,0.3s0,0.2,0,0.3s0,0.2,0.1,0.3s0,0.2,0.1,0.3
				s0,0.2,0.1,0.2c0,0.1,0.1,0.2,0.1,0.3c0,0.1,0,0.1,0.1,0.2c0,0.1,0.1,0.2,0.1,0.3c0,0,0,0.1,0,0.1c0,0.1,0.1,0.3,0.1,0.4
				l5.3,13.9c1.1,3.2,1.1,6.7,0,9.9L96,229.3c0,0.1-0.1,0.3-0.1,0.4c0,0,0,0.1,0,0.1c0,0.1-0.1,0.2-0.1,0.3c0,0.1,0,0.1-0.1,0.2
				c0,0.1-0.1,0.2-0.1,0.3c0,0.1,0,0.2-0.1,0.2c0,0.1,0,0.2-0.1,0.3s0,0.2-0.1,0.3s0,0.2,0,0.3s0,0.2,0,0.3c0,0.1,0,0.2,0,0.2
				c0,0.1,0,0.2,0,0.4c0,0.1,0,0.1,0,0.2c0,0.2,0,0.4,0,0.6c0,0.8,0.1,1.6,0.2,2.3c0.1,0.4,0.2,0.7,0.3,1.1c0.2,0.5,0.4,1.1,0.6,1.6
				c2.8,5.8,9.7,8.2,15.4,5.4c2.9-1.4,5.1-3.9,6-7c0.1-0.4,0.2-0.7,0.3-1.1c0.2-0.8,0.2-1.5,0.2-2.3c0-0.2,0-0.4,0-0.6
				c0-0.1,0-0.1,0-0.2c0-0.1,0-0.2,0-0.4c0-0.1,0-0.2,0-0.2c0-0.1,0-0.2,0-0.3s0-0.2,0-0.3s0-0.2,0-0.3s0-0.2-0.1-0.3
				c0-0.1,0-0.1-0.1-0.2c0-0.1-0.1-0.2-0.1-0.3c0-0.1,0-0.1-0.1-0.2c0-0.1-0.1-0.2-0.1-0.3c0,0,0-0.1,0-0.1c0-0.1-0.1-0.3-0.1-0.4
				l0,0l-5.3-13.9c-1.1-3.2-1.1-6.7,0-9.9l5.3-13.9l0,0c0-0.1,0.1-0.3,0.1-0.4C117.8,191.1,117.8,191.1,117.8,191"/>
			<path id="Path_16429" fill="#19D7AA" d="M146.5,213.6c0-0.1,0.1-0.2,0.1-0.3c0-0.1,0-0.1,0.1-0.2c0-0.1,0.1-0.2,0.1-0.3
				c0-0.1,0-0.2,0.1-0.2c0-0.1,0-0.2,0.1-0.3s0-0.2,0-0.3s0-0.2,0-0.3s0-0.2,0-0.3c0-0.1,0-0.2,0-0.3c0-0.1,0-0.2,0-0.4
				c0-0.1,0-0.1,0-0.2c0-0.2,0-0.4,0-0.6c0-0.8-0.1-1.6-0.2-2.3c-0.1-0.4-0.2-0.7-0.3-1.1c-0.2-0.5-0.4-1.1-0.6-1.6
				c-2.8-5.8-9.7-8.2-15.5-5.4c-2.4,1.1-4.3,3-5.4,5.4c-0.2,0.5-0.5,1-0.6,1.6c-0.1,0.4-0.2,0.7-0.3,1.1c-0.2,0.8-0.2,1.5-0.2,2.3
				c0,0.2,0,0.4,0,0.6c0,0.1,0,0.1,0,0.2c0,0.1,0,0.2,0,0.4c0,0.1,0,0.2,0,0.3c0,0.1,0,0.2,0,0.3s0,0.2,0,0.3s0,0.2,0.1,0.3
				s0,0.2,0.1,0.3c0,0.1,0,0.1,0.1,0.2c0,0.1,0.1,0.2,0.1,0.3c0,0.1,0,0.1,0.1,0.2c0,0.1,0.1,0.2,0.1,0.3c0,0,0,0.1,0,0.1
				c0,0.1,0.1,0.2,0.1,0.4l5.3,13.9c1.1,3.2,1.1,6.7,0,9.9l-5.3,13.9c0,0.1-0.1,0.3-0.1,0.4c0,0,0,0.1,0,0.1c0,0.1-0.1,0.2-0.1,0.3
				c0,0.1,0,0.1-0.1,0.2c0,0.1-0.1,0.2-0.1,0.3c0,0.1,0,0.2-0.1,0.2c0,0.1,0,0.2-0.1,0.3s0,0.2-0.1,0.3s0,0.2,0,0.3s0,0.2,0,0.3
				c0,0.1,0,0.2,0,0.3c0,0.1,0,0.2,0,0.4c0,0.1,0,0.1,0,0.2c0,0.2,0,0.4,0,0.6c0,0.8,0.1,1.6,0.2,2.3c0.1,0.4,0.2,0.7,0.3,1.1
				c0.2,0.5,0.4,1.1,0.6,1.6c2.8,5.8,9.7,8.2,15.5,5.4c2.4-1.1,4.3-3,5.4-5.4c0.2-0.5,0.5-1,0.6-1.6c0.1-0.4,0.2-0.7,0.3-1.1
				c0.2-0.8,0.2-1.6,0.2-2.3c0-0.2,0-0.4,0-0.6c0-0.1,0-0.1,0-0.2c0-0.1,0-0.2,0-0.4c0-0.1,0-0.2,0-0.2c0-0.1,0-0.2,0-0.3
				s0-0.2,0-0.3s0-0.2,0-0.3s0-0.2-0.1-0.3c0-0.1,0-0.2-0.1-0.2c0-0.1-0.1-0.2-0.1-0.3c0-0.1,0-0.1-0.1-0.2c0-0.1-0.1-0.2-0.1-0.3
				c0,0,0-0.1,0-0.1c0-0.1-0.1-0.2-0.1-0.4h0L141,238c-1.1-3.2-1.1-6.7,0-9.9l5.3-13.9h0c0-0.1,0.1-0.2,0.1-0.4
				C146.4,213.7,146.4,213.7,146.5,213.6"/>
			<path id="Path_16430" fill="#19D7AA" d="M198.2,228.1l5.3-13.9l0,0c0-0.1,0.1-0.2,0.1-0.4c0,0,0-0.1,0-0.1c0-0.1,0.1-0.2,0.1-0.3
				c0-0.1,0-0.1,0.1-0.2c0-0.1,0.1-0.2,0.1-0.3c0-0.1,0-0.2,0.1-0.2c0-0.1,0-0.2,0.1-0.3s0-0.2,0-0.3s0-0.2,0-0.3s0-0.2,0-0.3
				c0-0.1,0-0.2,0-0.2c0-0.1,0-0.2,0-0.4c0-0.1,0-0.1,0-0.2c0-0.2,0-0.4,0-0.6c0-0.8-0.1-1.6-0.2-2.3c-0.2-0.9-0.5-1.8-0.9-2.7
				c-2.8-5.8-9.7-8.2-15.5-5.4c-2.4,1.1-4.3,3-5.4,5.4c-0.2,0.5-0.5,1-0.6,1.6c-0.1,0.4-0.2,0.7-0.3,1.1c-0.2,0.8-0.2,1.5-0.2,2.3
				c0,0.2,0,0.4,0,0.6c0,0.1,0,0.1,0,0.2c0,0.1,0,0.2,0,0.4c0,0.1,0,0.2,0,0.2c0,0.1,0,0.2,0,0.3s0,0.2,0,0.3s0,0.2,0,0.3
				s0,0.2,0.1,0.3c0,0.1,0,0.2,0.1,0.2c0,0.1,0.1,0.2,0.1,0.3c0,0.1,0,0.1,0.1,0.2c0,0.1,0.1,0.2,0.1,0.3c0,0,0,0.1,0,0.1
				c0,0.1,0.1,0.2,0.1,0.4l5.3,13.9c1.1,3.2,1.1,6.7,0,9.9l-5.3,13.9c0,0.1-0.1,0.3-0.1,0.4c0,0,0,0.1,0,0.1c0,0.1-0.1,0.2-0.1,0.3
				c0,0.1,0,0.1-0.1,0.2c0,0.1-0.1,0.2-0.1,0.3c0,0.1,0,0.2-0.1,0.2c0,0.1,0,0.2-0.1,0.3s0,0.2,0,0.3s0,0.2,0,0.3s0,0.2,0,0.3
				c0,0.1,0,0.2,0,0.2c0,0.1,0,0.2,0,0.4c0,0.1,0,0.1,0,0.2c0,0.2,0,0.4,0,0.6c0,0.8,0.1,1.6,0.2,2.3c0.1,0.4,0.2,0.7,0.3,1.1
				c0,0.2,0.1,0.3,0.2,0.4l20.3-11.7l-3.9-10.1C197.1,234.7,197.1,231.3,198.2,228.1"/>
			<path id="Path_16431" fill="#19D7AA" d="M232.4,230.1c0-0.1-0.1-0.2-0.1-0.3c0,0,0-0.1,0-0.1c0-0.1-0.1-0.3-0.1-0.4l0,0
				l-5.3-13.9c-1.1-3.2-1.1-6.7,0-9.9l5.3-13.9l0,0c0-0.1,0.1-0.3,0.1-0.4c0,0,0-0.1,0-0.1c0-0.1,0.1-0.2,0.1-0.3
				c0-0.1,0-0.1,0.1-0.2c0-0.1,0.1-0.2,0.1-0.3c0-0.1,0-0.2,0.1-0.2s0-0.2,0.1-0.3s0-0.2,0-0.3s0-0.2,0-0.3s0-0.2,0-0.3
				c0-0.1,0-0.2,0-0.2c0-0.1,0-0.2,0-0.4c0-0.1,0-0.1,0-0.2c0-0.2,0-0.4,0-0.6c0-0.8-0.1-1.6-0.2-2.3c-0.1-0.4-0.2-0.7-0.3-1.1
				c-0.2-0.5-0.4-1.1-0.6-1.6c-2.8-5.8-9.7-8.2-15.5-5.4c-2.9,1.4-5.1,3.9-6,7c-0.1,0.4-0.2,0.7-0.3,1.1c-0.2,0.8-0.2,1.5-0.2,2.3
				c0,0.2,0,0.4,0,0.6c0,0.1,0,0.1,0,0.2c0,0.1,0,0.2,0,0.4c0,0.1,0,0.2,0,0.2c0,0.1,0,0.2,0,0.3s0,0.2,0,0.3s0,0.2,0,0.3
				s0,0.2,0.1,0.3s0,0.2,0.1,0.2c0,0.1,0.1,0.2,0.1,0.3c0,0.1,0,0.1,0.1,0.2c0,0.1,0.1,0.2,0.1,0.3c0,0,0,0.1,0,0.1
				c0,0.1,0.1,0.3,0.1,0.4l5.3,13.9c1.1,3.2,1.1,6.7,0,9.9l-5.3,13.9c0,0.1-0.1,0.3-0.1,0.4c0,0,0,0.1,0,0.1c0,0.1-0.1,0.2-0.1,0.3
				c0,0.1,0,0.1-0.1,0.2c0,0.1-0.1,0.2-0.1,0.3c0,0.1,0,0.2-0.1,0.2c0,0.1,0,0.2-0.1,0.3s0,0.2,0,0.3s0,0.2,0,0.3s0,0.2,0,0.3
				c0,0.1,0,0.2,0,0.2c0,0.1,0,0.2,0,0.4c0,0.1,0,0.1,0,0.2c0,0.2,0,0.4,0,0.6c0,0.8,0.1,1.6,0.2,2.3c0.1,0.4,0.2,0.7,0.3,1.1
				c0.2,0.5,0.4,1.1,0.6,1.6c0.6,1.2,1.4,2.4,2.4,3.3l19.2-11.1c0-0.1,0-0.2-0.1-0.2S232.4,230.2,232.4,230.1"/>
			<path id="Path_16432" fill="#19D7AA" d="M260.3,205.1c-2.8-5.8-9.7-8.2-15.4-5.4c-2.4,1.1-4.3,3-5.4,5.4c-0.2,0.5-0.5,1-0.6,1.6
				c-0.1,0.4-0.2,0.7-0.3,1.1c-0.2,0.8-0.2,1.5-0.2,2.3c0,0.2,0,0.4,0,0.6c0,0.1,0,0.1,0,0.2c0,0.1,0,0.2,0,0.4c0,0.1,0,0.2,0,0.2
				c0,0.1,0,0.2,0,0.3s0,0.2,0,0.3s0,0.2,0,0.3s0,0.2,0.1,0.3c0,0.1,0,0.2,0.1,0.2c0,0.1,0.1,0.2,0.1,0.3c0,0.1,0,0.1,0.1,0.2
				c0,0.1,0.1,0.2,0.1,0.3c0,0,0,0.1,0,0.1c0,0.1,0.1,0.2,0.1,0.4l3.9,10.3l8.6-5c4.1-2.4,7.7-7,9.6-11.9c-0.1-0.3-0.1-0.6-0.2-1
				C260.7,206.1,260.5,205.6,260.3,205.1"/>
			<path id="Path_16433" fill="#19D7AA" d="M117.7,271.5c0-0.1,0.1-0.2,0.1-0.4c0,0,0-0.1,0-0.1c0-0.1,0.1-0.2,0.1-0.3
				c0-0.1,0-0.1,0.1-0.2c0-0.1,0.1-0.2,0.1-0.3c0-0.1,0-0.2,0.1-0.2c0-0.1,0-0.2,0.1-0.3s0-0.2,0-0.3s0-0.2,0-0.3s0-0.2,0-0.3
				c0-0.1,0-0.2,0-0.2c0-0.1,0-0.2,0-0.4c0-0.1,0-0.1,0-0.2c0-0.2,0-0.4,0-0.6c0-0.8-0.1-1.6-0.2-2.3c-0.1-0.4-0.2-0.7-0.3-1.1
				c-0.2-0.5-0.4-1.1-0.6-1.6c-2.8-5.8-9.7-8.2-15.5-5.4c-2.9,1.4-5.1,3.9-6,7c0,0,0,0.1,0,0.1l20.3,11.7L117.7,271.5L117.7,271.5z"
				/>
			<path id="Path_16434" fill="#19D7AA" d="M164,255.8c-5.1,0-9.5,3.3-11.1,8.1c-0.1,0.4-0.2,0.7-0.3,1.1c-0.2,0.8-0.2,1.5-0.2,2.3
				c0,0.2,0,0.4,0,0.6c0,0.1,0,0.1,0,0.2c0,0.1,0,0.2,0,0.4c0,0.1,0,0.2,0,0.2c0,0.1,0,0.2,0,0.3s0,0.2,0,0.3s0,0.2,0,0.3
				s0,0.2,0.1,0.3c0,0.1,0,0.2,0.1,0.2c0,0.1,0.1,0.2,0.1,0.3c0,0.1,0,0.1,0.1,0.2c0,0.1,0.1,0.2,0.1,0.3c0,0,0,0.1,0,0.1
				c0,0.1,0.1,0.3,0.1,0.4l1.5,4l20.3-11.7c-0.1-0.5-0.3-0.9-0.5-1.3C172.5,258.4,168.5,255.8,164,255.8"/>
		</g>
	</g>
</g>
<g id="logo">
	<path id="Path_16366" fill="#5E415C" d="M359.5,207.3v20.1c0,1.6,0,3.3,0,4.9h-2.4c-0.1-0.9-0.1-1.8-0.1-2.7
		c-0.8,1.5-2.3,3.2-6.3,3.2c-4.9,0-8.1-3.6-8.1-8.7c0-5.5,4-9,8.4-9c4.1,0,5.5,2,5.9,2.8v-10.7H359.5z M351,230.6c4.3,0,6-2.8,6-6.7
		s-1.3-6.5-5.9-6.5c-4.1,0-6,3.4-6,6.7C345.2,227.3,347.1,230.6,351,230.6"/>
	<path id="Path_16367" fill="#5E415C" d="M379.1,228.3c0,1.5,0.1,3.6,0.2,4h-2.4c-0.1-0.9-0.2-1.7-0.2-2.6c-0.9,1.8-2.8,3.1-6.4,3.1
		c-4.8,0-6.5-2.9-6.5-5.3c0-4.2,3.9-5.4,8.6-5.4h4.2v-1c0-2-0.8-3.8-4.7-3.8c-3.5,0-4.3,1.6-4.7,3.3h-2.5c0.2-2.3,1.7-5.3,7.2-5.3
		c5.7,0,7.2,2.8,7.2,5.6L379.1,228.3z M376.6,223.9h-4.2c-4.1,0-6.2,0.9-6.2,3.4c0,1.8,1.3,3.4,4.3,3.4c4.9,0,6-3,6-5.9L376.6,223.9
		z"/>
	<path id="Path_16368" fill="#5E415C" d="M381.9,215.6h3.4v-5.5h2.5v5.5h4.5v2.1h-4.5v9.8c0,2.1,0.6,3,2.4,3c0.6,0,1.2,0,1.7-0.2
		v1.9c-0.8,0.2-1.6,0.3-2.4,0.3c-3.3,0-4.3-1.5-4.3-4.8v-10h-3.4V215.6z"/>
	<path id="Path_16369" fill="#5E415C" d="M410.1,228.3c0,1.5,0.1,3.6,0.2,4h-2.4c-0.1-0.9-0.2-1.7-0.2-2.6c-0.9,1.8-2.8,3.1-6.4,3.1
		c-4.8,0-6.5-2.9-6.5-5.3c0-4.2,3.9-5.4,8.6-5.4h4.2v-1c0-2-0.8-3.8-4.7-3.8c-3.5,0-4.3,1.6-4.7,3.3h-2.5c0.2-2.3,1.7-5.3,7.2-5.3
		c5.7,0,7.2,2.8,7.2,5.6L410.1,228.3z M407.6,223.9h-4.2c-4.1,0-6.2,0.9-6.2,3.4c0,1.8,1.3,3.4,4.3,3.4c4.9,0,6-3,6-5.9L407.6,223.9
		z"/>
	<path id="Path_16370" fill="#5E415C" d="M439.8,228.3c0,1.5,0.1,3.6,0.2,4h-2.4c-0.1-0.9-0.2-1.7-0.2-2.6c-0.9,1.8-2.8,3.1-6.4,3.1
		c-4.8,0-6.5-2.9-6.5-5.3c0-4.2,3.9-5.4,8.6-5.4h4.2v-1c0-2-0.8-3.8-4.7-3.8c-3.5,0-4.3,1.6-4.7,3.3h-2.5c0.2-2.3,1.7-5.3,7.2-5.3
		c5.7,0,7.2,2.8,7.2,5.6L439.8,228.3z M437.3,223.9h-4.2c-4.1,0-6.2,0.9-6.2,3.4c0,1.8,1.3,3.4,4.3,3.4c4.9,0,6-3,6-5.9L437.3,223.9
		z"/>
	<path id="Path_16371" fill="#5E415C" d="M445.6,219.8c0-1.4,0-3,0-4.2h2.5c0.1,0.6,0.1,2.1,0.1,3.4c1-2.5,3.5-4,6.2-3.8
		c3.8,0,6.4,2.4,6.4,7v10.1h-2.5v-9.6c0-3-1.2-5.3-4.5-5.3c-3.7,0-5.6,3-5.6,7.1v7.9h-2.5L445.6,219.8z"/>
	<path id="Path_16372" fill="#5E415C" d="M481.9,207.3v20.1c0,1.6,0,3.3,0,4.9h-2.4c-0.1-0.9-0.1-1.8-0.1-2.7
		c-0.8,1.5-2.3,3.2-6.3,3.2c-4.9,0-8.1-3.6-8.1-8.7c0-5.5,4-9,8.4-9c4.1,0,5.5,2,5.9,2.8v-10.7H481.9z M473.5,230.6
		c4.3,0,6-2.8,6-6.7s-1.3-6.5-5.9-6.5c-4.1,0-6,3.4-6,6.7C467.6,227.3,469.5,230.6,473.5,230.6"/>
	<path id="Path_16373" fill="#5E415C" d="M499.9,207.3v11.6c0.6-1.3,2.2-3.7,6.3-3.7c3.7,0,6.3,2.3,6.3,7.1v10.1h-2.5v-9.7
		c0-3-1.2-5.3-4.5-5.3c-3.8,0-5.6,3.1-5.6,6.7v8.3h-2.5v-25H499.9z"/>
	<path id="Path_16374" fill="#5E415C" d="M533.1,227.4c0,1.6,0,3.3,0,4.9h-2.4c-0.1-1-0.1-2.1-0.1-3.1c-0.8,2.1-2.4,3.5-6.1,3.5
		c-3.5,0-6.3-1.9-6.3-6.8v-10.4h2.5v9.9c0,2.6,1,5,4.3,5c3.9,0,5.6-2.3,5.6-7.4v-7.5h2.5L533.1,227.4z"/>
	<path id="Path_16375" fill="#5E415C" d="M538.7,219.9c0-1.5,0-2.9,0-4.3h2.5c0.1,0.9,0.1,1.8,0.1,2.7c1.1-2,3.2-3.2,5.5-3.1
		c2.3-0.2,4.4,1.2,5.1,3.3c1.1-2.1,3.4-3.4,5.8-3.3c3.2,0,5.9,1.9,5.9,6.8v10.4H561V222c0-2.1-0.7-4.7-3.8-4.7c-2.9,0-4.8,2-4.8,5.8
		v9.1h-2.5v-10.5c0-2.1-0.7-4.5-3.9-4.5c-3.5,0-4.7,2.7-4.7,6.1v8.8h-2.5L538.7,219.9z"/>
	<path id="Path_16376" fill="#5E415C" d="M583,228.3c0,1.5,0.1,3.6,0.2,4h-2.4c-0.1-0.9-0.2-1.7-0.2-2.6c-0.9,1.8-2.8,3.1-6.4,3.1
		c-4.8,0-6.5-2.9-6.5-5.3c0-4.2,3.9-5.4,8.6-5.4h4.2v-1c0-2-0.8-3.8-4.7-3.8c-3.5,0-4.3,1.6-4.7,3.3h-2.5c0.2-2.3,1.7-5.3,7.2-5.3
		c5.7,0,7.2,2.8,7.2,5.6L583,228.3z M580.5,223.9h-4.2c-4.1,0-6.2,0.9-6.2,3.4c0,1.8,1.3,3.4,4.3,3.4c4.9,0,6-3,6-5.9L580.5,223.9z"
		/>
	<path id="Path_16377" fill="#5E415C" d="M588.8,219.8c0-1.4,0-3,0-4.2h2.5c0.1,0.6,0.1,2.1,0.1,3.4c1-2.5,3.5-4,6.2-3.8
		c3.8,0,6.4,2.4,6.4,7v10.1h-2.5v-9.6c0-3-1.2-5.3-4.5-5.3c-3.7,0-5.6,3-5.6,7.1v7.9h-2.5L588.8,219.8z"/>
	<path id="Path_16378" fill="#5E415C" d="M635.1,207.3v20.1c0,1.6,0,3.3,0,4.9h-2.4c-0.1-0.9-0.1-1.8-0.1-2.7
		c-0.8,1.5-2.3,3.2-6.3,3.2c-4.9,0-8.1-3.6-8.1-8.7c0-5.5,4-9,8.4-9c4.1,0,5.5,2,5.9,2.8v-10.7H635.1z M626.7,230.6
		c4.3,0,6-2.8,6-6.7s-1.3-6.5-5.9-6.5c-4.1,0-6,3.4-6,6.7C620.8,227.3,622.8,230.6,626.7,230.6"/>
	<path id="Path_16379" fill="#5E415C" d="M641.9,224.5c0.2,3.5,2.6,6.1,6.2,6.1c2.2,0.2,4.3-1,5.3-3h2.5c-0.9,2.4-3.2,5.1-8.1,5.1
		c-5.7,0-8.5-4.3-8.5-8.8c0-5.1,3.4-8.9,8.4-8.9c6.3,0,8.4,4.7,8.4,8.7v0.7L641.9,224.5z M653.5,222.6c-0.1-2.2-1.3-5.4-5.8-5.4
		c-3.6,0-5.5,2.3-5.8,5.4H653.5z"/>
	<path id="Path_16380" fill="#5E415C" d="M660.8,215.6c1.3,3.1,5.6,12.6,6.2,14.3h0c0.4-1.2,1.5-3.9,6.1-14.3h2.6l-7.4,16.7h-2.7
		l-7.5-16.7H660.8z"/>
	<path id="Path_16381" fill="#5E415C" d="M680,224.5c0.2,3.5,2.6,6.1,6.2,6.1c2.2,0.2,4.3-1,5.3-3h2.5c-0.9,2.4-3.2,5.1-8.1,5.1
		c-5.7,0-8.5-4.3-8.5-8.8c0-5.1,3.4-8.9,8.4-8.9c6.3,0,8.4,4.7,8.4,8.7v0.7L680,224.5z M691.6,222.6c-0.1-2.2-1.3-5.4-5.8-5.4
		c-3.6,0-5.5,2.3-5.8,5.4H691.6z"/>
	<rect id="Rectangle_11219" x="698.4" y="207.3" fill="#5E415C" width="2.5" height="25"/>
	<path id="Path_16382" fill="#5E415C" d="M722.6,223.9c0,4.5-2.9,8.8-8.8,8.8c-5.5,0-8.6-4.2-8.6-8.8c-0.2-4.7,3.4-8.6,8.1-8.8
		c0.2,0,0.4,0,0.7,0C719.6,215.2,722.6,219.5,722.6,223.9 M707.8,224c0,3.4,2.2,6.6,6.1,6.6c4.1,0,6.1-3.1,6.1-6.6
		c0-3.6-2.3-6.7-6.2-6.7C709.8,217.3,707.8,220.4,707.8,224"/>
	<path id="Path_16383" fill="#5E415C" d="M726.9,239.7v-19.9c0-1.4,0-2.8,0-4.2h2.4c0.1,0.5,0.1,1.7,0.1,3.1c1-1.9,3-3.5,6.6-3.5
		c4.5,0,7.8,3.7,7.8,8.5c0,5.3-3.7,9.1-8.2,9.1c-3.7,0-5.2-1.6-6.1-3.2v10.1H726.9z M735.3,217.3c-4.1,0-6,3-6,6.7
		c0,3.7,2,6.5,5.9,6.5c4,0,5.9-3.3,5.9-6.8C741.2,220.7,739.4,217.3,735.3,217.3"/>
	<path id="Path_16384" fill="#5E415C" d="M748,219.9c0-1.5,0-2.9,0-4.3h2.5c0.1,0.9,0.1,1.8,0.1,2.7c1.1-2,3.2-3.2,5.5-3.1
		c2.3-0.2,4.4,1.2,5.1,3.3c1.1-2.1,3.4-3.4,5.8-3.3c3.2,0,5.9,1.9,5.9,6.8v10.4h-2.5V222c0-2.1-0.7-4.7-3.8-4.7
		c-2.9,0-4.8,2-4.8,5.8v9.1h-2.5v-10.5c0-2.1-0.7-4.5-3.9-4.5c-3.4,0-4.7,2.7-4.7,6.1v8.8H748L748,219.9z"/>
	<path id="Path_16385" fill="#5E415C" d="M779.7,224.5c0.2,3.5,2.6,6.1,6.2,6.1c2.2,0.2,4.3-1,5.3-3h2.5c-0.9,2.4-3.2,5.1-8.1,5.1
		c-5.7,0-8.5-4.3-8.5-8.8c0-5.1,3.4-8.9,8.4-8.9c6.3,0,8.4,4.7,8.4,8.7v0.7L779.7,224.5z M791.3,222.6c-0.1-2.2-1.3-5.4-5.8-5.4
		c-3.6,0-5.5,2.3-5.8,5.4H791.3z"/>
	<path id="Path_16386" fill="#5E415C" d="M798.3,219.8c0-1.4,0-3,0-4.2h2.5c0.1,0.6,0.1,2.1,0.1,3.4c1-2.5,3.5-4,6.2-3.8
		c3.8,0,6.4,2.4,6.4,7v10.1h-2.5v-9.6c0-3-1.2-5.3-4.5-5.3c-3.7,0-5.6,3-5.6,7.1v7.9h-2.5L798.3,219.8z"/>
	<path id="Path_16387" fill="#5E415C" d="M816.4,215.6h3.4v-5.5h2.5v5.5h4.5v2.1h-4.5v9.8c0,2.1,0.6,3,2.4,3c0.6,0,1.2,0,1.7-0.2
		v1.9c-0.8,0.2-1.6,0.3-2.4,0.3c-3.3,0-4.3-1.5-4.3-4.8v-10h-3.4V215.6z"/>
	<path id="Path_16388" fill="#5E415C" d="M360,263.7c0,4.5-2.9,8.8-8.8,8.8c-5.5,0-8.6-4.2-8.6-8.8c-0.2-4.7,3.4-8.6,8.1-8.8
		c0.2,0,0.4,0,0.7,0C356.9,255,360,259.3,360,263.7 M345.1,263.8c0,3.4,2.2,6.6,6.1,6.6c4.1,0,6.1-3.1,6.1-6.6
		c0-3.6-2.3-6.7-6.2-6.7C347.1,257.1,345.1,260.2,345.1,263.8"/>
	<path id="Path_16389" fill="#5E415C" d="M364.3,260c0-1.5,0-3.1,0-4.5h2.4c0,0.5,0.1,2.2,0.1,3.9c1.2-2.7,3.9-4.5,6.9-4.3v2.5
		c-3.9-0.1-6.9,2.5-6.9,7.4v7.2h-2.5L364.3,260z"/>
	<path id="Path_16390" fill="#5E415C" d="M377,247.1h2.5v3.6H377V247.1z M377,255.4h2.5v16.7H377V255.4z"/>
	<path id="Path_16391" fill="#5E415C" d="M386.3,264.3c0.2,3.5,2.6,6.1,6.2,6.1c2.2,0.2,4.3-1,5.3-3h2.5c-0.9,2.4-3.2,5.1-8.1,5.1
		c-5.7,0-8.5-4.3-8.5-8.8c0-5.1,3.4-8.9,8.4-8.9c6.3,0,8.4,4.7,8.4,8.7v0.7L386.3,264.3z M398,262.4c-0.1-2.2-1.3-5.4-5.8-5.4
		c-3.6,0-5.5,2.3-5.8,5.4H398z"/>
	<path id="Path_16392" fill="#5E415C" d="M404.9,259.6c0-1.4,0-3,0-4.2h2.5c0.1,0.6,0.1,2.1,0.1,3.4c1-2.5,3.5-4,6.2-3.8
		c3.8,0,6.4,2.4,6.4,7v10.1h-2.5v-9.6c0-3-1.2-5.3-4.5-5.3c-3.7,0-5.6,3-5.6,7.1v7.9h-2.5L404.9,259.6z"/>
	<path id="Path_16393" fill="#5E415C" d="M423,255.4h3.4v-5.5h2.5v5.5h4.5v2.1h-4.5v9.8c0,2.1,0.6,3,2.4,3c0.6,0,1.2,0,1.7-0.2v1.9
		c-0.8,0.2-1.6,0.3-2.4,0.3c-3.3,0-4.3-1.5-4.3-4.8v-10H423V255.4z"/>
	<path id="Path_16394" fill="#5E415C" d="M438,264.3c0.2,3.5,2.6,6.1,6.2,6.1c2.2,0.2,4.3-1,5.3-3h2.5c-0.9,2.4-3.2,5.1-8.1,5.1
		c-5.7,0-8.5-4.3-8.5-8.8c0-5.1,3.4-8.9,8.4-8.9c6.3,0,8.4,4.7,8.4,8.7v0.7L438,264.3z M449.7,262.4c-0.1-2.2-1.3-5.4-5.8-5.4
		c-3.6,0-5.5,2.3-5.8,5.4H449.7z"/>
	<path id="Path_16395" fill="#5E415C" d="M472.4,247.1v20.1c0,1.6,0,3.3,0,4.9H470c-0.1-0.9-0.1-1.8-0.1-2.7
		c-0.8,1.5-2.3,3.2-6.3,3.2c-4.9,0-8.1-3.6-8.1-8.7c0-5.5,4-9,8.4-9c4.1,0,5.5,2,5.9,2.8v-10.7H472.4z M464,270.4c4.3,0,6-2.8,6-6.7
		s-1.3-6.5-5.9-6.5c-4.1,0-6,3.4-6,6.7C458.1,267.1,460.1,270.4,464,270.4"/>
	<path id="Path_16396" fill="#5E415C" d="M488.9,267.1c0.6,2.2,2.5,3.5,5.7,3.5c3.5,0,4.8-1.3,4.8-3c0-1.5-0.9-2.6-5.4-3.1
		c-5.7-0.7-6.9-2.7-6.9-4.7c0-2.1,1.7-4.8,6.9-4.8c5.8,0,7.3,3.1,7.4,4.9h-2.5c-0.3-1.1-1-2.9-5-2.9c-3.4,0-4.1,1.5-4.1,2.6
		c0,1.4,0.9,2.2,4.9,2.8c6.1,0.8,7.4,2.6,7.4,5.1c0,3-2.3,5.1-7.5,5.1c-4.9,0-7.6-2.1-8.2-5.5L488.9,267.1z"/>
	<path id="Path_16397" fill="#5E415C" d="M506.8,255.4c3.7,8.5,5.9,13.3,6.4,14.8h0c0.6-1.7,2.5-6.6,5.9-14.8h2.7l-6.8,16.3
		c-3,7.1-4.1,8.3-7.9,8.3c-0.7,0-1.4-0.1-2.1-0.2v-2.3c0.6,0.1,1.3,0.1,1.9,0.1c2.2,0,3.2-1,4.9-4.7l-7.8-17.5L506.8,255.4z"/>
	<path id="Path_16398" fill="#5E415C" d="M526.1,267.1c0.6,2.2,2.5,3.5,5.7,3.5c3.5,0,4.8-1.3,4.8-3c0-1.5-0.9-2.6-5.4-3.1
		c-5.7-0.7-6.9-2.7-6.9-4.7c0-2.1,1.7-4.8,6.9-4.8c5.8,0,7.3,3.1,7.4,4.9h-2.5c-0.3-1.1-1-2.9-5-2.9c-3.4,0-4.1,1.5-4.1,2.6
		c0,1.4,0.9,2.2,4.9,2.8c6.1,0.8,7.4,2.6,7.4,5.1c0,3-2.3,5.1-7.5,5.1c-4.9,0-7.6-2.1-8.2-5.5L526.1,267.1z"/>
	<path id="Path_16399" fill="#5E415C" d="M541,255.4h3.4v-5.5h2.5v5.5h4.5v2.1h-4.5v9.8c0,2.1,0.6,3,2.4,3c0.6,0,1.2,0,1.7-0.2v1.9
		c-0.8,0.2-1.6,0.3-2.4,0.3c-3.3,0-4.3-1.5-4.3-4.8v-10H541V255.4z"/>
	<path id="Path_16400" fill="#5E415C" d="M556,264.3c0.2,3.5,2.6,6.1,6.2,6.1c2.2,0.2,4.3-1,5.3-3h2.5c-0.9,2.4-3.2,5.1-8.1,5.1
		c-5.7,0-8.5-4.3-8.5-8.8c0-5.1,3.4-8.9,8.4-8.9c6.3,0,8.4,4.7,8.4,8.7v0.7L556,264.3z M567.6,262.4c-0.1-2.2-1.3-5.4-5.8-5.4
		c-3.6,0-5.5,2.3-5.8,5.4H567.6z"/>
	<path id="Path_16401" fill="#5E415C" d="M574.6,259.7c0-1.5,0-2.9,0-4.3h2.5c0.1,0.9,0.1,1.8,0.1,2.7c1.1-2,3.2-3.2,5.5-3.1
		c2.3-0.2,4.4,1.2,5.1,3.3c1.1-2.1,3.4-3.4,5.8-3.3c3.2,0,5.9,1.9,5.9,6.8v10.4h-2.5v-10.3c0-2.1-0.7-4.7-3.8-4.7
		c-2.9,0-4.8,2-4.8,5.8v9.1h-2.5v-10.5c0-2.1-0.7-4.5-3.9-4.5c-3.5,0-4.7,2.7-4.7,6.1v8.8h-2.5L574.6,259.7z"/>
	<path id="Path_16402" fill="#5E415C" d="M345.2,95h38.4c28.5,0,48,17.6,48,44s-19.5,44-48,44h-38.4V95z M382.9,169.1
		c19.6,0,32.3-11.9,32.3-30.1s-12.7-30.1-32.3-30.1h-21.3v60.3H382.9z"/>
	<path id="Path_16403" fill="#5E415C" d="M526.3,134.2v48.7H510v-22.6h-45.7v22.6h-16.1v-48.7c0-26.4,15.7-40.4,39.1-40.4
		S526.3,107.8,526.3,134.2 M510,146.6v-13.9c0-16.7-8.9-24.6-22.9-24.6s-22.9,7.9-22.9,24.6v13.9H510z"/>
	<path id="Path_16404" fill="#19D7AA" d="M627.3,95v87.9h-16.3v-37.7h-45.5v37.7h-16.3V95h16.3v36.3h45.5V95L627.3,95z"/>
	<path id="Path_16405" fill="#5E415C" d="M650.9,95h38.4c28.5,0,48,17.6,48,44s-19.5,44-48,44h-38.4V95z M688.5,169.1
		c19.6,0,32.3-11.9,32.3-30.1s-12.7-30.1-32.3-30.1h-21.4v60.3H688.5z"/>
	<path id="Path_16406" fill="#5E415C" d="M748.3,139c0-26,20.1-45.2,47.3-45.2S843,112.9,843,139s-20.1,45.2-47.3,45.2
		S748.3,165,748.3,139 M826.6,139c0-18-13.2-30.9-30.9-30.9S764.8,121,764.8,139s13.2,30.9,30.9,30.9S826.6,156.9,826.6,139"/>
	<path id="Path_16407" fill="#5E415C" d="M852.9,173.6l5.7-12.7c7,5.7,18.2,9.7,29,9.7c13.7,0,19.5-4.9,19.5-11.4
		c0-19-52.2-6.5-52.2-39.2c0-14.2,11.3-26.2,35.4-26.2c10.5,0,21.6,2.8,29.3,7.8l-5.2,12.7c-7.3-4.4-15.7-6.8-24.2-6.9
		c-13.6,0-19.1,5.3-19.1,11.9c0,18.7,52.1,6.5,52.1,38.8c0,14.1-11.4,26.1-35.5,26.1C873.9,184.2,860.2,179.9,852.9,173.6"/>
</g>
</svg>
