<svg version="1.1" xmlns="http://www.w3.org/2000/svg" xmlns:xlink="http://www.w3.org/1999/xlink" x="0px" y="0px"
	 viewBox="0 0 923.3 290.6" enable-background="new 0 0 923.3 290.6" xml:space="preserve">
<g id="dahdos-logo-1">
	<g id="l4" transform="translate(-519.625 -299.057)">
		<g id="Group_11552">
			<g id="Group_11041" transform="translate(519.625 299.057)">
				<g>
					<defs>
						<rect id="SVGID_1_" x="9.6" y="4.4" width="251.3" height="281.9"/>
					</defs>
					<clipPath id="SVGID_00000183231836517736756310000017270547113475774848_">
						<use xlink:href="#SVGID_1_"  overflow="visible"/>
					</clipPath>
					<g id="Group_11040" clip-path="url(#SVGID_00000183231836517736756310000017270547113475774848_)">
						<path id="Path_18138" fill="#19D7AA" d="M260.9,126.5c0-0.1,0-0.2,0-0.3l0-39.3c0-7.9-5.4-17.2-12.2-21.2L147.4,7.3
							c-6.9-4-17.6-4-24.5,0L67.5,39.4l0,0L21.8,65.8C15,69.8,9.6,79.1,9.6,87l0.1,116.8c0,7.9,5.4,17.2,12.2,21.2l84.9,49h0
							l16.2,9.3c7.6,3.9,16.7,4,24.4,0.1l0.1,0l0.1,0l37.6-21.7l0,0l63.5-36.7c6.9-4,12.2-13.3,12.2-21.2l0-76.8
							C260.9,126.8,260.9,126.7,260.9,126.5 M254.8,176c-3,5.8-6.3,11.9-8.9,16.6l-1.4-55.2c3.1-1.5,5.2-4.5,5.8-7.8h4.5L254.8,176z
							 M130.4,255.8c-1.5,3.3-5.3,4.7-8.6,3.3c-2.3-1-3.8-3.3-3.8-5.9c0-1.1,0.3-2.1,0.8-3c1.1-2.1,3.3-3.5,5.7-3.5
							c0.1,0,0.1,0,0.2,0c0,0,0,0,0.1,0c3.5,0.1,6.3,3,6.2,6.5c0,0.3,0,0.7-0.1,1C130.8,254.7,130.6,255.3,130.4,255.8 M80.2,169.6
							c-3.6,0-6.5-2.9-6.5-6.5c0-3.6,2.9-6.5,6.5-6.5s6.5,2.9,6.5,6.5c0,0.9-0.2,1.8-0.6,2.7C85.1,168,82.8,169.5,80.2,169.6
							 M73,64.6c3.6,0,6.5,2.9,6.5,6.5c0,1.1-0.3,2.1-0.8,3c-1.7,3.1-5.6,4.3-8.7,2.6s-4.3-5.6-2.6-8.7C68.4,65.9,70.6,64.6,73,64.6
							 M167.4,77c0.1,0.8,0.3,1.6,0.6,2.4l-82.1,74.5c-1-0.6-2.2-1.1-3.4-1.4l-5.6-71.4c3.1-1.2,5.5-3.7,6.4-6.9L167.4,77z
							 M178.6,69.4c3.3,0.3,5.9,3,6,6.3c0,0,0,0.1,0,0.1c0,2.2-1.1,4.2-2.9,5.4c-0.1,0.1-0.2,0.1-0.4,0.2c-1.8,1.1-4.1,1.2-6,0.3
							c-0.2-0.1-0.4-0.2-0.6-0.3c-3.1-1.8-4.1-5.8-2.2-8.9c1.2-2,3.3-3.2,5.6-3.2C178.3,69.4,178.4,69.4,178.6,69.4 M245.9,129.6
							c-1,3.4-4.6,5.4-8,4.4c-2.7-0.8-4.6-3.3-4.7-6.2c0.1-1.1,0.4-2.2,0.9-3.2c1.7-3.1,5.6-4.3,8.7-2.5
							C245.5,123.5,246.8,126.7,245.9,129.6 M229,129.2l-40.1,19.7c-1.4-1.5-3.2-2.6-5.3-3.2l-2.1-59.7c1.3-0.4,2.5-1.1,3.6-2
							l45.6,37.8C229.3,124,228.7,126.6,229,129.2 M170.4,153.9l-80.1,5.5c-0.1-0.3-0.3-0.7-0.4-1l81.6-74c1.2,0.9,2.5,1.6,4,1.9
							l2.1,59.6C174,147.1,171.2,150.1,170.4,153.9 M70.8,81.7l5.6,71.4c-0.6,0.2-1.2,0.5-1.8,0.9l-56.7-51.6l47.1-24
							C66.5,80.1,68.6,81.2,70.8,81.7 M90.7,165.4l80.1-5.5c0.5,1.4,1.3,2.6,2.3,3.7l-46.1,79.1c-1.4-0.4-3-0.4-4.4-0.2L87.5,171
							C89.1,169.5,90.2,167.6,90.7,165.4 M132.3,245.7l46.1-79.1c0.8,0.2,1.7,0.3,2.6,0.3c0,0,0.1,0,0.1,0l17.9,58.4L133.4,247
							C133,246.5,132.7,246.1,132.3,245.7 M185.5,160.8c-0.5,0.5-1.1,0.9-1.8,1.3c-0.9,0.4-1.8,0.6-2.7,0.6c-3.6,0-6.5-2.9-6.5-6.5
							c0-2.3,1.2-4.5,3.2-5.6c3.1-1.8,7.1-0.7,8.8,2.4c0.6,1,0.9,2.1,0.9,3.2c0,0.1,0,0.1,0,0.2c0,0.3,0,0.5-0.1,0.8
							C187.1,158.5,186.5,159.8,185.5,160.8 M191.5,154.3l39.9-19.6c1.8,2.1,4.3,3.5,7,3.8l1.5,58.3L191,160
							C191.7,158.2,191.9,156.2,191.5,154.3 M249.5,74.3c3.1,3.5,5.3,8.5,5.3,12.6l0,36.6h-5.2c-0.9-2.1-2.5-3.9-4.5-5.1L249.5,74.3
							z M243.9,70l-4.3,43.2l-21.4-58.1L243.9,70z M234.5,117.1l-46.1-38.1c0.8-2.5,0.5-5.3-0.6-7.7c7.9-5.8,18-13.9,23.1-18
							L234.5,117.1z M144.4,12.6L207,48.7c-5.3,4.2-15.6,12.4-23.2,18c-1.7-1.1-3.7-1.6-5.7-1.6c-0.7,0-1.4,0.1-2.1,0.2l-34-53.8
							C142.8,11.8,143.6,12.2,144.4,12.6 M135.3,12.3l35.3,55.9c-0.9,0.8-1.6,1.8-2.1,2.8l-85.2-2.7c-0.2-0.9-0.6-1.7-1-2.5
							L135.3,12.3z M126,12.6c0.3-0.1,0.6-0.3,0.8-0.4L78,61.6c-1.1-0.6-2.2-0.9-3.4-1.1l-2.3-16.9L126,12.6z M66.6,46.9l2,14.4
							c-2.1,0.9-3.9,2.6-5,4.6l-21.8-4.6L66.6,46.9z M15.7,87c0-5.8,4.2-13.1,9.2-16l9-5.2l28.3,6c0,0.4,0.1,0.8,0.1,1.2L15.7,96.7
							L15.7,87z M15.7,108.5l54.9,49.9c-0.2,0.5-0.4,0.9-0.6,1.4l-54.2-1.3L15.7,108.5z M15.7,203.8l0-39.2l54.1,1.3
							c0.1,0.6,0.3,1.1,0.6,1.6l-52.2,44.7C16.7,209.7,15.8,206.7,15.7,203.8 M24.9,219.7c-1.2-0.7-2.3-1.6-3.2-2.6L71,175
							l-27.3,55.6L24.9,219.7z M49,233.6l29.4-59.9c1.2,0.2,2.5,0.2,3.7,0l35.2,71.5c-1.4,1.3-2.5,3-3.1,4.9H77.6L49,233.6z
							 M88.1,256.1h26.1c0.3,1,0.7,1.9,1.2,2.7l-7.6,8.6L88.1,256.1z M126.1,278.1l-13-7.5l6.8-7.7c2.7,1.3,5.8,1.4,8.5,0.3
							l12.7,16.3C136.3,280.8,130.1,280.4,126.1,278.1 M181.5,256.7l-34.7,20.1l-13.6-17.3c1.3-1.8,2-4,2-6.3c0-0.1,0-0.2,0-0.4
							l60.7-20L181.5,256.7z M192.3,250.4l10.8-17.9c2.1,2.3,4.9,5.2,7.2,7.5L192.3,250.4z M230.3,228.5l-14.5,8.4
							c-3.2-3.2-6.4-6.6-8.5-8.8l30-18L230.3,228.5z M204.5,222.7l-17.6-57.6c0.2-0.1,0.3-0.2,0.5-0.4l50.4,37.9L204.5,222.7z
							 M245.6,219.6l-7.1,4.1l5.3-14.1c1.7,2.6,3.6,5.6,4.8,7.5C247.8,218.1,246.8,218.9,245.6,219.6 M252.5,211.9
							c-1.8-2.9-4.3-6.6-5.7-8.9c1.9-2.9,4.9-8.2,8-14.1l0,14.7C254.7,206.6,253.9,209.4,252.5,211.9"/>
					</g>
				</g>
			</g>
		</g>
	</g>
</g>
<g id="logo">
	<path id="Path_16366" fill="#5E415C" d="M359.5,207.3v20.1c0,1.6,0,3.3,0,4.9h-2.4c-0.1-0.9-0.1-1.8-0.1-2.7
		c-0.8,1.5-2.3,3.2-6.3,3.2c-4.9,0-8.1-3.6-8.1-8.7c0-5.5,4-9,8.4-9c4.1,0,5.5,2,5.9,2.8v-10.7H359.5z M351,230.6c4.3,0,6-2.8,6-6.7
		s-1.3-6.5-5.9-6.5c-4.1,0-6,3.4-6,6.7C345.2,227.3,347.1,230.6,351,230.6"/>
	<path id="Path_16367" fill="#5E415C" d="M379.1,228.3c0,1.5,0.1,3.6,0.2,4h-2.4c-0.1-0.9-0.2-1.7-0.2-2.6c-0.9,1.8-2.8,3.1-6.4,3.1
		c-4.8,0-6.5-2.9-6.5-5.3c0-4.2,3.9-5.4,8.6-5.4h4.2v-1c0-2-0.8-3.8-4.7-3.8c-3.5,0-4.3,1.6-4.7,3.3h-2.5c0.2-2.3,1.7-5.3,7.2-5.3
		c5.7,0,7.2,2.8,7.2,5.6L379.1,228.3z M376.6,223.9h-4.2c-4.1,0-6.2,0.9-6.2,3.4c0,1.8,1.3,3.4,4.3,3.4c4.9,0,6-3,6-5.9L376.6,223.9
		z"/>
	<path id="Path_16368" fill="#5E415C" d="M381.9,215.6h3.4v-5.5h2.5v5.5h4.5v2.1h-4.5v9.8c0,2.1,0.6,3,2.4,3c0.6,0,1.2,0,1.7-0.2
		v1.9c-0.8,0.2-1.6,0.3-2.4,0.3c-3.3,0-4.3-1.5-4.3-4.8v-10h-3.4V215.6z"/>
	<path id="Path_16369" fill="#5E415C" d="M410.1,228.3c0,1.5,0.1,3.6,0.2,4h-2.4c-0.1-0.9-0.2-1.7-0.2-2.6c-0.9,1.8-2.8,3.1-6.4,3.1
		c-4.8,0-6.5-2.9-6.5-5.3c0-4.2,3.9-5.4,8.6-5.4h4.2v-1c0-2-0.8-3.8-4.7-3.8c-3.5,0-4.3,1.6-4.7,3.3h-2.5c0.2-2.3,1.7-5.3,7.2-5.3
		c5.7,0,7.2,2.8,7.2,5.6L410.1,228.3z M407.6,223.9h-4.2c-4.1,0-6.2,0.9-6.2,3.4c0,1.8,1.3,3.4,4.3,3.4c4.9,0,6-3,6-5.9L407.6,223.9
		z"/>
	<path id="Path_16370" fill="#5E415C" d="M439.8,228.3c0,1.5,0.1,3.6,0.2,4h-2.4c-0.1-0.9-0.2-1.7-0.2-2.6c-0.9,1.8-2.8,3.1-6.4,3.1
		c-4.8,0-6.5-2.9-6.5-5.3c0-4.2,3.9-5.4,8.6-5.4h4.2v-1c0-2-0.8-3.8-4.7-3.8c-3.5,0-4.3,1.6-4.7,3.3h-2.5c0.2-2.3,1.7-5.3,7.2-5.3
		c5.7,0,7.2,2.8,7.2,5.6L439.8,228.3z M437.3,223.9h-4.2c-4.1,0-6.2,0.9-6.2,3.4c0,1.8,1.3,3.4,4.3,3.4c4.9,0,6-3,6-5.9L437.3,223.9
		z"/>
	<path id="Path_16371" fill="#5E415C" d="M445.6,219.8c0-1.4,0-3,0-4.2h2.5c0.1,0.6,0.1,2.1,0.1,3.4c1-2.5,3.5-4,6.2-3.8
		c3.8,0,6.4,2.4,6.4,7v10.1h-2.5v-9.6c0-3-1.2-5.3-4.5-5.3c-3.7,0-5.6,3-5.6,7.1v7.9h-2.5L445.6,219.8z"/>
	<path id="Path_16372" fill="#5E415C" d="M481.9,207.3v20.1c0,1.6,0,3.3,0,4.9h-2.4c-0.1-0.9-0.1-1.8-0.1-2.7
		c-0.8,1.5-2.3,3.2-6.3,3.2c-4.9,0-8.1-3.6-8.1-8.7c0-5.5,4-9,8.4-9c4.1,0,5.5,2,5.9,2.8v-10.7H481.9z M473.5,230.6
		c4.3,0,6-2.8,6-6.7s-1.3-6.5-5.9-6.5c-4.1,0-6,3.4-6,6.7C467.6,227.3,469.5,230.6,473.5,230.6"/>
	<path id="Path_16373" fill="#5E415C" d="M499.9,207.3v11.6c0.6-1.3,2.2-3.7,6.3-3.7c3.7,0,6.3,2.3,6.3,7.1v10.1h-2.5v-9.7
		c0-3-1.2-5.3-4.5-5.3c-3.8,0-5.6,3.1-5.6,6.7v8.3h-2.5v-25H499.9z"/>
	<path id="Path_16374" fill="#5E415C" d="M533.1,227.4c0,1.6,0,3.3,0,4.9h-2.4c-0.1-1-0.1-2.1-0.1-3.1c-0.8,2.1-2.4,3.5-6.1,3.5
		c-3.5,0-6.3-1.9-6.3-6.8v-10.4h2.5v9.9c0,2.6,1,5,4.3,5c3.9,0,5.6-2.3,5.6-7.4v-7.5h2.5L533.1,227.4z"/>
	<path id="Path_16375" fill="#5E415C" d="M538.7,219.9c0-1.5,0-2.9,0-4.3h2.5c0.1,0.9,0.1,1.8,0.1,2.7c1.1-2,3.2-3.2,5.5-3.1
		c2.3-0.2,4.4,1.2,5.1,3.3c1.1-2.1,3.4-3.4,5.8-3.3c3.2,0,5.9,1.9,5.9,6.8v10.4H561V222c0-2.1-0.7-4.7-3.8-4.7c-2.9,0-4.8,2-4.8,5.8
		v9.1h-2.5v-10.5c0-2.1-0.7-4.5-3.9-4.5c-3.5,0-4.7,2.7-4.7,6.1v8.8h-2.5L538.7,219.9z"/>
	<path id="Path_16376" fill="#5E415C" d="M583,228.3c0,1.5,0.1,3.6,0.2,4h-2.4c-0.1-0.9-0.2-1.7-0.2-2.6c-0.9,1.8-2.8,3.1-6.4,3.1
		c-4.8,0-6.5-2.9-6.5-5.3c0-4.2,3.9-5.4,8.6-5.4h4.2v-1c0-2-0.8-3.8-4.7-3.8c-3.5,0-4.3,1.6-4.7,3.3h-2.5c0.2-2.3,1.7-5.3,7.2-5.3
		c5.7,0,7.2,2.8,7.2,5.6L583,228.3z M580.5,223.9h-4.2c-4.1,0-6.2,0.9-6.2,3.4c0,1.8,1.3,3.4,4.3,3.4c4.9,0,6-3,6-5.9L580.5,223.9z"
		/>
	<path id="Path_16377" fill="#5E415C" d="M588.8,219.8c0-1.4,0-3,0-4.2h2.5c0.1,0.6,0.1,2.1,0.1,3.4c1-2.5,3.5-4,6.2-3.8
		c3.8,0,6.4,2.4,6.4,7v10.1h-2.5v-9.6c0-3-1.2-5.3-4.5-5.3c-3.7,0-5.6,3-5.6,7.1v7.9h-2.5L588.8,219.8z"/>
	<path id="Path_16378" fill="#5E415C" d="M635.1,207.3v20.1c0,1.6,0,3.3,0,4.9h-2.4c-0.1-0.9-0.1-1.8-0.1-2.7
		c-0.8,1.5-2.3,3.2-6.3,3.2c-4.9,0-8.1-3.6-8.1-8.7c0-5.5,4-9,8.4-9c4.1,0,5.5,2,5.9,2.8v-10.7H635.1z M626.7,230.6
		c4.3,0,6-2.8,6-6.7s-1.3-6.5-5.9-6.5c-4.1,0-6,3.4-6,6.7C620.8,227.3,622.8,230.6,626.7,230.6"/>
	<path id="Path_16379" fill="#5E415C" d="M641.9,224.5c0.2,3.5,2.6,6.1,6.2,6.1c2.2,0.2,4.3-1,5.3-3h2.5c-0.9,2.4-3.2,5.1-8.1,5.1
		c-5.7,0-8.5-4.3-8.5-8.8c0-5.1,3.4-8.9,8.4-8.9c6.3,0,8.4,4.7,8.4,8.7v0.7L641.9,224.5z M653.5,222.6c-0.1-2.2-1.3-5.4-5.8-5.4
		c-3.6,0-5.5,2.3-5.8,5.4H653.5z"/>
	<path id="Path_16380" fill="#5E415C" d="M660.8,215.6c1.3,3.1,5.6,12.6,6.2,14.3h0c0.4-1.2,1.5-3.9,6.1-14.3h2.6l-7.4,16.7h-2.7
		l-7.5-16.7H660.8z"/>
	<path id="Path_16381" fill="#5E415C" d="M680,224.5c0.2,3.5,2.6,6.1,6.2,6.1c2.2,0.2,4.3-1,5.3-3h2.5c-0.9,2.4-3.2,5.1-8.1,5.1
		c-5.7,0-8.5-4.3-8.5-8.8c0-5.1,3.4-8.9,8.4-8.9c6.3,0,8.4,4.7,8.4,8.7v0.7L680,224.5z M691.6,222.6c-0.1-2.2-1.3-5.4-5.8-5.4
		c-3.6,0-5.5,2.3-5.8,5.4H691.6z"/>
	<rect id="Rectangle_11219" x="698.4" y="207.3" fill="#5E415C" width="2.5" height="25"/>
	<path id="Path_16382" fill="#5E415C" d="M722.6,223.9c0,4.5-2.9,8.8-8.8,8.8c-5.5,0-8.6-4.2-8.6-8.8c-0.2-4.7,3.4-8.6,8.1-8.8
		c0.2,0,0.4,0,0.7,0C719.6,215.2,722.6,219.5,722.6,223.9 M707.8,224c0,3.4,2.2,6.6,6.1,6.6c4.1,0,6.1-3.1,6.1-6.6
		c0-3.6-2.3-6.7-6.2-6.7C709.8,217.3,707.8,220.4,707.8,224"/>
	<path id="Path_16383" fill="#5E415C" d="M726.9,239.7v-19.9c0-1.4,0-2.8,0-4.2h2.4c0.1,0.5,0.1,1.7,0.1,3.1c1-1.9,3-3.5,6.6-3.5
		c4.5,0,7.8,3.7,7.8,8.5c0,5.3-3.7,9.1-8.2,9.1c-3.7,0-5.2-1.6-6.1-3.2v10.1H726.9z M735.3,217.3c-4.1,0-6,3-6,6.7
		c0,3.7,2,6.5,5.9,6.5c4,0,5.9-3.3,5.9-6.8C741.2,220.7,739.4,217.3,735.3,217.3"/>
	<path id="Path_16384" fill="#5E415C" d="M748,219.9c0-1.5,0-2.9,0-4.3h2.5c0.1,0.9,0.1,1.8,0.1,2.7c1.1-2,3.2-3.2,5.5-3.1
		c2.3-0.2,4.4,1.2,5.1,3.3c1.1-2.1,3.4-3.4,5.8-3.3c3.2,0,5.9,1.9,5.9,6.8v10.4h-2.5V222c0-2.1-0.7-4.7-3.8-4.7
		c-2.9,0-4.8,2-4.8,5.8v9.1h-2.5v-10.5c0-2.1-0.7-4.5-3.9-4.5c-3.4,0-4.7,2.7-4.7,6.1v8.8H748L748,219.9z"/>
	<path id="Path_16385" fill="#5E415C" d="M779.7,224.5c0.2,3.5,2.6,6.1,6.2,6.1c2.2,0.2,4.3-1,5.3-3h2.5c-0.9,2.4-3.2,5.1-8.1,5.1
		c-5.7,0-8.5-4.3-8.5-8.8c0-5.1,3.4-8.9,8.4-8.9c6.3,0,8.4,4.7,8.4,8.7v0.7L779.7,224.5z M791.3,222.6c-0.1-2.2-1.3-5.4-5.8-5.4
		c-3.6,0-5.5,2.3-5.8,5.4H791.3z"/>
	<path id="Path_16386" fill="#5E415C" d="M798.3,219.8c0-1.4,0-3,0-4.2h2.5c0.1,0.6,0.1,2.1,0.1,3.4c1-2.5,3.5-4,6.2-3.8
		c3.8,0,6.4,2.4,6.4,7v10.1h-2.5v-9.6c0-3-1.2-5.3-4.5-5.3c-3.7,0-5.6,3-5.6,7.1v7.9h-2.5L798.3,219.8z"/>
	<path id="Path_16387" fill="#5E415C" d="M816.4,215.6h3.4v-5.5h2.5v5.5h4.5v2.1h-4.5v9.8c0,2.1,0.6,3,2.4,3c0.6,0,1.2,0,1.7-0.2
		v1.9c-0.8,0.2-1.6,0.3-2.4,0.3c-3.3,0-4.3-1.5-4.3-4.8v-10h-3.4V215.6z"/>
	<path id="Path_16388" fill="#5E415C" d="M360,263.7c0,4.5-2.9,8.8-8.8,8.8c-5.5,0-8.6-4.2-8.6-8.8c-0.2-4.7,3.4-8.6,8.1-8.8
		c0.2,0,0.4,0,0.7,0C356.9,255,360,259.3,360,263.7 M345.1,263.8c0,3.4,2.2,6.6,6.1,6.6c4.1,0,6.1-3.1,6.1-6.6
		c0-3.6-2.3-6.7-6.2-6.7C347.1,257.1,345.1,260.2,345.1,263.8"/>
	<path id="Path_16389" fill="#5E415C" d="M364.3,260c0-1.5,0-3.1,0-4.5h2.4c0,0.5,0.1,2.2,0.1,3.9c1.2-2.7,3.9-4.5,6.9-4.3v2.5
		c-3.9-0.1-6.9,2.5-6.9,7.4v7.2h-2.5L364.3,260z"/>
	<path id="Path_16390" fill="#5E415C" d="M377,247.1h2.5v3.6H377V247.1z M377,255.4h2.5v16.7H377V255.4z"/>
	<path id="Path_16391" fill="#5E415C" d="M386.3,264.3c0.2,3.5,2.6,6.1,6.2,6.1c2.2,0.2,4.3-1,5.3-3h2.5c-0.9,2.4-3.2,5.1-8.1,5.1
		c-5.7,0-8.5-4.3-8.5-8.8c0-5.1,3.4-8.9,8.4-8.9c6.3,0,8.4,4.7,8.4,8.7v0.7L386.3,264.3z M398,262.4c-0.1-2.2-1.3-5.4-5.8-5.4
		c-3.6,0-5.5,2.3-5.8,5.4H398z"/>
	<path id="Path_16392" fill="#5E415C" d="M404.9,259.6c0-1.4,0-3,0-4.2h2.5c0.1,0.6,0.1,2.1,0.1,3.4c1-2.5,3.5-4,6.2-3.8
		c3.8,0,6.4,2.4,6.4,7v10.1h-2.5v-9.6c0-3-1.2-5.3-4.5-5.3c-3.7,0-5.6,3-5.6,7.1v7.9h-2.5L404.9,259.6z"/>
	<path id="Path_16393" fill="#5E415C" d="M423,255.4h3.4v-5.5h2.5v5.5h4.5v2.1h-4.5v9.8c0,2.1,0.6,3,2.4,3c0.6,0,1.2,0,1.7-0.2v1.9
		c-0.8,0.2-1.6,0.3-2.4,0.3c-3.3,0-4.3-1.5-4.3-4.8v-10H423V255.4z"/>
	<path id="Path_16394" fill="#5E415C" d="M438,264.3c0.2,3.5,2.6,6.1,6.2,6.1c2.2,0.2,4.3-1,5.3-3h2.5c-0.9,2.4-3.2,5.1-8.1,5.1
		c-5.7,0-8.5-4.3-8.5-8.8c0-5.1,3.4-8.9,8.4-8.9c6.3,0,8.4,4.7,8.4,8.7v0.7L438,264.3z M449.7,262.4c-0.1-2.2-1.3-5.4-5.8-5.4
		c-3.6,0-5.5,2.3-5.8,5.4H449.7z"/>
	<path id="Path_16395" fill="#5E415C" d="M472.4,247.1v20.1c0,1.6,0,3.3,0,4.9H470c-0.1-0.9-0.1-1.8-0.1-2.7
		c-0.8,1.5-2.3,3.2-6.3,3.2c-4.9,0-8.1-3.6-8.1-8.7c0-5.5,4-9,8.4-9c4.1,0,5.5,2,5.9,2.8v-10.7H472.4z M464,270.4c4.3,0,6-2.8,6-6.7
		s-1.3-6.5-5.9-6.5c-4.1,0-6,3.4-6,6.7C458.1,267.1,460.1,270.4,464,270.4"/>
	<path id="Path_16396" fill="#5E415C" d="M488.9,267.1c0.6,2.2,2.5,3.5,5.7,3.5c3.5,0,4.8-1.3,4.8-3c0-1.5-0.9-2.6-5.4-3.1
		c-5.7-0.7-6.9-2.7-6.9-4.7c0-2.1,1.7-4.8,6.9-4.8c5.8,0,7.3,3.1,7.4,4.9h-2.5c-0.3-1.1-1-2.9-5-2.9c-3.4,0-4.1,1.5-4.1,2.6
		c0,1.4,0.9,2.2,4.9,2.8c6.1,0.8,7.4,2.6,7.4,5.1c0,3-2.3,5.1-7.5,5.1c-4.9,0-7.6-2.1-8.2-5.5L488.9,267.1z"/>
	<path id="Path_16397" fill="#5E415C" d="M506.8,255.4c3.7,8.5,5.9,13.3,6.4,14.8h0c0.6-1.7,2.5-6.6,5.9-14.8h2.7l-6.8,16.3
		c-3,7.1-4.1,8.3-7.9,8.3c-0.7,0-1.4-0.1-2.1-0.2v-2.3c0.6,0.1,1.3,0.1,1.9,0.1c2.2,0,3.2-1,4.9-4.7l-7.8-17.5L506.8,255.4z"/>
	<path id="Path_16398" fill="#5E415C" d="M526.1,267.1c0.6,2.2,2.5,3.5,5.7,3.5c3.5,0,4.8-1.3,4.8-3c0-1.5-0.9-2.6-5.4-3.1
		c-5.7-0.7-6.9-2.7-6.9-4.7c0-2.1,1.7-4.8,6.9-4.8c5.8,0,7.3,3.1,7.4,4.9h-2.5c-0.3-1.1-1-2.9-5-2.9c-3.4,0-4.1,1.5-4.1,2.6
		c0,1.4,0.9,2.2,4.9,2.8c6.1,0.8,7.4,2.6,7.4,5.1c0,3-2.3,5.1-7.5,5.1c-4.9,0-7.6-2.1-8.2-5.5L526.1,267.1z"/>
	<path id="Path_16399" fill="#5E415C" d="M541,255.4h3.4v-5.5h2.5v5.5h4.5v2.1h-4.5v9.8c0,2.1,0.6,3,2.4,3c0.6,0,1.2,0,1.7-0.2v1.9
		c-0.8,0.2-1.6,0.3-2.4,0.3c-3.3,0-4.3-1.5-4.3-4.8v-10H541V255.4z"/>
	<path id="Path_16400" fill="#5E415C" d="M556,264.3c0.2,3.5,2.6,6.1,6.2,6.1c2.2,0.2,4.3-1,5.3-3h2.5c-0.9,2.4-3.2,5.1-8.1,5.1
		c-5.7,0-8.5-4.3-8.5-8.8c0-5.1,3.4-8.9,8.4-8.9c6.3,0,8.4,4.7,8.4,8.7v0.7L556,264.3z M567.6,262.4c-0.1-2.2-1.3-5.4-5.8-5.4
		c-3.6,0-5.5,2.3-5.8,5.4H567.6z"/>
	<path id="Path_16401" fill="#5E415C" d="M574.6,259.7c0-1.5,0-2.9,0-4.3h2.5c0.1,0.9,0.1,1.8,0.1,2.7c1.1-2,3.2-3.2,5.5-3.1
		c2.3-0.2,4.4,1.2,5.1,3.3c1.1-2.1,3.4-3.4,5.8-3.3c3.2,0,5.9,1.9,5.9,6.8v10.4h-2.5v-10.3c0-2.1-0.7-4.7-3.8-4.7
		c-2.9,0-4.8,2-4.8,5.8v9.1h-2.5v-10.5c0-2.1-0.7-4.5-3.9-4.5c-3.5,0-4.7,2.7-4.7,6.1v8.8h-2.5L574.6,259.7z"/>
	<path id="Path_16402" fill="#5E415C" d="M345.2,95h38.4c28.5,0,48,17.6,48,44s-19.5,44-48,44h-38.4V95z M382.9,169.1
		c19.6,0,32.3-11.9,32.3-30.1s-12.7-30.1-32.3-30.1h-21.3v60.3H382.9z"/>
	<path id="Path_16403" fill="#5E415C" d="M526.3,134.2v48.7H510v-22.6h-45.7v22.6h-16.1v-48.7c0-26.4,15.7-40.4,39.1-40.4
		S526.3,107.8,526.3,134.2 M510,146.6v-13.9c0-16.7-8.9-24.6-22.9-24.6s-22.9,7.9-22.9,24.6v13.9H510z"/>
	<path id="Path_16404" fill="#19D7AA" d="M627.3,95v87.9h-16.3v-37.7h-45.5v37.7h-16.3V95h16.3v36.3h45.5V95L627.3,95z"/>
	<path id="Path_16405" fill="#5E415C" d="M650.9,95h38.4c28.5,0,48,17.6,48,44s-19.5,44-48,44h-38.4V95z M688.5,169.1
		c19.6,0,32.3-11.9,32.3-30.1s-12.7-30.1-32.3-30.1h-21.4v60.3H688.5z"/>
	<path id="Path_16406" fill="#5E415C" d="M748.3,139c0-26,20.1-45.2,47.3-45.2S843,112.9,843,139s-20.1,45.2-47.3,45.2
		S748.3,165,748.3,139 M826.6,139c0-18-13.2-30.9-30.9-30.9S764.8,121,764.8,139s13.2,30.9,30.9,30.9S826.6,156.9,826.6,139"/>
	<path id="Path_16407" fill="#5E415C" d="M852.9,173.6l5.7-12.7c7,5.7,18.2,9.7,29,9.7c13.7,0,19.5-4.9,19.5-11.4
		c0-19-52.2-6.5-52.2-39.2c0-14.2,11.3-26.2,35.4-26.2c10.5,0,21.6,2.8,29.3,7.8l-5.2,12.7c-7.3-4.4-15.7-6.8-24.2-6.9
		c-13.6,0-19.1,5.3-19.1,11.9c0,18.7,52.1,6.5,52.1,38.8c0,14.1-11.4,26.1-35.5,26.1C873.9,184.2,860.2,179.9,852.9,173.6"/>
</g>
</svg>
