<svg version="1.1" xmlns="http://www.w3.org/2000/svg" xmlns:xlink="http://www.w3.org/1999/xlink" x="0px" y="0px"
	 viewBox="0 0 923.3 290.6" enable-background="new 0 0 923.3 290.6" xml:space="preserve">
<g id="dahdos-logo-1">
	<g id="l3" transform="translate(-519.623 -373.906)">
		<g id="Group_11039" transform="translate(519.623 373.906)">
			<g>
				<defs>
					<rect id="SVGID_1_" x="9.6" y="79.8" width="251.3" height="193.4"/>
				</defs>
				<clipPath id="SVGID_00000122684485437249355060000014085810008368809150_">
					<use xlink:href="#SVGID_1_"  overflow="visible"/>
				</clipPath>
				<g id="Group_11038-2" clip-path="url(#SVGID_00000122684485437249355060000014085810008368809150_)">
					<path id="Path_18074" fill="#19D7AA" d="M20.5,79.8c-6,0-10.9,4.9-10.9,10.9c0,6,4.9,10.9,10.9,10.9c6,0,10.9-4.9,10.9-10.9
						c0,0,0,0,0,0C31.4,84.7,26.6,79.8,20.5,79.8"/>
					<path id="Path_18075" fill="#19D7AA" d="M46,79.8c-6,0-10.9,4.9-10.9,10.9c0,6,4.9,10.9,10.9,10.9c6,0,10.9-4.9,10.9-10.9
						c0,0,0,0,0,0C56.9,84.7,52,79.8,46,79.8"/>
					<path id="Path_18076" fill="#19D7AA" d="M148,101.6c6,0,10.9-4.9,10.9-10.9c0-6-4.9-10.9-10.9-10.9c-6,0-10.9,4.9-10.9,10.9
						c0,0,0,0,0,0C137.1,96.7,142,101.6,148,101.6"/>
					<path id="Path_18077" fill="#19D7AA" d="M173.5,79.8c-6,0-10.9,4.9-10.9,10.9c0,6,4.9,10.9,10.9,10.9c6,0,10.9-4.9,10.9-10.9
						C184.4,84.7,179.5,79.8,173.5,79.8C173.5,79.8,173.5,79.8,173.5,79.8 M173.5,97.1c-3.6,0-6.4-2.9-6.4-6.4s2.9-6.4,6.4-6.4
						c3.6,0,6.4,2.9,6.4,6.4C179.9,94.3,177,97.1,173.5,97.1"/>
					<path id="Path_18078" fill="#19D7AA" d="M224.5,79.8c-6,0-10.9,4.9-10.9,10.9c0,6,4.9,10.9,10.9,10.9s10.9-4.9,10.9-10.9
						c0,0,0,0,0,0C235.4,84.7,230.5,79.8,224.5,79.8"/>
					<path id="Path_18079" fill="#19D7AA" d="M250,101.6c6,0,10.9-4.9,10.9-10.9c0-6-4.9-10.9-10.9-10.9s-10.9,4.9-10.9,10.9
						C239.1,96.7,244,101.6,250,101.6L250,101.6"/>
					<path id="Path_18080" fill="#19D7AA" d="M20.5,104.3c-6,0-10.9,4.9-10.9,10.9c0,6,4.9,10.9,10.9,10.9s10.9-4.9,10.9-10.9
						c0,0,0,0,0,0C31.4,109.2,26.6,104.3,20.5,104.3"/>
					<path id="Path_18081" fill="#19D7AA" d="M46,104.3c-6,0-10.9,4.9-10.9,10.9c0,6,4.9,10.9,10.9,10.9c6,0,10.9-4.9,10.9-10.9
						c0,0,0,0,0,0C56.9,109.2,52,104.3,46,104.3C46,104.3,46,104.3,46,104.3"/>
					<path id="Path_18082" fill="#19D7AA" d="M71.5,104.3c-6,0-10.9,4.9-10.9,10.9c0,6,4.9,10.9,10.9,10.9c6,0,10.9-4.9,10.9-10.9
						c0,0,0,0,0,0C82.4,109.2,77.5,104.3,71.5,104.3"/>
					<path id="Path_18083" fill="#19D7AA" d="M97,104.3c-6,0-10.9,4.9-10.9,10.9c0,6,4.9,10.9,10.9,10.9c6,0,10.9-4.9,10.9-10.9
						c0,0,0,0,0,0C107.9,109.2,103,104.3,97,104.3 M97,121.7c-3.6,0-6.4-2.9-6.4-6.4c0-3.6,2.9-6.4,6.4-6.4s6.4,2.9,6.4,6.4
						c0,0,0,0,0,0C103.4,118.8,100.6,121.6,97,121.7"/>
					<path id="Path_18084" fill="#19D7AA" d="M173.5,104.3c-6,0-10.9,4.9-10.9,10.9c0,6,4.9,10.9,10.9,10.9c6,0,10.9-4.9,10.9-10.9
						C184.4,109.2,179.5,104.3,173.5,104.3C173.5,104.3,173.5,104.3,173.5,104.3"/>
					<path id="Path_18085" fill="#19D7AA" d="M199,104.3c-6,0-10.9,4.9-10.9,10.9c0,6,4.9,10.9,10.9,10.9c6,0,10.9-4.9,10.9-10.9
						c0,0,0,0,0,0C209.9,109.2,205,104.3,199,104.3C199,104.3,199,104.3,199,104.3"/>
					<path id="Path_18086" fill="#19D7AA" d="M224.5,104.3c-6,0-10.9,4.9-10.9,10.9c0,6,4.9,10.9,10.9,10.9s10.9-4.9,10.9-10.9
						c0,0,0,0,0,0C235.4,109.2,230.5,104.3,224.5,104.3"/>
					<path id="Path_18087" fill="#19D7AA" d="M250,104.3c-6,0-10.9,4.9-10.9,10.9c0,6,4.9,10.9,10.9,10.9s10.9-4.9,10.9-10.9
						c0,0,0,0,0,0C260.9,109.2,256,104.3,250,104.3C250,104.3,250,104.3,250,104.3 M250,121.7c-3.6,0-6.4-2.9-6.4-6.4
						c0-3.6,2.9-6.4,6.4-6.4c3.6,0,6.4,2.9,6.4,6.4c0,0,0,0,0,0C256.4,118.8,253.5,121.6,250,121.7"/>
					<path id="Path_18088" fill="#19D7AA" d="M20.5,150.6c6,0,10.9-4.9,10.9-10.9s-4.9-10.9-10.9-10.9c-6,0-10.9,4.9-10.9,10.9
						c0,0,0,0,0,0C9.6,145.8,14.5,150.6,20.5,150.6 M20.5,133.3c3.6,0,6.4,2.9,6.4,6.4s-2.9,6.4-6.4,6.4s-6.4-2.9-6.4-6.4
						C14.1,136.2,17,133.3,20.5,133.3"/>
					<path id="Path_18089" fill="#19D7AA" d="M71.5,128.8c-6,0-10.9,4.9-10.9,10.9c0,6,4.9,10.9,10.9,10.9c6,0,10.9-4.9,10.9-10.9
						c0,0,0,0,0,0C82.4,133.7,77.5,128.8,71.5,128.8"/>
					<path id="Path_18090" fill="#19D7AA" d="M97,150.6c6,0,10.9-4.9,10.9-10.9c0-6-4.9-10.9-10.9-10.9c-6,0-10.9,4.9-10.9,10.9
						C86.1,145.8,91,150.6,97,150.6"/>
					<path id="Path_18091" fill="#19D7AA" d="M122.5,128.8c-6,0-10.9,4.9-10.9,10.9c0,6,4.9,10.9,10.9,10.9c6,0,10.9-4.9,10.9-10.9
						C133.4,133.7,128.5,128.8,122.5,128.8C122.5,128.8,122.5,128.8,122.5,128.8"/>
					<path id="Path_18092" fill="#19D7AA" d="M173.5,128.8c-6,0-10.9,4.9-10.9,10.9c0,6,4.9,10.9,10.9,10.9c6,0,10.9-4.9,10.9-10.9
						C184.4,133.7,179.5,128.8,173.5,128.8C173.5,128.8,173.5,128.8,173.5,128.8"/>
					<path id="Path_18093" fill="#19D7AA" d="M199,128.8c-6,0-10.9,4.9-10.9,10.9s4.9,10.9,10.9,10.9c6,0,10.9-4.9,10.9-10.9
						C209.9,133.7,205,128.8,199,128.8C199,128.8,199,128.8,199,128.8"/>
					<path id="Path_18094" fill="#19D7AA" d="M224.5,128.8c-6,0-10.9,4.9-10.9,10.9s4.9,10.9,10.9,10.9c6,0,10.9-4.9,10.9-10.9
						C235.4,133.7,230.5,128.8,224.5,128.8"/>
					<path id="Path_18095" fill="#19D7AA" d="M250,128.8c-6,0-10.9,4.9-10.9,10.9s4.9,10.9,10.9,10.9c6,0,10.9-4.9,10.9-10.9
						c0,0,0,0,0,0C260.9,133.7,256,128.8,250,128.8"/>
					<path id="Path_18096" fill="#19D7AA" d="M20.5,153.3c-6,0-10.9,4.9-10.9,10.9c0,6,4.9,10.9,10.9,10.9s10.9-4.9,10.9-10.9l0,0
						C31.4,158.2,26.6,153.3,20.5,153.3"/>
					<path id="Path_18097" fill="#19D7AA" d="M46,153.3c-6,0-10.9,4.9-10.9,10.9S40,175.1,46,175.1s10.9-4.9,10.9-10.9l0,0
						C56.9,158.2,52,153.3,46,153.3"/>
					<path id="Path_18098" fill="#19D7AA" d="M71.5,153.3c-6,0-10.9,4.9-10.9,10.9c0,6,4.9,10.9,10.9,10.9c6,0,10.9-4.9,10.9-10.9
						l0,0C82.4,158.2,77.5,153.3,71.5,153.3"/>
					<path id="Path_18099" fill="#19D7AA" d="M97,175.1c6,0,10.9-4.9,10.9-10.9S103,153.3,97,153.3c-6,0-10.9,4.9-10.9,10.9
						c0,0,0,0,0,0C86.1,170.3,91,175.1,97,175.1"/>
					<path id="Path_18100" fill="#19D7AA" d="M122.5,153.3c-6,0-10.9,4.9-10.9,10.9c0,6,4.9,10.9,10.9,10.9c6,0,10.9-4.9,10.9-10.9
						C133.4,158.2,128.5,153.3,122.5,153.3C122.5,153.3,122.5,153.3,122.5,153.3"/>
					<path id="Path_18101" fill="#19D7AA" d="M148,153.3c-6,0-10.9,4.9-10.9,10.9c0,6,4.9,10.9,10.9,10.9c6,0,10.9-4.9,10.9-10.9
						C158.9,158.2,154,153.3,148,153.3C148,153.3,148,153.3,148,153.3 M148,170.7c-3.6,0-6.4-2.9-6.4-6.4c0-3.6,2.9-6.4,6.4-6.4
						c3.6,0,6.4,2.9,6.4,6.4C154.4,167.8,151.5,170.7,148,170.7"/>
					<path id="Path_18102" fill="#19D7AA" d="M173.5,153.3c-6,0-10.9,4.9-10.9,10.9c0,6,4.9,10.9,10.9,10.9c6,0,10.9-4.9,10.9-10.9
						C184.4,158.2,179.5,153.3,173.5,153.3C173.5,153.3,173.5,153.3,173.5,153.3"/>
					<path id="Path_18103" fill="#19D7AA" d="M199,153.3c-6,0-10.9,4.9-10.9,10.9s4.9,10.9,10.9,10.9c6,0,10.9-4.9,10.9-10.9
						C209.9,158.2,205,153.3,199,153.3C199,153.3,199,153.3,199,153.3"/>
					<path id="Path_18104" fill="#19D7AA" d="M224.5,153.3c-6,0-10.9,4.9-10.9,10.9s4.9,10.9,10.9,10.9s10.9-4.9,10.9-10.9
						C235.4,158.2,230.5,153.3,224.5,153.3"/>
					<path id="Path_18105" fill="#19D7AA" d="M250,153.3c-6,0-10.9,4.9-10.9,10.9s4.9,10.9,10.9,10.9s10.9-4.9,10.9-10.9
						c0,0,0,0,0,0C260.9,158.2,256,153.3,250,153.3"/>
					<path id="Path_18106" fill="#19D7AA" d="M20.5,177.8c-6,0-10.9,4.9-10.9,10.9c0,6,4.9,10.9,10.9,10.9s10.9-4.9,10.9-10.9
						c0,0,0,0,0,0C31.4,182.7,26.6,177.8,20.5,177.8"/>
					<path id="Path_18107" fill="#19D7AA" d="M46,177.8c-6,0-10.9,4.9-10.9,10.9c0,6,4.9,10.9,10.9,10.9s10.9-4.9,10.9-10.9
						c0,0,0,0,0,0C56.9,182.7,52,177.8,46,177.8"/>
					<path id="Path_18108" fill="#19D7AA" d="M71.5,177.8c-6,0-10.9,4.9-10.9,10.9c0,6,4.9,10.9,10.9,10.9c6,0,10.9-4.9,10.9-10.9
						c0,0,0,0,0,0C82.4,182.7,77.5,177.8,71.5,177.8"/>
					<path id="Path_18109" fill="#19D7AA" d="M97,177.8c-6,0-10.9,4.9-10.9,10.9c0,6,4.9,10.9,10.9,10.9c6,0,10.9-4.9,10.9-10.9
						c0,0,0,0,0,0C107.9,182.7,103,177.8,97,177.8 M97,195.2c-3.6,0-6.4-2.9-6.4-6.4c0-3.6,2.9-6.4,6.4-6.4c3.6,0,6.4,2.9,6.4,6.4
						c0,0,0,0,0,0C103.4,192.3,100.6,195.2,97,195.2"/>
					<path id="Path_18110" fill="#19D7AA" d="M122.5,177.8c-6,0-10.9,4.9-10.9,10.9c0,6,4.9,10.9,10.9,10.9c6,0,10.9-4.9,10.9-10.9
						C133.4,182.7,128.5,177.8,122.5,177.8C122.5,177.8,122.5,177.8,122.5,177.8"/>
					<path id="Path_18111" fill="#19D7AA" d="M148,177.8c-6,0-10.9,4.9-10.9,10.9c0,6,4.9,10.9,10.9,10.9c6,0,10.9-4.9,10.9-10.9
						C158.9,182.7,154,177.8,148,177.8C148,177.8,148,177.8,148,177.8"/>
					<path id="Path_18112" fill="#19D7AA" d="M173.5,177.8c-6,0-10.9,4.9-10.9,10.9c0,6,4.9,10.9,10.9,10.9c6,0,10.9-4.9,10.9-10.9
						C184.4,182.7,179.5,177.8,173.5,177.8C173.5,177.8,173.5,177.8,173.5,177.8"/>
					<path id="Path_18113" fill="#19D7AA" d="M209.9,188.8c0-6-4.9-10.9-10.9-10.9c-6,0-10.9,4.9-10.9,10.9c0,6,4.9,10.9,10.9,10.9
						C205,199.7,209.9,194.8,209.9,188.8C209.9,188.8,209.9,188.8,209.9,188.8 M192.6,188.8c0-3.6,2.9-6.4,6.4-6.4s6.4,2.9,6.4,6.4
						c0,3.6-2.9,6.4-6.4,6.4l0,0C195.4,195.2,192.6,192.3,192.6,188.8"/>
					<path id="Path_18114" fill="#19D7AA" d="M224.5,177.8c-6,0-10.9,4.9-10.9,10.9s4.9,10.9,10.9,10.9s10.9-4.9,10.9-10.9
						c0,0,0,0,0,0C235.4,182.7,230.5,177.8,224.5,177.8"/>
					<path id="Path_18115" fill="#19D7AA" d="M250,177.8c-6,0-10.9,4.9-10.9,10.9s4.9,10.9,10.9,10.9s10.9-4.9,10.9-10.9
						c0,0,0,0,0,0C260.9,182.7,256,177.8,250,177.8"/>
					<path id="Path_18116" fill="#19D7AA" d="M31.4,213.3c0-6-4.9-10.9-10.9-10.9c-5.5,0-10.1,4-10.8,9.4c1.9,4.2,5,7.7,8.8,10.1
						l3.7,2.1C27.5,223.2,31.4,218.6,31.4,213.3"/>
					<path id="Path_18117" fill="#19D7AA" d="M46,202.4c-6,0-10.9,4.9-10.9,10.9c0,6,4.9,10.9,10.9,10.9s10.9-4.9,10.9-10.9
						C56.9,207.2,52,202.4,46,202.4 M46,219.7c-3.6,0-6.4-2.9-6.4-6.4c0-3.6,2.9-6.4,6.4-6.4c3.6,0,6.4,2.9,6.4,6.4c0,0,0,0,0,0
						C52.4,216.8,49.6,219.7,46,219.7"/>
					<path id="Path_18118" fill="#19D7AA" d="M71.5,202.4c-6,0-10.9,4.9-10.9,10.9c0,6,4.9,10.9,10.9,10.9c6,0,10.9-4.9,10.9-10.9
						C82.4,207.2,77.5,202.4,71.5,202.4"/>
					<path id="Path_18119" fill="#19D7AA" d="M97,202.4c-6,0-10.9,4.9-10.9,10.9c0,6,4.9,10.9,10.9,10.9c6,0,10.9-4.9,10.9-10.9
						C107.9,207.2,103,202.4,97,202.4"/>
					<path id="Path_18120" fill="#19D7AA" d="M122.5,202.4c-6,0-10.9,4.9-10.9,10.9c0,6,4.9,10.9,10.9,10.9c6,0,10.9-4.9,10.9-10.9
						C133.4,207.2,128.5,202.4,122.5,202.4C122.5,202.4,122.5,202.4,122.5,202.4"/>
					<path id="Path_18121" fill="#19D7AA" d="M148,202.4c-6,0-10.9,4.9-10.9,10.9c0,6,4.9,10.9,10.9,10.9c6,0,10.9-4.9,10.9-10.9
						C158.9,207.2,154,202.4,148,202.4C148,202.4,148,202.4,148,202.4"/>
					<path id="Path_18122" fill="#19D7AA" d="M173.5,202.4c-6,0-10.9,4.9-10.9,10.9c0,6,4.9,10.9,10.9,10.9c6,0,10.9-4.9,10.9-10.9
						C184.4,207.2,179.5,202.4,173.5,202.4C173.5,202.4,173.5,202.4,173.5,202.4"/>
					<path id="Path_18123" fill="#19D7AA" d="M199,202.4c-6,0-10.9,4.9-10.9,10.9s4.9,10.9,10.9,10.9c6,0,10.9-4.9,10.9-10.9
						C209.9,207.2,205,202.4,199,202.4C199,202.4,199,202.4,199,202.4"/>
					<path id="Path_18124" fill="#19D7AA" d="M224.5,202.4c-6,0-10.9,4.9-10.9,10.9s4.9,10.9,10.9,10.9c6,0,10.9-4.9,10.9-10.9
						C235.4,207.2,230.5,202.4,224.5,202.4"/>
					<path id="Path_18125" fill="#19D7AA" d="M250,202.4c-6,0-10.9,4.9-10.9,10.9c0,5.4,3.9,9.9,9.1,10.8l3.8-2.2
						c3.8-2.4,6.9-5.9,8.8-10C260,206.4,255.4,202.4,250,202.4"/>
					<path id="Path_18126" fill="#19D7AA" d="M46,226.9c-3.9,0-7.5,2.1-9.4,5.4l18.9,10.9c3-5.2,1.2-11.9-4-14.9
						C49.8,227.4,47.9,226.9,46,226.9"/>
					<path id="Path_18127" fill="#19D7AA" d="M71.5,226.9c-6,0-10.9,4.9-10.9,10.9c0,6,4.9,10.9,10.9,10.9c6,0,10.9-4.9,10.9-10.9
						c0,0,0,0,0,0C82.4,231.7,77.5,226.9,71.5,226.9"/>
					<path id="Path_18128" fill="#19D7AA" d="M97,226.9c-6,0-10.9,4.9-10.9,10.9c0,6,4.9,10.9,10.9,10.9c6,0,10.9-4.9,10.9-10.9
						c0,0,0,0,0,0C107.9,231.7,103,226.9,97,226.9L97,226.9"/>
					<path id="Path_18129" fill="#19D7AA" d="M122.5,226.9c-6,0-10.9,4.9-10.9,10.9c0,6,4.9,10.9,10.9,10.9c6,0,10.9-4.9,10.9-10.9
						C133.4,231.7,128.5,226.9,122.5,226.9C122.5,226.9,122.5,226.9,122.5,226.9"/>
					<path id="Path_18130" fill="#19D7AA" d="M148,226.9c-6,0-10.9,4.9-10.9,10.9c0,6,4.9,10.9,10.9,10.9c6,0,10.9-4.9,10.9-10.9
						C158.9,231.7,154,226.9,148,226.9C148,226.9,148,226.9,148,226.9"/>
					<path id="Path_18131" fill="#19D7AA" d="M173.5,226.9c-6,0-10.9,4.9-10.9,10.9c0,6,4.9,10.9,10.9,10.9c6,0,10.9-4.9,10.9-10.9
						C184.4,231.7,179.5,226.9,173.5,226.9C173.5,226.9,173.5,226.9,173.5,226.9"/>
					<path id="Path_18132" fill="#19D7AA" d="M199,226.9c-6,0-10.9,4.9-10.9,10.9s4.9,10.9,10.9,10.9s10.9-4.9,10.9-10.9l0,0
						C209.9,231.7,205,226.9,199,226.9C199,226.9,199,226.9,199,226.9"/>
					<path id="Path_18133" fill="#19D7AA" d="M224.5,226.9c-6,0-10.9,4.9-10.9,10.9c0,1.9,0.5,3.8,1.4,5.4l18.9-10.9
						C231.9,228.9,228.4,226.9,224.5,226.9"/>
					<path id="Path_18134" fill="#19D7AA" d="M107.9,262.3c0-6-4.8-10.9-10.9-10.9c-5.5,0-10.2,4.1-10.9,9.6l17.4,10
						C106.3,268.9,107.9,265.7,107.9,262.3"/>
					<path id="Path_18135" fill="#19D7AA" d="M122.5,251.4c-6,0-10.9,4.9-10.9,10.9c0,6,4.9,10.9,10.9,10.9c6,0,10.9-4.9,10.9-10.9
						c0,0,0,0,0,0C133.4,256.3,128.5,251.4,122.5,251.4C122.5,251.4,122.5,251.4,122.5,251.4"/>
					<path id="Path_18136" fill="#19D7AA" d="M148,251.4c-6,0-10.9,4.9-10.9,10.9s4.9,10.9,10.9,10.9c6,0,10.9-4.9,10.9-10.9
						c0,0,0,0,0,0C158.9,256.3,154,251.4,148,251.4C148,251.4,148,251.4,148,251.4"/>
					<path id="Path_18137" fill="#19D7AA" d="M173.5,251.4c-6,0-10.9,4.9-10.9,10.9c0,3.4,1.6,6.7,4.3,8.7l17.4-10
						C183.6,255.5,179,251.4,173.5,251.4"/>
				</g>
			</g>
		</g>
	</g>
</g>
<g id="logo">
	<path id="Path_16366" fill="#5E415C" d="M359.5,207.3v20.1c0,1.6,0,3.3,0,4.9h-2.4c-0.1-0.9-0.1-1.8-0.1-2.7
		c-0.8,1.5-2.3,3.2-6.3,3.2c-4.9,0-8.1-3.6-8.1-8.7c0-5.5,4-9,8.4-9c4.1,0,5.5,2,5.9,2.8v-10.7H359.5z M351,230.6c4.3,0,6-2.8,6-6.7
		s-1.3-6.5-5.9-6.5c-4.1,0-6,3.4-6,6.7C345.2,227.3,347.1,230.6,351,230.6"/>
	<path id="Path_16367" fill="#5E415C" d="M379.1,228.3c0,1.5,0.1,3.6,0.2,4h-2.4c-0.1-0.9-0.2-1.7-0.2-2.6c-0.9,1.8-2.8,3.1-6.4,3.1
		c-4.8,0-6.5-2.9-6.5-5.3c0-4.2,3.9-5.4,8.6-5.4h4.2v-1c0-2-0.8-3.8-4.7-3.8c-3.5,0-4.3,1.6-4.7,3.3h-2.5c0.2-2.3,1.7-5.3,7.2-5.3
		c5.7,0,7.2,2.8,7.2,5.6L379.1,228.3z M376.6,223.9h-4.2c-4.1,0-6.2,0.9-6.2,3.4c0,1.8,1.3,3.4,4.3,3.4c4.9,0,6-3,6-5.9L376.6,223.9
		z"/>
	<path id="Path_16368" fill="#5E415C" d="M381.9,215.6h3.4v-5.5h2.5v5.5h4.5v2.1h-4.5v9.8c0,2.1,0.6,3,2.4,3c0.6,0,1.2,0,1.7-0.2
		v1.9c-0.8,0.2-1.6,0.3-2.4,0.3c-3.3,0-4.3-1.5-4.3-4.8v-10h-3.4V215.6z"/>
	<path id="Path_16369" fill="#5E415C" d="M410.1,228.3c0,1.5,0.1,3.6,0.2,4h-2.4c-0.1-0.9-0.2-1.7-0.2-2.6c-0.9,1.8-2.8,3.1-6.4,3.1
		c-4.8,0-6.5-2.9-6.5-5.3c0-4.2,3.9-5.4,8.6-5.4h4.2v-1c0-2-0.8-3.8-4.7-3.8c-3.5,0-4.3,1.6-4.7,3.3h-2.5c0.2-2.3,1.7-5.3,7.2-5.3
		c5.7,0,7.2,2.8,7.2,5.6L410.1,228.3z M407.6,223.9h-4.2c-4.1,0-6.2,0.9-6.2,3.4c0,1.8,1.3,3.4,4.3,3.4c4.9,0,6-3,6-5.9L407.6,223.9
		z"/>
	<path id="Path_16370" fill="#5E415C" d="M439.8,228.3c0,1.5,0.1,3.6,0.2,4h-2.4c-0.1-0.9-0.2-1.7-0.2-2.6c-0.9,1.8-2.8,3.1-6.4,3.1
		c-4.8,0-6.5-2.9-6.5-5.3c0-4.2,3.9-5.4,8.6-5.4h4.2v-1c0-2-0.8-3.8-4.7-3.8c-3.5,0-4.3,1.6-4.7,3.3h-2.5c0.2-2.3,1.7-5.3,7.2-5.3
		c5.7,0,7.2,2.8,7.2,5.6L439.8,228.3z M437.3,223.9h-4.2c-4.1,0-6.2,0.9-6.2,3.4c0,1.8,1.3,3.4,4.3,3.4c4.9,0,6-3,6-5.9L437.3,223.9
		z"/>
	<path id="Path_16371" fill="#5E415C" d="M445.6,219.8c0-1.4,0-3,0-4.2h2.5c0.1,0.6,0.1,2.1,0.1,3.4c1-2.5,3.5-4,6.2-3.8
		c3.8,0,6.4,2.4,6.4,7v10.1h-2.5v-9.6c0-3-1.2-5.3-4.5-5.3c-3.7,0-5.6,3-5.6,7.1v7.9h-2.5L445.6,219.8z"/>
	<path id="Path_16372" fill="#5E415C" d="M481.9,207.3v20.1c0,1.6,0,3.3,0,4.9h-2.4c-0.1-0.9-0.1-1.8-0.1-2.7
		c-0.8,1.5-2.3,3.2-6.3,3.2c-4.9,0-8.1-3.6-8.1-8.7c0-5.5,4-9,8.4-9c4.1,0,5.5,2,5.9,2.8v-10.7H481.9z M473.5,230.6
		c4.3,0,6-2.8,6-6.7s-1.3-6.5-5.9-6.5c-4.1,0-6,3.4-6,6.7C467.6,227.3,469.5,230.6,473.5,230.6"/>
	<path id="Path_16373" fill="#5E415C" d="M499.9,207.3v11.6c0.6-1.3,2.2-3.7,6.3-3.7c3.7,0,6.3,2.3,6.3,7.1v10.1h-2.5v-9.7
		c0-3-1.2-5.3-4.5-5.3c-3.8,0-5.6,3.1-5.6,6.7v8.3h-2.5v-25H499.9z"/>
	<path id="Path_16374" fill="#5E415C" d="M533.1,227.4c0,1.6,0,3.3,0,4.9h-2.4c-0.1-1-0.1-2.1-0.1-3.1c-0.8,2.1-2.4,3.5-6.1,3.5
		c-3.5,0-6.3-1.9-6.3-6.8v-10.4h2.5v9.9c0,2.6,1,5,4.3,5c3.9,0,5.6-2.3,5.6-7.4v-7.5h2.5L533.1,227.4z"/>
	<path id="Path_16375" fill="#5E415C" d="M538.7,219.9c0-1.5,0-2.9,0-4.3h2.5c0.1,0.9,0.1,1.8,0.1,2.7c1.1-2,3.2-3.2,5.5-3.1
		c2.3-0.2,4.4,1.2,5.1,3.3c1.1-2.1,3.4-3.4,5.8-3.3c3.2,0,5.9,1.9,5.9,6.8v10.4H561V222c0-2.1-0.7-4.7-3.8-4.7c-2.9,0-4.8,2-4.8,5.8
		v9.1h-2.5v-10.5c0-2.1-0.7-4.5-3.9-4.5c-3.5,0-4.7,2.7-4.7,6.1v8.8h-2.5L538.7,219.9z"/>
	<path id="Path_16376" fill="#5E415C" d="M583,228.3c0,1.5,0.1,3.6,0.2,4h-2.4c-0.1-0.9-0.2-1.7-0.2-2.6c-0.9,1.8-2.8,3.1-6.4,3.1
		c-4.8,0-6.5-2.9-6.5-5.3c0-4.2,3.9-5.4,8.6-5.4h4.2v-1c0-2-0.8-3.8-4.7-3.8c-3.5,0-4.3,1.6-4.7,3.3h-2.5c0.2-2.3,1.7-5.3,7.2-5.3
		c5.7,0,7.2,2.8,7.2,5.6L583,228.3z M580.5,223.9h-4.2c-4.1,0-6.2,0.9-6.2,3.4c0,1.8,1.3,3.4,4.3,3.4c4.9,0,6-3,6-5.9L580.5,223.9z"
		/>
	<path id="Path_16377" fill="#5E415C" d="M588.8,219.8c0-1.4,0-3,0-4.2h2.5c0.1,0.6,0.1,2.1,0.1,3.4c1-2.5,3.5-4,6.2-3.8
		c3.8,0,6.4,2.4,6.4,7v10.1h-2.5v-9.6c0-3-1.2-5.3-4.5-5.3c-3.7,0-5.6,3-5.6,7.1v7.9h-2.5L588.8,219.8z"/>
	<path id="Path_16378" fill="#5E415C" d="M635.1,207.3v20.1c0,1.6,0,3.3,0,4.9h-2.4c-0.1-0.9-0.1-1.8-0.1-2.7
		c-0.8,1.5-2.3,3.2-6.3,3.2c-4.9,0-8.1-3.6-8.1-8.7c0-5.5,4-9,8.4-9c4.1,0,5.5,2,5.9,2.8v-10.7H635.1z M626.7,230.6
		c4.3,0,6-2.8,6-6.7s-1.3-6.5-5.9-6.5c-4.1,0-6,3.4-6,6.7C620.8,227.3,622.8,230.6,626.7,230.6"/>
	<path id="Path_16379" fill="#5E415C" d="M641.9,224.5c0.2,3.5,2.6,6.1,6.2,6.1c2.2,0.2,4.3-1,5.3-3h2.5c-0.9,2.4-3.2,5.1-8.1,5.1
		c-5.7,0-8.5-4.3-8.5-8.8c0-5.1,3.4-8.9,8.4-8.9c6.3,0,8.4,4.7,8.4,8.7v0.7L641.9,224.5z M653.5,222.6c-0.1-2.2-1.3-5.4-5.8-5.4
		c-3.6,0-5.5,2.3-5.8,5.4H653.5z"/>
	<path id="Path_16380" fill="#5E415C" d="M660.8,215.6c1.3,3.1,5.6,12.6,6.2,14.3h0c0.4-1.2,1.5-3.9,6.1-14.3h2.6l-7.4,16.7h-2.7
		l-7.5-16.7H660.8z"/>
	<path id="Path_16381" fill="#5E415C" d="M680,224.5c0.2,3.5,2.6,6.1,6.2,6.1c2.2,0.2,4.3-1,5.3-3h2.5c-0.9,2.4-3.2,5.1-8.1,5.1
		c-5.7,0-8.5-4.3-8.5-8.8c0-5.1,3.4-8.9,8.4-8.9c6.3,0,8.4,4.7,8.4,8.7v0.7L680,224.5z M691.6,222.6c-0.1-2.2-1.3-5.4-5.8-5.4
		c-3.6,0-5.5,2.3-5.8,5.4H691.6z"/>
	<rect id="Rectangle_11219" x="698.4" y="207.3" fill="#5E415C" width="2.5" height="25"/>
	<path id="Path_16382" fill="#5E415C" d="M722.6,223.9c0,4.5-2.9,8.8-8.8,8.8c-5.5,0-8.6-4.2-8.6-8.8c-0.2-4.7,3.4-8.6,8.1-8.8
		c0.2,0,0.4,0,0.7,0C719.6,215.2,722.6,219.5,722.6,223.9 M707.8,224c0,3.4,2.2,6.6,6.1,6.6c4.1,0,6.1-3.1,6.1-6.6
		c0-3.6-2.3-6.7-6.2-6.7C709.8,217.3,707.8,220.4,707.8,224"/>
	<path id="Path_16383" fill="#5E415C" d="M726.9,239.7v-19.9c0-1.4,0-2.8,0-4.2h2.4c0.1,0.5,0.1,1.7,0.1,3.1c1-1.9,3-3.5,6.6-3.5
		c4.5,0,7.8,3.7,7.8,8.5c0,5.3-3.7,9.1-8.2,9.1c-3.7,0-5.2-1.6-6.1-3.2v10.1H726.9z M735.3,217.3c-4.1,0-6,3-6,6.7
		c0,3.7,2,6.5,5.9,6.5c4,0,5.9-3.3,5.9-6.8C741.2,220.7,739.4,217.3,735.3,217.3"/>
	<path id="Path_16384" fill="#5E415C" d="M748,219.9c0-1.5,0-2.9,0-4.3h2.5c0.1,0.9,0.1,1.8,0.1,2.7c1.1-2,3.2-3.2,5.5-3.1
		c2.3-0.2,4.4,1.2,5.1,3.3c1.1-2.1,3.4-3.4,5.8-3.3c3.2,0,5.9,1.9,5.9,6.8v10.4h-2.5V222c0-2.1-0.7-4.7-3.8-4.7
		c-2.9,0-4.8,2-4.8,5.8v9.1h-2.5v-10.5c0-2.1-0.7-4.5-3.9-4.5c-3.4,0-4.7,2.7-4.7,6.1v8.8H748L748,219.9z"/>
	<path id="Path_16385" fill="#5E415C" d="M779.7,224.5c0.2,3.5,2.6,6.1,6.2,6.1c2.2,0.2,4.3-1,5.3-3h2.5c-0.9,2.4-3.2,5.1-8.1,5.1
		c-5.7,0-8.5-4.3-8.5-8.8c0-5.1,3.4-8.9,8.4-8.9c6.3,0,8.4,4.7,8.4,8.7v0.7L779.7,224.5z M791.3,222.6c-0.1-2.2-1.3-5.4-5.8-5.4
		c-3.6,0-5.5,2.3-5.8,5.4H791.3z"/>
	<path id="Path_16386" fill="#5E415C" d="M798.3,219.8c0-1.4,0-3,0-4.2h2.5c0.1,0.6,0.1,2.1,0.1,3.4c1-2.5,3.5-4,6.2-3.8
		c3.8,0,6.4,2.4,6.4,7v10.1h-2.5v-9.6c0-3-1.2-5.3-4.5-5.3c-3.7,0-5.6,3-5.6,7.1v7.9h-2.5L798.3,219.8z"/>
	<path id="Path_16387" fill="#5E415C" d="M816.4,215.6h3.4v-5.5h2.5v5.5h4.5v2.1h-4.5v9.8c0,2.1,0.6,3,2.4,3c0.6,0,1.2,0,1.7-0.2
		v1.9c-0.8,0.2-1.6,0.3-2.4,0.3c-3.3,0-4.3-1.5-4.3-4.8v-10h-3.4V215.6z"/>
	<path id="Path_16388" fill="#5E415C" d="M360,263.7c0,4.5-2.9,8.8-8.8,8.8c-5.5,0-8.6-4.2-8.6-8.8c-0.2-4.7,3.4-8.6,8.1-8.8
		c0.2,0,0.4,0,0.7,0C356.9,255,360,259.3,360,263.7 M345.1,263.8c0,3.4,2.2,6.6,6.1,6.6c4.1,0,6.1-3.1,6.1-6.6
		c0-3.6-2.3-6.7-6.2-6.7C347.1,257.1,345.1,260.2,345.1,263.8"/>
	<path id="Path_16389" fill="#5E415C" d="M364.3,260c0-1.5,0-3.1,0-4.5h2.4c0,0.5,0.1,2.2,0.1,3.9c1.2-2.7,3.9-4.5,6.9-4.3v2.5
		c-3.9-0.1-6.9,2.5-6.9,7.4v7.2h-2.5L364.3,260z"/>
	<path id="Path_16390" fill="#5E415C" d="M377,247.1h2.5v3.6H377V247.1z M377,255.4h2.5v16.7H377V255.4z"/>
	<path id="Path_16391" fill="#5E415C" d="M386.3,264.3c0.2,3.5,2.6,6.1,6.2,6.1c2.2,0.2,4.3-1,5.3-3h2.5c-0.9,2.4-3.2,5.1-8.1,5.1
		c-5.7,0-8.5-4.3-8.5-8.8c0-5.1,3.4-8.9,8.4-8.9c6.3,0,8.4,4.7,8.4,8.7v0.7L386.3,264.3z M398,262.4c-0.1-2.2-1.3-5.4-5.8-5.4
		c-3.6,0-5.5,2.3-5.8,5.4H398z"/>
	<path id="Path_16392" fill="#5E415C" d="M404.9,259.6c0-1.4,0-3,0-4.2h2.5c0.1,0.6,0.1,2.1,0.1,3.4c1-2.5,3.5-4,6.2-3.8
		c3.8,0,6.4,2.4,6.4,7v10.1h-2.5v-9.6c0-3-1.2-5.3-4.5-5.3c-3.7,0-5.6,3-5.6,7.1v7.9h-2.5L404.9,259.6z"/>
	<path id="Path_16393" fill="#5E415C" d="M423,255.4h3.4v-5.5h2.5v5.5h4.5v2.1h-4.5v9.8c0,2.1,0.6,3,2.4,3c0.6,0,1.2,0,1.7-0.2v1.9
		c-0.8,0.2-1.6,0.3-2.4,0.3c-3.3,0-4.3-1.5-4.3-4.8v-10H423V255.4z"/>
	<path id="Path_16394" fill="#5E415C" d="M438,264.3c0.2,3.5,2.6,6.1,6.2,6.1c2.2,0.2,4.3-1,5.3-3h2.5c-0.9,2.4-3.2,5.1-8.1,5.1
		c-5.7,0-8.5-4.3-8.5-8.8c0-5.1,3.4-8.9,8.4-8.9c6.3,0,8.4,4.7,8.4,8.7v0.7L438,264.3z M449.7,262.4c-0.1-2.2-1.3-5.4-5.8-5.4
		c-3.6,0-5.5,2.3-5.8,5.4H449.7z"/>
	<path id="Path_16395" fill="#5E415C" d="M472.4,247.1v20.1c0,1.6,0,3.3,0,4.9H470c-0.1-0.9-0.1-1.8-0.1-2.7
		c-0.8,1.5-2.3,3.2-6.3,3.2c-4.9,0-8.1-3.6-8.1-8.7c0-5.5,4-9,8.4-9c4.1,0,5.5,2,5.9,2.8v-10.7H472.4z M464,270.4c4.3,0,6-2.8,6-6.7
		s-1.3-6.5-5.9-6.5c-4.1,0-6,3.4-6,6.7C458.1,267.1,460.1,270.4,464,270.4"/>
	<path id="Path_16396" fill="#5E415C" d="M488.9,267.1c0.6,2.2,2.5,3.5,5.7,3.5c3.5,0,4.8-1.3,4.8-3c0-1.5-0.9-2.6-5.4-3.1
		c-5.7-0.7-6.9-2.7-6.9-4.7c0-2.1,1.7-4.8,6.9-4.8c5.8,0,7.3,3.1,7.4,4.9h-2.5c-0.3-1.1-1-2.9-5-2.9c-3.4,0-4.1,1.5-4.1,2.6
		c0,1.4,0.9,2.2,4.9,2.8c6.1,0.8,7.4,2.6,7.4,5.1c0,3-2.3,5.1-7.5,5.1c-4.9,0-7.6-2.1-8.2-5.5L488.9,267.1z"/>
	<path id="Path_16397" fill="#5E415C" d="M506.8,255.4c3.7,8.5,5.9,13.3,6.4,14.8h0c0.6-1.7,2.5-6.6,5.9-14.8h2.7l-6.8,16.3
		c-3,7.1-4.1,8.3-7.9,8.3c-0.7,0-1.4-0.1-2.1-0.2v-2.3c0.6,0.1,1.3,0.1,1.9,0.1c2.2,0,3.2-1,4.9-4.7l-7.8-17.5L506.8,255.4z"/>
	<path id="Path_16398" fill="#5E415C" d="M526.1,267.1c0.6,2.2,2.5,3.5,5.7,3.5c3.5,0,4.8-1.3,4.8-3c0-1.5-0.9-2.6-5.4-3.1
		c-5.7-0.7-6.9-2.7-6.9-4.7c0-2.1,1.7-4.8,6.9-4.8c5.8,0,7.3,3.1,7.4,4.9h-2.5c-0.3-1.1-1-2.9-5-2.9c-3.4,0-4.1,1.5-4.1,2.6
		c0,1.4,0.9,2.2,4.9,2.8c6.1,0.8,7.4,2.6,7.4,5.1c0,3-2.3,5.1-7.5,5.1c-4.9,0-7.6-2.1-8.2-5.5L526.1,267.1z"/>
	<path id="Path_16399" fill="#5E415C" d="M541,255.4h3.4v-5.5h2.5v5.5h4.5v2.1h-4.5v9.8c0,2.1,0.6,3,2.4,3c0.6,0,1.2,0,1.7-0.2v1.9
		c-0.8,0.2-1.6,0.3-2.4,0.3c-3.3,0-4.3-1.5-4.3-4.8v-10H541V255.4z"/>
	<path id="Path_16400" fill="#5E415C" d="M556,264.3c0.2,3.5,2.6,6.1,6.2,6.1c2.2,0.2,4.3-1,5.3-3h2.5c-0.9,2.4-3.2,5.1-8.1,5.1
		c-5.7,0-8.5-4.3-8.5-8.8c0-5.1,3.4-8.9,8.4-8.9c6.3,0,8.4,4.7,8.4,8.7v0.7L556,264.3z M567.6,262.4c-0.1-2.2-1.3-5.4-5.8-5.4
		c-3.6,0-5.5,2.3-5.8,5.4H567.6z"/>
	<path id="Path_16401" fill="#5E415C" d="M574.6,259.7c0-1.5,0-2.9,0-4.3h2.5c0.1,0.9,0.1,1.8,0.1,2.7c1.1-2,3.2-3.2,5.5-3.1
		c2.3-0.2,4.4,1.2,5.1,3.3c1.1-2.1,3.4-3.4,5.8-3.3c3.2,0,5.9,1.9,5.9,6.8v10.4h-2.5v-10.3c0-2.1-0.7-4.7-3.8-4.7
		c-2.9,0-4.8,2-4.8,5.8v9.1h-2.5v-10.5c0-2.1-0.7-4.5-3.9-4.5c-3.5,0-4.7,2.7-4.7,6.1v8.8h-2.5L574.6,259.7z"/>
	<path id="Path_16402" fill="#5E415C" d="M345.2,95h38.4c28.5,0,48,17.6,48,44s-19.5,44-48,44h-38.4V95z M382.9,169.1
		c19.6,0,32.3-11.9,32.3-30.1s-12.7-30.1-32.3-30.1h-21.3v60.3H382.9z"/>
	<path id="Path_16403" fill="#5E415C" d="M526.3,134.2v48.7H510v-22.6h-45.7v22.6h-16.1v-48.7c0-26.4,15.7-40.4,39.1-40.4
		S526.3,107.8,526.3,134.2 M510,146.6v-13.9c0-16.7-8.9-24.6-22.9-24.6s-22.9,7.9-22.9,24.6v13.9H510z"/>
	<path id="Path_16404" fill="#19D7AA" d="M627.3,95v87.9h-16.3v-37.7h-45.5v37.7h-16.3V95h16.3v36.3h45.5V95L627.3,95z"/>
	<path id="Path_16405" fill="#5E415C" d="M650.9,95h38.4c28.5,0,48,17.6,48,44s-19.5,44-48,44h-38.4V95z M688.5,169.1
		c19.6,0,32.3-11.9,32.3-30.1s-12.7-30.1-32.3-30.1h-21.4v60.3H688.5z"/>
	<path id="Path_16406" fill="#5E415C" d="M748.3,139c0-26,20.1-45.2,47.3-45.2S843,112.9,843,139s-20.1,45.2-47.3,45.2
		S748.3,165,748.3,139 M826.6,139c0-18-13.2-30.9-30.9-30.9S764.8,121,764.8,139s13.2,30.9,30.9,30.9S826.6,156.9,826.6,139"/>
	<path id="Path_16407" fill="#5E415C" d="M852.9,173.6l5.7-12.7c7,5.7,18.2,9.7,29,9.7c13.7,0,19.5-4.9,19.5-11.4
		c0-19-52.2-6.5-52.2-39.2c0-14.2,11.3-26.2,35.4-26.2c10.5,0,21.6,2.8,29.3,7.8l-5.2,12.7c-7.3-4.4-15.7-6.8-24.2-6.9
		c-13.6,0-19.1,5.3-19.1,11.9c0,18.7,52.1,6.5,52.1,38.8c0,14.1-11.4,26.1-35.5,26.1C873.9,184.2,860.2,179.9,852.9,173.6"/>
</g>
</svg>
