<svg version="1.1" xmlns="http://www.w3.org/2000/svg" xmlns:xlink="http://www.w3.org/1999/xlink" x="0px" y="0px"
	 viewBox="0 0 923.3 290.6" enable-background="new 0 0 923.3 290.6" xml:space="preserve">
<g id="dahdos-logo-1">
	<g id="l2" transform="translate(-810.402 -595.369)">
		<g id="Group_11036" transform="translate(810.402 595.369)">
			<path id="Path_17987" fill="#19D7AA" d="M100.1,219.1c2.3-2.2,4.6-4.5,6.8-6.7c0.4,0.2,0.8,0.4,1.2,0.6c1.6,0.7,3.4,0,4.1-1.6
				c0.6-1.3,0.2-2.7-0.8-3.6c7.6-7.7,14.6-15.2,21.3-22.7c1.2-1.3,2.4-2.7,3.6-4.1c7.4-8.3,15.9-17.6,20.9-27.8
				c4-8.1,3.9-16.1-0.1-23.3c-8.5-15.2-33.5-23.9-48.5-25.2c-5-0.5-10-1.4-15-2.6c-8.3-16.2-22.3-30.8-41.9-43.7
				c-13.1-8.6-25.1-4.7-31.3,1.4c-5.1,4.9-6.6,11.2-3.9,15.7c4.8,8,44.1,24.4,72.7,31.9c1.6,3.4,3,6.9,4.1,10.5
				c-0.2-0.1-0.5-0.2-0.7-0.2c-2.1-0.4-4.1-0.8-6.1-1.3c-1.7-0.4-3.4,0.7-3.8,2.4s0.7,3.4,2.4,3.8c2,0.5,4.1,0.9,6.2,1.3
				c1.2,0.2,2.5-0.3,3.2-1.3c0.8,3.5,1.4,7.1,1.7,10.7c1.8,20.6-4.9,40.6-13.2,56.8c-0.2-0.4-0.5-0.7-0.8-1
				c-1.6-1.3-3.2-2.7-4.7-4.1c-1.3-1.2-3.3-1-4.4,0.3c-1.2,1.3-1,3.3,0.3,4.4c1.6,1.4,3.2,2.8,4.8,4.2c0.6,0.6,1.5,0.8,2.4,0.7
				c-0.3,0.6-0.7,1.2-1,1.8c-0.9-0.3-2-0.1-2.8,0.5c-1.7,1.2-3.3,2.5-5,3.7c-1.4,1-1.7,3-0.7,4.4c0.6,0.8,1.5,1.3,2.5,1.3
				c-7.6,11.6-16.5,22.4-26.4,32.2c-1.3,1.2-1.3,3.2-0.1,4.4c1.2,1.3,3.2,1.3,4.4,0.1c10.3-10.1,19.4-21.3,27.3-33.4
				c2.3-3.5,4.7-7.3,7-11.5c0,1,0.5,2,1.3,2.6c1.8,1.3,3.6,2.5,5.3,3.7c1.5,1,3.4,0.6,4.4-0.9c1-1.5,0.6-3.4-0.9-4.4
				c-1.7-1.1-3.4-2.3-5.1-3.5c-0.4-0.3-0.9-0.5-1.4-0.6l0.1,0c1.7-1.3,3.3-2.7,4.9-4.1c1.3-1.1,1.5-3.1,0.4-4.4
				c-0.6-0.7-1.5-1.1-2.5-1.1c7-15.6,12-33.9,10.3-52.8c-0.2-2.4-0.5-4.8-0.9-7.1c0.2,0.1,0.5,0.2,0.7,0.2c2.1,0.3,4.2,0.6,6.3,0.9
				c0.1,0,0.3,0,0.4,0c1.7,0,3.1-1.4,3.1-3.2c0-1.6-1.2-2.9-2.7-3.1c-2.1-0.3-4.1-0.6-6.2-0.9c-1-0.2-2.1,0.2-2.8,0.9
				c-0.9-3.9-2.1-7.6-3.6-11.3c3.7,0.8,7.4,1.4,11.2,1.8c13.2,1.2,36.2,9,43.6,22c3.1,5.5,3.1,11.2-0.1,17.5
				c-4.7,9.5-12.5,18.1-20,26.4c-1.2,1.4-2.5,2.7-3.7,4.1c-7,7.9-14.4,15.8-22.5,23.9c-0.1-0.1-0.3-0.1-0.4-0.2
				c-1.5-0.8-3.4-0.2-4.2,1.3c-0.6,1.1-0.5,2.3,0.2,3.3c-1.8,1.8-3.6,3.6-5.5,5.4l-3.4,3.4c-9.7,9.5-19.7,19.3-30.9,26.7
				c-1.4,1-1.8,2.9-0.9,4.4s2.9,1.8,4.4,0.9l0,0c11.6-7.7,21.9-17.8,31.8-27.5L100.1,219.1z M22,72.2c-1.1-1.9,0.1-5.2,2.9-7.9
				c3.1-2.9,7.3-4.6,11.6-4.5c4.3,0.1,8.4,1.5,11.9,3.9c16.5,10.8,28.8,22.9,36.8,36.2C57.6,91.8,24.9,76.8,22,72.2"/>
			<path id="Path_17988" fill="#19D7AA" d="M185.1,78.7c-1.2-1.3-3.2-1.3-4.4-0.2c-1.3,1.2-1.3,3.1-0.2,4.4c1.5,1.6,3,3.2,4.6,4.6
				c1.3,1.2,3.3,1.1,4.4-0.1c1.2-1.3,1.1-3.3-0.1-4.4C187.9,81.6,186.5,80.2,185.1,78.7"/>
			<path id="Path_17989" fill="#19D7AA" d="M170.6,64.4c-1.5,0.9-1.9,2.9-1,4.3c0,0,0,0,0,0c1.1,1.8,2.4,3.7,3.6,5.4
				c1,1.4,3,1.7,4.4,0.6c1.4-1,1.7-2.9,0.7-4.3c-1.2-1.6-2.3-3.3-3.4-5.1C174.1,63.9,172.1,63.5,170.6,64.4
				C170.7,64.4,170.6,64.4,170.6,64.4"/>
			<path id="Path_17990" fill="#19D7AA" d="M193.9,94.8c1.8,1.3,3.7,2.5,5.5,3.5c1.5,0.8,3.4,0.3,4.3-1.2c0.8-1.5,0.3-3.4-1.1-4.2
				c-1.7-1-3.4-2.1-5.1-3.2c-1.4-1-3.4-0.7-4.4,0.8C192.1,91.9,192.5,93.8,193.9,94.8"/>
			<path id="Path_17991" fill="#19D7AA" d="M179.4,27.1c1.8,1,3.7,2,5.5,3c1.5,0.8,3.4,0.2,4.3-1.3c0.8-1.5,0.2-3.4-1.3-4.2
				c-1.8-1-3.7-2-5.5-3c-1.5-0.9-3.4-0.3-4.3,1.2C177.3,24.3,177.9,26.2,179.4,27.1C179.4,27.1,179.4,27.1,179.4,27.1"/>
			<path id="Path_17992" fill="#19D7AA" d="M209.9,43.6c1.8,1,3.6,2,5.5,3.1c1.5,0.9,3.4,0.3,4.3-1.2c0.9-1.5,0.3-3.4-1.2-4.3
				c-1.8-1-3.7-2.1-5.5-3.1c-1.5-0.9-3.4-0.3-4.3,1.2C207.8,40.8,208.3,42.7,209.9,43.6C209.9,43.6,209.9,43.6,209.9,43.6"/>
			<path id="Path_17993" fill="#19D7AA" d="M210,103.2c2.1,0.7,4.2,1.4,6.4,1.9c1.7,0.4,3.4-0.7,3.7-2.4c0.3-1.7-0.7-3.3-2.3-3.7
				c-1.9-0.4-3.8-1-5.7-1.7c-1.7-0.5-3.4,0.3-4,2C207.6,100.9,208.4,102.6,210,103.2"/>
			<path id="Path_17994" fill="#19D7AA" d="M194.7,35.3c1.8,1,3.7,2,5.5,3c1.5,0.8,3.4,0.3,4.3-1.3c0.8-1.5,0.3-3.4-1.3-4.3
				c-1.8-1-3.7-2-5.5-3c-1.5-0.8-3.4-0.2-4.3,1.3S193.2,34.5,194.7,35.3"/>
			<path id="Path_17995" fill="#19D7AA" d="M224.8,52.2c1.8,1.1,3.6,2.2,5.3,3.3c1.5,0.9,3.4,0.5,4.3-1s0.5-3.4-1-4.3l0,0
				c-1.8-1.1-3.6-2.2-5.4-3.3c-1.5-0.9-3.4-0.4-4.3,1.1C222.8,49.3,223.3,51.3,224.8,52.2L224.8,52.2"/>
			<path id="Path_17996" fill="#19D7AA" d="M118.7,13.3c0.8,0,1.5-0.3,2.1-0.8c1.4-1.3,2.9-2.4,4.5-3.3c1.5-0.9,2-2.8,1.2-4.3
				c-0.9-1.5-2.8-2-4.3-1.2c-2,1.2-3.9,2.5-5.6,4.1c-1.3,1.2-1.4,3.2-0.2,4.4C117,12.9,117.8,13.3,118.7,13.3"/>
			<path id="Path_17997" fill="#19D7AA" d="M129.7,32.8c1.5,0.9,3.4,0.3,4.3-1.2c0,0,0,0,0,0c0.8-1.4,1.9-2.6,3.2-3.6
				c1.5-0.9,1.9-2.9,0.9-4.3c-0.9-1.5-2.9-1.9-4.3-0.9c0,0-0.1,0.1-0.1,0.1c-2.1,1.5-3.9,3.4-5.2,5.7
				C127.6,30,128.1,31.9,129.7,32.8"/>
			<path id="Path_17998" fill="#19D7AA" d="M142.9,23c-0.5,1.7,0.4,3.4,2.1,3.9c0.6,0.2,1.3,0.5,1.9,0.7c0.9,0.5,1.8,1,2.6,1.6
				c1.3,1.1,3.3,0.9,4.4-0.4c1.1-1.3,0.9-3.3-0.4-4.4c0,0-0.1-0.1-0.1-0.1c-1.2-0.9-2.4-1.7-3.8-2.4c-0.9-0.4-1.8-0.8-2.8-1.1
				C145.2,20.5,143.4,21.4,142.9,23"/>
			<path id="Path_17999" fill="#19D7AA" d="M134.5,6.3c0.4,0,0.8,0,1.1,0h0.2c1.4,0,2.8,0.1,4.1,0.4c0.2,0,0.4,0.1,0.6,0.1
				c1.7,0,3.1-1.4,3.1-3.2c0-1.5-1.1-2.8-2.6-3.1c-1.7-0.3-3.5-0.5-5.3-0.5h-0.3c-0.5,0-1,0-1.5,0.1c-1.7,0.1-3,1.6-2.9,3.4
				S132.7,6.5,134.5,6.3"/>
			<path id="Path_18000" fill="#19D7AA" d="M126.1,41.1c0,0.3,0.1,0.5,0.1,0.8c0.4,2,0.9,3.9,1.5,5.9c0.5,1.7,2.3,2.6,4,2
				c1.7-0.5,2.6-2.3,2-4c-0.5-1.6-1-3.3-1.3-5c0-0.2-0.1-0.4-0.1-0.5c-0.2-1.7-1.8-2.9-3.5-2.7C127.1,37.8,125.9,39.4,126.1,41.1"/>
			<path id="Path_18001" fill="#19D7AA" d="M164.3,18.6c1.8,1.1,3.7,2.1,5.5,3.1c1.5,0.9,3.4,0.4,4.3-1.1s0.4-3.4-1.1-4.3
				c0,0,0,0-0.1,0c-1.8-1-3.6-2.1-5.4-3.1c-1.5-0.9-3.4-0.4-4.3,1.1C162.3,15.8,162.8,17.7,164.3,18.6"/>
			<path id="Path_18002" fill="#19D7AA" d="M224.5,119.6c1.7,0,3.1-1.4,3.1-3.2c0-1.5-1-2.7-2.4-3.1c-2-0.5-4-1-6-1.5
				c-1.7-0.5-3.4,0.5-3.9,2.2c-0.5,1.7,0.5,3.4,2.2,3.9c0,0,0,0,0,0c2,0.5,4.1,1.1,6.2,1.5C224,119.5,224.2,119.6,224.5,119.6"/>
			<path id="Path_18003" fill="#19D7AA" d="M149.4,10.1c1.6,0.8,3.3,1.7,5.3,2.9c1.5,0.9,3.4,0.4,4.3-1.1s0.4-3.4-1.1-4.3l0,0
				c-2.2-1.3-4-2.3-5.7-3.1c-1.6-0.7-3.4-0.1-4.2,1.5C147.3,7.5,148,9.3,149.4,10.1"/>
			<path id="Path_18004" fill="#19D7AA" d="M156.7,32.7c-1.5,0.8-2.1,2.7-1.3,4.3c0,0,0,0,0,0c0.9,1.7,1.7,3.5,2.4,5.4
				c0.6,1.6,2.4,2.4,4.1,1.8c1.6-0.6,2.4-2.4,1.8-4.1C163,38,162,36,161,34C160.2,32.5,158.3,31.9,156.7,32.7"/>
			<path id="Path_18005" fill="#19D7AA" d="M256.3,75.5c0.9,1.5,2.8,2,4.3,1.1c1.5-0.9,2-2.8,1.1-4.3c-1.3-2.1-2.9-3.9-4.8-5.5
				c-1.3-1.1-3.3-0.9-4.4,0.4c-1.1,1.3-1,3.2,0.3,4.4C254.1,72.6,255.3,74,256.3,75.5"/>
			<path id="Path_18006" fill="#19D7AA" d="M206.8,114.7c1.7,0.5,3.4-0.4,4-2c0.5-1.6-0.4-3.4-2-3.9c-2-0.6-3.9-1.3-5.8-2.1
				c-1.6-0.6-3.4,0.2-4.1,1.8s0.2,3.4,1.8,4.1c0,0,0.1,0,0.1,0C202.7,113.3,204.8,114.1,206.8,114.7"/>
			<path id="Path_18007" fill="#19D7AA" d="M140.4,86.2c1.1-1.3,1-3.3-0.3-4.4c0,0,0,0,0,0c-1.6-1.4-3.1-2.8-4.6-4.1
				c-1.3-1.2-3.3-1.1-4.4,0.1c-1.2,1.3-1.1,3.3,0.1,4.4c1.5,1.4,3.1,2.9,4.8,4.3C137.3,87.6,139.3,87.5,140.4,86.2
				C140.4,86.2,140.4,86.2,140.4,86.2"/>
			<path id="Path_18008" fill="#19D7AA" d="M149.7,78.6c1.7,0,3.1-1.4,3.1-3.2c0-0.8-0.3-1.6-0.9-2.2c-1.5-1.6-2.9-3.1-4.1-4.6
				c-1.1-1.3-3.1-1.5-4.4-0.3c-1.3,1.1-1.5,3.1-0.3,4.4c1.3,1.5,2.8,3.1,4.3,4.8C148,78.2,148.8,78.6,149.7,78.6"/>
			<path id="Path_18009" fill="#19D7AA" d="M205.9,123.8c1.4,0.9,2.5,2.1,3.3,3.6c0.9,1.5,2.8,2,4.3,1.1c1.5-0.9,2-2.8,1.1-4.3
				c-1.3-2.2-3.1-4.1-5.2-5.5c-1.4-1-3.4-0.6-4.4,0.8C204.1,120.9,204.5,122.8,205.9,123.8"/>
			<path id="Path_18010" fill="#19D7AA" d="M154.1,96.7c1-1.4,0.7-3.4-0.7-4.4c0,0,0,0,0,0c-1.7-1.2-3.3-2.5-5-3.7
				c-1.4-1.1-3.4-0.8-4.4,0.6c-1.1,1.4-0.8,3.4,0.6,4.4c1.7,1.3,3.4,2.6,5.1,3.8C151.2,98.4,153.1,98.1,154.1,96.7
				C154.1,96.7,154.1,96.7,154.1,96.7"/>
			<path id="Path_18011" fill="#19D7AA" d="M235.8,115.5c-1.7-0.3-3.4,0.8-3.7,2.5c-0.3,1.7,0.8,3.4,2.5,3.7c0.1,0,0.1,0,0.2,0
				c2.1,0.4,4.2,0.7,6.3,1c0.1,0,0.3,0,0.4,0c1.7,0,3.1-1.4,3.1-3.1c0-1.6-1.2-2.9-2.7-3.1C239.9,116.1,237.8,115.8,235.8,115.5"/>
			<path id="Path_18012" fill="#19D7AA" d="M215.3,145.6c0,0,0.1,0,0.1,0c1.7,0,3.1-1.3,3.1-3c0-0.6,0-1.2,0-1.7
				c0-1.1-0.1-2.2-0.2-3.3c-0.1-0.6-0.1-1.2-0.2-1.8c-0.2-1.7-1.8-2.9-3.6-2.7c-1.7,0.2-2.9,1.8-2.7,3.5c0.1,0.5,0.1,1.1,0.2,1.6
				c0.1,0.9,0.1,1.8,0.1,2.7c0,0.5,0,1,0,1.4C212.2,144,213.6,145.5,215.3,145.6"/>
			<path id="Path_18013" fill="#19D7AA" d="M239.2,61.4c1.7,1.2,3.4,2.4,5.1,3.6c1.4,1,3.4,0.6,4.4-0.8c0.9-1.4,0.6-3.2-0.7-4.3
				c-1.7-1.2-3.5-2.5-5.2-3.7c-1.4-1-3.4-0.6-4.4,0.8C237.4,58.5,237.8,60.4,239.2,61.4"/>
			<path id="Path_18014" fill="#19D7AA" d="M127.7,74.4c1.3-1.2,1.4-3.1,0.2-4.4c0,0,0,0,0,0c-1.4-1.6-2.7-3.1-3.9-4.7
				c-1.1-1.4-3-1.6-4.4-0.5c-1.4,1.1-1.6,3-0.5,4.4l0,0c1.3,1.6,2.7,3.3,4.2,5C124.4,75.4,126.4,75.5,127.7,74.4
				C127.7,74.4,127.7,74.4,127.7,74.4"/>
			<path id="Path_18015" fill="#19D7AA" d="M191.7,108.6c1.7,0,3.1-1.4,3.1-3.2c0-1.2-0.7-2.3-1.8-2.8c-1.9-0.9-3.7-1.8-5.5-2.7
				c-1.5-0.8-3.4-0.2-4.2,1.4s-0.2,3.4,1.4,4.2c1.9,1,3.8,1.9,5.8,2.8C190.8,108.5,191.2,108.6,191.7,108.6"/>
			<path id="Path_18016" fill="#19D7AA" d="M138.7,65.2c1.7,0,3.1-1.4,3.1-3.2c0-0.6-0.2-1.3-0.6-1.8c-1.2-1.7-2.3-3.4-3.2-5.1
				c-0.9-1.5-2.8-2-4.3-1.2c-1.5,0.9-2,2.8-1.2,4.3c1,1.8,2.2,3.7,3.5,5.5C136.7,64.7,137.6,65.3,138.7,65.2"/>
			<path id="Path_18017" fill="#19D7AA" d="M200.4,118.3c0.1-1.7-1.2-3.2-2.9-3.4c0,0,0,0,0,0c-0.4,0-0.8-0.1-1.3-0.1
				c-1.5-0.1-3.1-0.3-4.6-0.6c-1.7-0.4-3.4,0.7-3.8,2.4s0.7,3.4,2.4,3.8c0,0,0.1,0,0.1,0c1.8,0.4,3.7,0.6,5.5,0.7
				c0.4,0,0.7,0,1.1,0.1c0.1,0,0.2,0,0.2,0C198.9,121.2,200.3,119.9,200.4,118.3"/>
			<path id="Path_18018" fill="#19D7AA" d="M243.9,97.7c-1.6,0.6-2.5,2.4-1.9,4c0.6,1.6,2.4,2.5,4,1.9c0,0,0,0,0,0
				c2.2-0.8,4.3-1.8,6.2-3c1.5-0.9,2-2.8,1.1-4.3s-2.8-2-4.3-1.1C247.4,96.3,245.7,97.1,243.9,97.7"/>
			<path id="Path_18019" fill="#19D7AA" d="M168.5,106.4c1-1.4,0.6-3.4-0.9-4.4c0,0,0,0,0,0c-1.7-1.2-3.5-2.3-5.2-3.5
				c-1.4-1-3.4-0.6-4.4,0.8c-1,1.4-0.6,3.4,0.8,4.4c1.7,1.2,3.5,2.4,5.2,3.5C165.5,108.3,167.5,107.9,168.5,106.4
				C168.5,106.4,168.5,106.4,168.5,106.4"/>
			<path id="Path_18020" fill="#19D7AA" d="M176.7,107.9c-1.5-0.9-3.4-0.4-4.3,1c-0.9,1.5-0.4,3.4,1,4.3c0,0,0.1,0,0.1,0.1
				c2,1.2,3.9,2.2,5.8,3.1c1.6,0.8,3.4,0.1,4.2-1.5c0.8-1.6,0.1-3.4-1.5-4.2C180.3,110,178.6,109,176.7,107.9"/>
			<path id="Path_18021" fill="#19D7AA" d="M233.9,99.9c-1.7,0.2-3.4,0.3-5.1,0.3l-0.8,0c-1.7,0-3.1,1.3-3.2,3c0,0,0,0,0,0.1
				c0,1.7,1.4,3.2,3.1,3.2c0,0,0,0,0,0c0.3,0,0.6,0,0.9,0c1.9,0,3.9-0.1,5.8-0.3c1.7-0.2,3-1.7,2.8-3.5
				C237.2,101,235.6,99.7,233.9,99.9"/>
			<path id="Path_18022" fill="#19D7AA" d="M178.1,94.6c-1.7-1.1-3.5-2.2-5.2-3.4c-1.4-1-3.4-0.6-4.4,0.8c-1,1.4-0.6,3.4,0.8,4.4
				c1.8,1.2,3.6,2.4,5.4,3.5c1.5,0.9,3.4,0.4,4.3-1.1C180,97.4,179.6,95.5,178.1,94.6"/>
			<path id="Path_18023" fill="#19D7AA" d="M169.9,56c-0.9-1.8-1.7-3.7-2.4-5.6c-0.7-1.6-2.5-2.4-4.1-1.7c-1.6,0.7-2.3,2.4-1.7,4
				c0.8,2,1.7,4,2.6,6c0.7,1.6,2.6,2.2,4.2,1.5C169.9,59.5,170.6,57.6,169.9,56"/>
			<path id="Path_18024" fill="#19D7AA" d="M155.2,81c-1.2,1.3-1.1,3.3,0.2,4.4c1.6,1.4,3.2,2.8,4.9,4.2c1.4,1.1,3.3,0.9,4.4-0.5
				c1.1-1.3,0.9-3.3-0.5-4.4c-1.6-1.3-3.2-2.6-4.7-4C158.4,79.6,156.4,79.7,155.2,81"/>
			<path id="Path_18025" fill="#19D7AA" d="M32.9,222.7l-0.6,0.2c-1.5,0.6-3,1-4.6,1.1c-1.7,0.1-3,1.6-2.9,3.4
				c0.1,1.6,1.5,2.9,3.1,2.9c0.1,0,0.1,0,0.2,0c2.2-0.2,4.4-0.7,6.4-1.5l0.6-0.2c1.6-0.7,2.4-2.5,1.7-4.1
				C36.3,222.9,34.5,222.1,32.9,222.7"/>
			<path id="Path_18026" fill="#19D7AA" d="M45.1,157.6c1.2-1.3,1.1-3.3-0.2-4.4c0,0,0,0,0,0c-1.8-1.6-3.4-3-4.9-4.2
				c-1.4-1.1-3.3-0.9-4.4,0.5s-0.9,3.3,0.5,4.4c1.4,1.2,3,2.5,4.6,4C42,159,44,158.9,45.1,157.6C45.1,157.6,45.1,157.6,45.1,157.6"
				/>
			<path id="Path_18027" fill="#19D7AA" d="M74.4,119.8c1.7,0.5,3.4-0.5,3.9-2.2c0.5-1.7-0.5-3.4-2.2-3.9c-2-0.6-4-1.1-6-1.7
				c-1.7-0.5-3.4,0.4-3.9,2.1s0.4,3.4,2.1,3.9C70.3,118.6,72.3,119.2,74.4,119.8"/>
			<path id="Path_18028" fill="#19D7AA" d="M170.5,213.8c0.4,0,0.8-0.1,1.2-0.2c2-0.8,4-1.8,5.9-2.8c1.5-0.8,2.2-2.7,1.4-4.2
				c-0.8-1.5-2.7-2.2-4.2-1.4c0,0,0,0,0,0c-1.8,0.9-3.6,1.8-5.5,2.6c-1.6,0.7-2.3,2.5-1.7,4.1C168.1,213.1,169.2,213.8,170.5,213.8"
				/>
			<path id="Path_18029" fill="#19D7AA" d="M60.8,173.2c-1.2,1.2-1.2,3.2,0,4.5c1.5,1.5,3,2.9,4.5,4.4c1.3,1.2,3.2,1.2,4.5-0.1
				c1.2-1.3,1.2-3.2-0.1-4.5l0,0c-1.5-1.5-3-2.9-4.5-4.4C64,171.9,62,171.9,60.8,173.2"/>
			<path id="Path_18030" fill="#19D7AA" d="M52.5,216.7c-0.8-1.5-2.7-2.1-4.3-1.3c0,0,0,0,0,0c-1.8,1-3.7,2-5.5,2.9
				c-1.6,0.8-2.2,2.7-1.4,4.2s2.7,2.2,4.2,1.4c1.9-0.9,3.8-1.9,5.7-3C52.8,220.1,53.3,218.2,52.5,216.7"/>
			<path id="Path_18031" fill="#19D7AA" d="M111.4,49.6c-1.6,0.7-2.3,2.5-1.6,4.1c0,0,0,0,0,0c0.9,2,1.9,4,3,5.9
				c0.9,1.5,2.8,2,4.3,1.2c1.5-0.9,2-2.8,1.2-4.3c-1-1.7-1.9-3.5-2.7-5.3C114.8,49.6,113,48.9,111.4,49.6
				C111.4,49.6,111.4,49.6,111.4,49.6"/>
			<path id="Path_18032" fill="#19D7AA" d="M59.8,108.6c-2-0.7-3.9-1.4-5.8-2.1c-1.6-0.7-3.4,0.1-4.1,1.7s0.1,3.4,1.7,4.1
				c0,0,0.1,0,0.1,0c1.9,0.7,3.9,1.5,6,2.2c1.6,0.6,3.4-0.3,4-2C62.2,111,61.4,109.2,59.8,108.6"/>
			<path id="Path_18033" fill="#19D7AA" d="M127.4,123.3c-2.2-0.8-4.6-1.4-6.9-1.6c-1.7-0.2-3.3,1.1-3.5,2.8s1.1,3.3,2.8,3.5
				c1.8,0.2,3.6,0.6,5.3,1.2c1.6,0.6,3.4-0.2,4.1-1.8C129.7,125.7,128.9,123.9,127.4,123.3"/>
			<path id="Path_18034" fill="#19D7AA" d="M129.1,147.8c-1.5-0.9-3.4-0.4-4.3,1.1c-1,1.6-2.1,3.3-3.3,5.1c-1,1.4-0.7,3.4,0.7,4.4
				c1.4,1,3.4,0.7,4.4-0.7c0,0,0,0,0,0c1.3-1.9,2.6-3.7,3.6-5.5C131,150.6,130.6,148.7,129.1,147.8"/>
			<path id="Path_18035" fill="#19D7AA" d="M48.5,165.4c1.4,1.4,2.9,2.9,4.4,4.4c1.2,1.3,3.2,1.3,4.4,0.1c1.3-1.2,1.3-3.2,0.1-4.4
				c0,0,0,0-0.1-0.1c-1.5-1.5-3-3-4.5-4.5c-1.2-1.2-3.2-1.2-4.5,0C47.3,162.1,47.3,164.1,48.5,165.4"/>
			<path id="Path_18036" fill="#19D7AA" d="M114.7,162.3c-1.3,1.5-2.7,3.1-4.1,4.6c-1.2,1.3-1.1,3.3,0.2,4.4
				c1.3,1.2,3.3,1.1,4.4-0.2c1.5-1.6,2.9-3.2,4.3-4.8c1.1-1.3,0.9-3.3-0.4-4.4C117.8,160.9,115.9,161,114.7,162.3"/>
			<path id="Path_18037" fill="#19D7AA" d="M102.8,183.6c1.6-1.5,3.1-2.9,4.6-4.4c1.2-1.2,1.3-3.2,0.1-4.4c-1.2-1.2-3.2-1.3-4.4-0.1
				c0,0,0,0,0,0c-1.5,1.4-3,2.8-4.5,4.3c-1.3,1.2-1.3,3.2-0.1,4.5C99.6,184.6,101.5,184.7,102.8,183.6"/>
			<path id="Path_18038" fill="#19D7AA" d="M131.2,143.5c1.7,0.5,3.4-0.5,3.9-2.2c0,0,0,0,0,0c0.6-1.9,0.9-3.9,0.9-5.8
				c0-0.5,0-1-0.1-1.5c-0.2-1.7-1.7-3-3.4-2.8c-1.7,0.2-3,1.7-2.8,3.4l0,0c0,0.3,0,0.6,0,0.9c0,1.4-0.2,2.8-0.7,4.1
				C128.5,141.3,129.5,143,131.2,143.5C131.2,143.5,131.2,143.5,131.2,143.5"/>
			<path id="Path_18039" fill="#19D7AA" d="M62.9,206.6c-1.8,1.1-3.5,2.3-5.3,3.3c-1.5,0.9-1.9,2.9-1,4.3c0.9,1.4,2.8,1.9,4.3,1
				c1.8-1.1,3.6-2.2,5.4-3.4c1.5-0.9,1.9-2.9,0.9-4.4C66.3,206.1,64.4,205.7,62.9,206.6C62.9,206.6,62.9,206.6,62.9,206.6"/>
			<path id="Path_18040" fill="#19D7AA" d="M185.6,205.4c0.7,0,1.3-0.2,1.8-0.6c1.8-1.3,3.5-2.6,5.2-4c1.3-1.1,1.5-3.1,0.4-4.4
				c-1.1-1.3-3.1-1.5-4.4-0.4c-1.5,1.3-3.1,2.5-4.8,3.7c-1.4,1-1.7,3-0.7,4.4C183.6,204.9,184.5,205.4,185.6,205.4"/>
			<path id="Path_18041" fill="#19D7AA" d="M14.7,156.4c0.4-1.8,1.1-3.5,2-5.1c0.9-1.5,0.3-3.4-1.2-4.3c-1.5-0.9-3.4-0.3-4.3,1.2
				l0,0c-1.2,2.1-2,4.3-2.6,6.6c-0.5,1.7,0.5,3.4,2.1,3.9c1.7,0.5,3.4-0.5,3.9-2.1C14.7,156.5,14.7,156.5,14.7,156.4"/>
			<path id="Path_18042" fill="#19D7AA" d="M199.7,183.9c-1.1,1.6-2.4,3.2-3.7,4.7c-1.1,1.3-1,3.3,0.3,4.4s3.3,1,4.4-0.3
				c1.4-1.7,2.8-3.4,4.1-5.2c1-1.4,0.6-3.4-0.8-4.4S200.7,182.5,199.7,183.9L199.7,183.9"/>
			<path id="Path_18043" fill="#19D7AA" d="M206.4,179c1.6,0.6,3.4-0.1,4.1-1.8c0,0,0,0,0,0c0.8-2.1,1.5-4.3,2-6.5
				c0.3-1.7-0.8-3.4-2.5-3.7c-1.7-0.3-3.3,0.7-3.7,2.3c-0.4,1.9-1,3.7-1.7,5.5C204,176.5,204.8,178.4,206.4,179
				C206.4,179,206.4,179,206.4,179"/>
			<path id="Path_18044" fill="#19D7AA" d="M109.1,27.8c1.7,0.4,3.4-0.5,3.8-2.2c0,0,0,0,0,0c0.4-1.7,1-3.3,1.8-4.8l0.2-0.5
				c0.8-1.6,0.1-3.4-1.4-4.2s-3.4-0.1-4.2,1.4l-0.3,0.6c-0.9,1.9-1.6,3.9-2.1,5.9C106.5,25.7,107.4,27.4,109.1,27.8"/>
			<path id="Path_18045" fill="#19D7AA" d="M109.4,45.1c0.2,0,0.4,0,0.6,0c1.7-0.3,2.8-1.9,2.5-3.7c-0.3-1.9-0.6-3.9-0.6-5.8
				c-0.1-1.7-1.5-3.1-3.2-3s-3.1,1.5-3,3.2c0.1,2.3,0.3,4.5,0.7,6.7C106.6,44,107.9,45.1,109.4,45.1"/>
			<path id="Path_18046" fill="#19D7AA" d="M7.2,166.3c-0.1,1.9-0.3,4-0.4,6.4c-0.1,1.7,1.3,3.2,3,3.3c0.1,0,0.1,0,0.1,0
				c1.7,0,3.1-1.3,3.1-3c0.1-2.3,0.2-4.4,0.4-6.2c0.1-1.7-1.2-3.2-2.9-3.4S7.3,164.6,7.2,166.3"/>
			<path id="Path_18047" fill="#19D7AA" d="M35.5,105.4c1.9,0.9,3.8,1.8,5.8,2.7c1.6,0.7,3.4,0,4.2-1.6c0.7-1.6,0-3.4-1.6-4.2
				c-1.9-0.8-3.8-1.7-5.6-2.6c-1.6-0.8-3.4-0.2-4.2,1.4C33.3,102.6,33.9,104.5,35.5,105.4C35.5,105.3,35.5,105.4,35.5,105.4"/>
			<path id="Path_18048" fill="#19D7AA" d="M14.8,206.7c-0.4-1.9-0.7-3.9-1-6c-0.2-1.7-1.8-2.9-3.6-2.7c-1.7,0.2-2.9,1.8-2.7,3.4
				c0.3,2.3,0.6,4.4,1,6.4c0.3,1.5,1.6,2.5,3.1,2.5c0.2,0,0.4,0,0.6-0.1C14,210.1,15.1,208.4,14.8,206.7"/>
			<path id="Path_18049" fill="#19D7AA" d="M17.8,216.5c-0.7-1.6-2.6-2.3-4.2-1.5c-1.6,0.7-2.3,2.6-1.5,4.2c1,2.2,2.3,4.2,3.9,6.1
				c1.2,1.3,3.1,1.4,4.4,0.3s1.4-3.1,0.3-4.4l0,0C19.5,219.7,18.5,218.2,17.8,216.5"/>
			<path id="Path_18050" fill="#19D7AA" d="M257.6,83.9c-0.3,1.7-1,3.4-1.9,4.9c-0.9,1.5-0.4,3.4,1.1,4.3c1.5,0.9,3.4,0.4,4.3-1.1
				c1.2-2.1,2.1-4.4,2.6-6.8c0.3-1.7-0.8-3.4-2.5-3.7C259.5,81.1,257.9,82.2,257.6,83.9"/>
			<path id="Path_18051" fill="#19D7AA" d="M28.8,148.5c1.7,0,3.1-1.4,3.1-3.1c0-1.3-0.7-2.4-1.9-2.9c-2.2-1-4.7-1.6-7.1-1.6h-0.3
				c-1.7,0-3.1,1.5-3.1,3.2c0,1.7,1.5,3.1,3.2,3.1h0.2c1.6,0.1,3.2,0.4,4.6,1.1C28,148.4,28.4,148.5,28.8,148.5"/>
			<path id="Path_18052" fill="#19D7AA" d="M9.8,193.3H10c1.7-0.1,3.1-1.5,3-3.3c-0.1-2-0.1-4.1-0.1-6.2c0-1.7-1.4-3.1-3.1-3.1h0
				c-1.7,0-3.1,1.4-3.1,3.2c0,2.2,0.1,4.4,0.1,6.4C6.8,191.9,8.2,193.3,9.8,193.3"/>
			<path id="Path_18053" fill="#19D7AA" d="M121.7,225c1.1,1.3,3.1,1.4,4.4,0.3c1.6-1.4,3.2-2.8,4.7-4.2c1.3-1.1,1.4-3.1,0.3-4.4
				c-0.6-0.7-1.4-1-2.3-1.1c0.1-1.6-0.9-3-2.5-3.3c-1.9-0.4-3.9-0.9-5.8-1.5c-1.7-0.5-3.4,0.5-3.9,2.1c-0.5,1.7,0.5,3.4,2.1,3.9
				c1.9,0.6,3.9,1,5.8,1.4c-0.8,0.7-1.7,1.5-2.5,2.2C120.7,221.7,120.6,223.7,121.7,225C121.7,225,121.7,225,121.7,225"/>
			<path id="Path_18054" fill="#19D7AA" d="M132.6,100.3c1.3,1.2,3.3,1,4.4-0.3s1-3.3-0.3-4.4l0,0c-1.5-1.4-3.1-2.8-4.6-4.2
				c-1.3-1.2-3.3-1.1-4.4,0.1c-1.2,1.3-1.1,3.3,0.1,4.4l0,0C129.5,97.4,131.1,98.9,132.6,100.3"/>
			<path id="Path_18055" fill="#19D7AA" d="M100.5,238.7c-1.6,1.3-3.3,2.6-4.9,3.9c-1.4,1.1-1.6,3-0.6,4.4c1.1,1.4,3,1.6,4.4,0.6
				c0,0,0.1,0,0.1-0.1c1.7-1.3,3.3-2.6,4.9-3.9c1.4-1.1,1.6-3.1,0.5-4.4C103.8,237.9,101.8,237.6,100.5,238.7L100.5,238.7"/>
			<path id="Path_18056" fill="#19D7AA" d="M149.5,191.3l-1.1,1.4c-0.9,1.2-1.8,2.4-2.7,3.6c-1.1,1.4-0.8,3.4,0.6,4.4
				c1.4,1.1,3.4,0.8,4.4-0.6l0,0c0.9-1.2,1.8-2.4,2.8-3.6l1.1-1.4c1.1-1.4,0.8-3.3-0.5-4.4C152.6,189.6,150.6,189.8,149.5,191.3
				C149.5,191.2,149.5,191.3,149.5,191.3"/>
			<path id="Path_18057" fill="#19D7AA" d="M113.7,227.8c-1.6,1.4-3.2,2.7-4.8,4c-1.3,1.1-1.5,3.1-0.4,4.4c1.1,1.3,3.1,1.5,4.4,0.4
				l0,0c1.6-1.4,3.2-2.7,4.8-4.1c1.3-1.1,1.5-3.1,0.4-4.4C117,226.8,115.1,226.6,113.7,227.8L113.7,227.8"/>
			<path id="Path_18058" fill="#19D7AA" d="M141.2,107.5c0.6,0.4,1.1,0.9,1.7,1.3c1.1,0.9,2.3,1.7,3.4,2.6c1.4,1,3.4,0.7,4.4-0.7
				c1-1.4,0.7-3.4-0.7-4.4l0,0c-1.1-0.8-2.2-1.6-3.3-2.5c-0.5-0.4-1.1-0.8-1.6-1.3c-1.4-1.1-3.3-0.9-4.4,0.5
				C139.6,104.4,139.8,106.4,141.2,107.5C141.2,107.5,141.2,107.5,141.2,107.5"/>
			<path id="Path_18059" fill="#19D7AA" d="M116,78.9c-1.3,1.2-1.4,3.1-0.3,4.4c1.4,1.6,2.9,3.2,4.3,4.7c1.2,1.3,3.2,1.3,4.4,0.1
				c1.3-1.2,1.3-3.2,0.1-4.4c-1.4-1.5-2.8-3-4.2-4.6C119.2,77.9,117.3,77.7,116,78.9"/>
			<path id="Path_18060" fill="#19D7AA" d="M184.8,164.9c0.8,0,1.6-0.3,2.1-0.8c1.7-1.5,3.2-3.2,4.6-5c1.1-1.4,0.8-3.3-0.5-4.4
				c-1.4-1.1-3.3-0.8-4.4,0.5l0,0c-1.2,1.5-2.5,2.9-4,4.2c-1.3,1.2-1.3,3.2-0.2,4.4C183.1,164.6,183.9,164.9,184.8,164.9"/>
			<path id="Path_18061" fill="#19D7AA" d="M108.5,74.8c1.1,1.3,3.1,1.6,4.4,0.5c1.3-1.1,1.6-3.1,0.5-4.4l0,0
				c-1.3-1.6-2.6-3.2-3.9-4.9c-1.1-1.4-3.1-1.6-4.4-0.5c-1.3,1.1-1.6,3-0.6,4.3C105.8,71.5,107.1,73.2,108.5,74.8"/>
			<path id="Path_18062" fill="#19D7AA" d="M188.1,130.5c1.5,0.6,2.9,1.5,4,2.6c1.1,1.3,3.1,1.5,4.4,0.4c1.3-1.1,1.5-3.1,0.4-4.4
				c0,0-0.1-0.1-0.1-0.1c-1.8-1.9-3.9-3.4-6.3-4.3c-1.6-0.7-3.4,0.1-4.1,1.7C185.8,128,186.5,129.9,188.1,130.5"/>
			<path id="Path_18063" fill="#19D7AA" d="M194.2,150.6c1.4,0,2.6-0.9,3-2.2c0.3-1,0.6-2.1,0.9-3.2c0.2-0.9,0.5-1.9,0.8-2.9
				c0.5-1.7-0.4-3.4-2-4c-1.7-0.5-3.4,0.4-4,2c0,0,0,0.1,0,0.1c-0.3,1.1-0.6,2.1-0.9,3.1c-0.3,1-0.5,2-0.8,2.9
				c-0.5,1.7,0.4,3.4,2.1,3.9C193.5,150.6,193.9,150.6,194.2,150.6"/>
			<path id="Path_18064" fill="#19D7AA" d="M156.8,187c1.3,1.1,3.3,0.9,4.4-0.4c0,0,0,0,0,0c1.4-1.7,2.8-3.2,4-4.6
				c1.2-1.3,1.1-3.3-0.1-4.4c-1.3-1.2-3.3-1.1-4.4,0.1c-1.4,1.5-2.8,3-4.3,4.9C155.3,183.9,155.5,185.8,156.8,187"/>
			<path id="Path_18065" fill="#19D7AA" d="M155.7,117.6c1.9,1.1,3.7,2.2,5.6,3.2c1.5,0.8,3.4,0.2,4.2-1.3c0.8-1.5,0.2-3.4-1.2-4.2
				c-1.8-1-3.6-2-5.3-3.1c-1.5-0.9-3.4-0.4-4.3,1.1C153.8,114.8,154.3,116.7,155.7,117.6"/>
			<path id="Path_18066" fill="#19D7AA" d="M181.8,125.6c0.5-1.7-0.5-3.4-2.2-3.9c-1.9-0.5-3.8-1.1-5.7-1.8
				c-1.6-0.6-3.4,0.2-4.1,1.8s0.2,3.4,1.8,4.1c2.1,0.8,4.2,1.5,6.3,2C179.6,128.2,181.3,127.3,181.8,125.6
				C181.8,125.6,181.8,125.6,181.8,125.6"/>
			<path id="Path_18067" fill="#19D7AA" d="M94.2,55.7c1.2,1.7,2.4,3.5,3.6,5.2c1,1.4,3,1.7,4.4,0.7c1.4-1,1.7-3,0.7-4.4
				c-1.2-1.7-2.4-3.4-3.6-5.1c-1-1.4-2.9-1.8-4.4-0.8C93.6,52.3,93.2,54.3,94.2,55.7"/>
			<path id="Path_18068" fill="#19D7AA" d="M171.2,175.7c0.7,0,1.4-0.2,1.9-0.7c1.3-1,2.6-2,4-3l1-0.8c1.4-1.1,1.6-3,0.6-4.4
				c-1-1.4-3-1.6-4.4-0.6l-1,0.8c-1.4,1-2.7,2-4,3c-1.4,1.1-1.6,3-0.6,4.4C169.3,175.2,170.2,175.7,171.2,175.7"/>
			<path id="Path_18069" fill="#19D7AA" d="M262.6,158.4c-3-4.3-9.3-6.2-15.3-4.5c-6.2,1.8-11.5,6.1-15.6,10.6
				c-5.2-5.2-10.3-8.2-15.3-9.1c0.1-0.4,0.2-0.9,0.3-1.3c0.4-1.7-0.6-3.4-2.3-3.8c-1.7-0.4-3.4,0.6-3.8,2.3c0,0,0,0.1,0,0.1
				c-0.2,0.9-0.5,1.9-0.7,2.8c-6.9,1.3-12.8,6.2-17.7,10.2l-0.9,0.7c-7.7,6.4-14.9,13.4-22.1,20.7c-8.7,8.8-16.3,18.6-23.7,28.1
				c-0.6-0.9-1.6-1.5-2.8-1.4c-0.9,0-1.7,0-2.6,0c-0.4,0-0.7,0-1.1,0c0,0,0.1-0.1,0.1-0.1c1.4-1.4,2.9-3,4.4-4.8
				c1.1-1.3,1-3.3-0.3-4.4c-1.3-1.1-3.3-1-4.4,0.3c-1.4,1.7-2.8,3.1-4.1,4.4c-1.2,1.2-1.2,3.2,0,4.5c0.1,0.1,0.3,0.3,0.5,0.4
				c-1.5,0.8-2.2,2.7-1.4,4.2c0.5,1,1.5,1.7,2.7,1.7c1.2,0.1,2.4,0.1,3.7,0.1c0.5,0,1.1,0,1.6,0c-13.3,17.2-26.5,33.2-46.4,44.1
				c-1.5,0.8-2.1,2.7-1.3,4.3s2.7,2.1,4.3,1.3c22.6-12.2,37.2-31.1,51.3-49.5c0.6-0.8,1.3-1.6,1.9-2.5c0.6,0.7,1.4,1,2.3,1
				c0.2,0,0.4,0,0.6-0.1c2.1-0.4,4.3-0.9,6.4-1.4c1.7-0.4,2.7-2.2,2.2-3.9c-0.4-1.7-2.2-2.7-3.9-2.2c-1.1,0.3-2.1,0.5-3.2,0.8
				c5.5-7.1,11.4-14,17.7-20.4c7.1-7.2,14.1-14.1,21.6-20.3l0.9-0.7c4-3.3,8.9-7.4,13.8-8.7c1.3,1.1,3.3,0.9,4.4-0.4
				c4.1,0.4,8.6,3.1,13.3,8c-1.1,1.6-2.1,3-2.9,4.3c-2,3.3-3.9,6.5-5.8,9.7c-5.1,8.8-9.9,17.2-17.4,24.4
				c-9.6,9.4-20.9,17.5-31.7,25.4l-2.3,1.7c-18.9,13.8-39,26-60.1,36.2c-1.6,0.8-2.2,2.6-1.5,4.2c0.8,1.6,2.6,2.2,4.2,1.5l0,0
				c21.4-10.4,41.9-22.7,61.1-36.8l2.3-1.7c11-8,22.4-16.2,32.4-26c8.1-7.9,13.1-16.6,18.4-25.8c1.8-3.1,3.7-6.3,5.6-9.5
				c0.5-0.8,1.1-1.7,1.8-2.7c6.2,9.1,5.4,21.3-2.2,31.8c-12.4,17.1-30.9,28.7-45.6,37c-7.9,4.5-16.2,8.7-24.3,12.7
				c-10.7,5.4-21.8,11-32.2,17.4c-4.4,2.7-6.4,5.8-6,9.2c0.3,2.5,2,4.7,4.8,6.2c2.6,1.3,5.4,2,8.3,2c2.3,0,4.6-0.4,6.8-1.1
				c4.5-1.4,8.5-3.8,12.3-6.3c30.1-18.8,61.1-36.9,92.3-53.9c5.1-2.8,11.6-6.3,15.1-12.4c2.8-4.7,3.3-10.1,3.7-15.3
				c0.8-11.2,0.9-22.4,0.2-33.5C265.1,164.9,264.7,161.3,262.6,158.4 M258.7,201.4c-0.3,4.6-0.8,9-2.8,12.5c-2.7,4.5-8,7.4-12.7,10
				c-31.2,17-62.4,35.2-92.7,54.1c-3.6,2.3-7,4.4-10.8,5.5c-3.8,1.2-7.6,1-10.3-0.4c-1-0.5-1.5-1.1-1.5-1.4c0-0.1-0.1-1.1,3-2.9
				c10.3-6.2,21.2-11.8,31.8-17.1c8.1-4.1,16.5-8.3,24.5-12.9c15.3-8.6,34.5-20.8,47.6-38.8c9.7-13.4,10.1-29.2,1.2-40.7
				c3.5-4,8-7.8,13.1-9.3c2.9-0.8,6.7-0.4,8.4,2.1c1.1,1.6,1.4,4.1,1.5,6.6C259.6,179.5,259.5,190.5,258.7,201.4"/>
			<path id="Path_18070" fill="#19D7AA" d="M83.8,41.8c0.4,0,0.9,0,1.3-0.1c1,1.6,2,3.1,3,4.7c0.9,1.5,2.8,2,4.3,1.1
				c1.5-0.9,2-2.8,1.1-4.3c0-0.1-0.1-0.1-0.1-0.2c-0.8-1.3-1.6-2.6-2.4-3.8c4.7-4,5.4-11,1.4-15.8s-11-5.4-15.8-1.4
				c-4.7,4-5.4,11-1.4,15.8C77.3,40.4,80.5,41.8,83.8,41.8 M83.8,23.9c3.7,0,6.7,3,6.7,6.7c0,3.7-3,6.7-6.7,6.7s-6.7-3-6.7-6.7
				c0,0,0,0,0,0C77,26.9,80.1,23.9,83.8,23.9"/>
			<path id="Path_18071" fill="#19D7AA" d="M258.3,110.4c-6.2,0-11.2,5-11.2,11.2s5,11.2,11.2,11.2c6.2,0,11.2-5,11.2-11.2
				C269.5,115.5,264.5,110.4,258.3,110.4C258.3,110.4,258.3,110.4,258.3,110.4 M258.3,128.4c-3.7,0-6.7-3-6.7-6.7
				c0-3.7,3-6.7,6.7-6.7c3.7,0,6.7,3,6.7,6.7c0,0,0,0,0,0C265.1,125.4,262,128.4,258.3,128.4"/>
			<path id="Path_18072" fill="#19D7AA" d="M84.8,242.6c-6.2,0-11.2,5-11.2,11.2c0,6.2,5,11.2,11.2,11.2c6.2,0,11.2-5,11.2-11.2
				C96,247.6,91,242.6,84.8,242.6C84.8,242.6,84.8,242.6,84.8,242.6 M84.8,260.5c-3.7,0-6.7-3-6.7-6.7c0-3.7,3-6.7,6.7-6.7
				c3.7,0,6.7,3,6.7,6.7c0,0,0,0,0,0C91.6,257.5,88.5,260.5,84.8,260.5"/>
			<path id="Path_18073" fill="#19D7AA" d="M20.6,97.2c1.6,1,3.3,2,5,2.9c1.5,0.9,3.4,0.3,4.3-1.2c0.9-1.5,0.3-3.4-1.2-4.3l0,0
				c-1.8-1-3.6-2.1-5.3-3.1c-0.3-0.2-0.6-0.3-0.9-0.4c0,0,0-0.1,0-0.1c0-6.2-5-11.2-11.2-11.2S0,84.9,0,91.1s5,11.2,11.2,11.2
				C15,102.3,18.5,100.4,20.6,97.2 M4.5,91.1c0-3.7,3-6.7,6.7-6.7c3.7,0,6.7,3,6.7,6.7c0,3.7-3,6.7-6.7,6.7
				C7.5,97.8,4.5,94.8,4.5,91.1"/>
		</g>
	</g>
</g>
<g id="logo">
	<path id="Path_16366" fill="#5E415C" d="M359.5,207.3v20.1c0,1.6,0,3.3,0,4.9h-2.4c-0.1-0.9-0.1-1.8-0.1-2.7
		c-0.8,1.5-2.3,3.2-6.3,3.2c-4.9,0-8.1-3.6-8.1-8.7c0-5.5,4-9,8.4-9c4.1,0,5.5,2,5.9,2.8v-10.7H359.5z M351,230.6c4.3,0,6-2.8,6-6.7
		s-1.3-6.5-5.9-6.5c-4.1,0-6,3.4-6,6.7C345.2,227.3,347.1,230.6,351,230.6"/>
	<path id="Path_16367" fill="#5E415C" d="M379.1,228.3c0,1.5,0.1,3.6,0.2,4h-2.4c-0.1-0.9-0.2-1.7-0.2-2.6c-0.9,1.8-2.8,3.1-6.4,3.1
		c-4.8,0-6.5-2.9-6.5-5.3c0-4.2,3.9-5.4,8.6-5.4h4.2v-1c0-2-0.8-3.8-4.7-3.8c-3.5,0-4.3,1.6-4.7,3.3h-2.5c0.2-2.3,1.7-5.3,7.2-5.3
		c5.7,0,7.2,2.8,7.2,5.6L379.1,228.3z M376.6,223.9h-4.2c-4.1,0-6.2,0.9-6.2,3.4c0,1.8,1.3,3.4,4.3,3.4c4.9,0,6-3,6-5.9L376.6,223.9
		z"/>
	<path id="Path_16368" fill="#5E415C" d="M381.9,215.6h3.4v-5.5h2.5v5.5h4.5v2.1h-4.5v9.8c0,2.1,0.6,3,2.4,3c0.6,0,1.2,0,1.7-0.2
		v1.9c-0.8,0.2-1.6,0.3-2.4,0.3c-3.3,0-4.3-1.5-4.3-4.8v-10h-3.4V215.6z"/>
	<path id="Path_16369" fill="#5E415C" d="M410.1,228.3c0,1.5,0.1,3.6,0.2,4h-2.4c-0.1-0.9-0.2-1.7-0.2-2.6c-0.9,1.8-2.8,3.1-6.4,3.1
		c-4.8,0-6.5-2.9-6.5-5.3c0-4.2,3.9-5.4,8.6-5.4h4.2v-1c0-2-0.8-3.8-4.7-3.8c-3.5,0-4.3,1.6-4.7,3.3h-2.5c0.2-2.3,1.7-5.3,7.2-5.3
		c5.7,0,7.2,2.8,7.2,5.6L410.1,228.3z M407.6,223.9h-4.2c-4.1,0-6.2,0.9-6.2,3.4c0,1.8,1.3,3.4,4.3,3.4c4.9,0,6-3,6-5.9L407.6,223.9
		z"/>
	<path id="Path_16370" fill="#5E415C" d="M439.8,228.3c0,1.5,0.1,3.6,0.2,4h-2.4c-0.1-0.9-0.2-1.7-0.2-2.6c-0.9,1.8-2.8,3.1-6.4,3.1
		c-4.8,0-6.5-2.9-6.5-5.3c0-4.2,3.9-5.4,8.6-5.4h4.2v-1c0-2-0.8-3.8-4.7-3.8c-3.5,0-4.3,1.6-4.7,3.3h-2.5c0.2-2.3,1.7-5.3,7.2-5.3
		c5.7,0,7.2,2.8,7.2,5.6L439.8,228.3z M437.3,223.9h-4.2c-4.1,0-6.2,0.9-6.2,3.4c0,1.8,1.3,3.4,4.3,3.4c4.9,0,6-3,6-5.9L437.3,223.9
		z"/>
	<path id="Path_16371" fill="#5E415C" d="M445.6,219.8c0-1.4,0-3,0-4.2h2.5c0.1,0.6,0.1,2.1,0.1,3.4c1-2.5,3.5-4,6.2-3.8
		c3.8,0,6.4,2.4,6.4,7v10.1h-2.5v-9.6c0-3-1.2-5.3-4.5-5.3c-3.7,0-5.6,3-5.6,7.1v7.9h-2.5L445.6,219.8z"/>
	<path id="Path_16372" fill="#5E415C" d="M481.9,207.3v20.1c0,1.6,0,3.3,0,4.9h-2.4c-0.1-0.9-0.1-1.8-0.1-2.7
		c-0.8,1.5-2.3,3.2-6.3,3.2c-4.9,0-8.1-3.6-8.1-8.7c0-5.5,4-9,8.4-9c4.1,0,5.5,2,5.9,2.8v-10.7H481.9z M473.5,230.6
		c4.3,0,6-2.8,6-6.7s-1.3-6.5-5.9-6.5c-4.1,0-6,3.4-6,6.7C467.6,227.3,469.5,230.6,473.5,230.6"/>
	<path id="Path_16373" fill="#5E415C" d="M499.9,207.3v11.6c0.6-1.3,2.2-3.7,6.3-3.7c3.7,0,6.3,2.3,6.3,7.1v10.1h-2.5v-9.7
		c0-3-1.2-5.3-4.5-5.3c-3.8,0-5.6,3.1-5.6,6.7v8.3h-2.5v-25H499.9z"/>
	<path id="Path_16374" fill="#5E415C" d="M533.1,227.4c0,1.6,0,3.3,0,4.9h-2.4c-0.1-1-0.1-2.1-0.1-3.1c-0.8,2.1-2.4,3.5-6.1,3.5
		c-3.5,0-6.3-1.9-6.3-6.8v-10.4h2.5v9.9c0,2.6,1,5,4.3,5c3.9,0,5.6-2.3,5.6-7.4v-7.5h2.5L533.1,227.4z"/>
	<path id="Path_16375" fill="#5E415C" d="M538.7,219.9c0-1.5,0-2.9,0-4.3h2.5c0.1,0.9,0.1,1.8,0.1,2.7c1.1-2,3.2-3.2,5.5-3.1
		c2.3-0.2,4.4,1.2,5.1,3.3c1.1-2.1,3.4-3.4,5.8-3.3c3.2,0,5.9,1.9,5.9,6.8v10.4H561V222c0-2.1-0.7-4.7-3.8-4.7c-2.9,0-4.8,2-4.8,5.8
		v9.1h-2.5v-10.5c0-2.1-0.7-4.5-3.9-4.5c-3.5,0-4.7,2.7-4.7,6.1v8.8h-2.5L538.7,219.9z"/>
	<path id="Path_16376" fill="#5E415C" d="M583,228.3c0,1.5,0.1,3.6,0.2,4h-2.4c-0.1-0.9-0.2-1.7-0.2-2.6c-0.9,1.8-2.8,3.1-6.4,3.1
		c-4.8,0-6.5-2.9-6.5-5.3c0-4.2,3.9-5.4,8.6-5.4h4.2v-1c0-2-0.8-3.8-4.7-3.8c-3.5,0-4.3,1.6-4.7,3.3h-2.5c0.2-2.3,1.7-5.3,7.2-5.3
		c5.7,0,7.2,2.8,7.2,5.6L583,228.3z M580.5,223.9h-4.2c-4.1,0-6.2,0.9-6.2,3.4c0,1.8,1.3,3.4,4.3,3.4c4.9,0,6-3,6-5.9L580.5,223.9z"
		/>
	<path id="Path_16377" fill="#5E415C" d="M588.8,219.8c0-1.4,0-3,0-4.2h2.5c0.1,0.6,0.1,2.1,0.1,3.4c1-2.5,3.5-4,6.2-3.8
		c3.8,0,6.4,2.4,6.4,7v10.1h-2.5v-9.6c0-3-1.2-5.3-4.5-5.3c-3.7,0-5.6,3-5.6,7.1v7.9h-2.5L588.8,219.8z"/>
	<path id="Path_16378" fill="#5E415C" d="M635.1,207.3v20.1c0,1.6,0,3.3,0,4.9h-2.4c-0.1-0.9-0.1-1.8-0.1-2.7
		c-0.8,1.5-2.3,3.2-6.3,3.2c-4.9,0-8.1-3.6-8.1-8.7c0-5.5,4-9,8.4-9c4.1,0,5.5,2,5.9,2.8v-10.7H635.1z M626.7,230.6
		c4.3,0,6-2.8,6-6.7s-1.3-6.5-5.9-6.5c-4.1,0-6,3.4-6,6.7C620.8,227.3,622.8,230.6,626.7,230.6"/>
	<path id="Path_16379" fill="#5E415C" d="M641.9,224.5c0.2,3.5,2.6,6.1,6.2,6.1c2.2,0.2,4.3-1,5.3-3h2.5c-0.9,2.4-3.2,5.1-8.1,5.1
		c-5.7,0-8.5-4.3-8.5-8.8c0-5.1,3.4-8.9,8.4-8.9c6.3,0,8.4,4.7,8.4,8.7v0.7L641.9,224.5z M653.5,222.6c-0.1-2.2-1.3-5.4-5.8-5.4
		c-3.6,0-5.5,2.3-5.8,5.4H653.5z"/>
	<path id="Path_16380" fill="#5E415C" d="M660.8,215.6c1.3,3.1,5.6,12.6,6.2,14.3h0c0.4-1.2,1.5-3.9,6.1-14.3h2.6l-7.4,16.7h-2.7
		l-7.5-16.7H660.8z"/>
	<path id="Path_16381" fill="#5E415C" d="M680,224.5c0.2,3.5,2.6,6.1,6.2,6.1c2.2,0.2,4.3-1,5.3-3h2.5c-0.9,2.4-3.2,5.1-8.1,5.1
		c-5.7,0-8.5-4.3-8.5-8.8c0-5.1,3.4-8.9,8.4-8.9c6.3,0,8.4,4.7,8.4,8.7v0.7L680,224.5z M691.6,222.6c-0.1-2.2-1.3-5.4-5.8-5.4
		c-3.6,0-5.5,2.3-5.8,5.4H691.6z"/>
	<rect id="Rectangle_11219" x="698.4" y="207.3" fill="#5E415C" width="2.5" height="25"/>
	<path id="Path_16382" fill="#5E415C" d="M722.6,223.9c0,4.5-2.9,8.8-8.8,8.8c-5.5,0-8.6-4.2-8.6-8.8c-0.2-4.7,3.4-8.6,8.1-8.8
		c0.2,0,0.4,0,0.7,0C719.6,215.2,722.6,219.5,722.6,223.9 M707.8,224c0,3.4,2.2,6.6,6.1,6.6c4.1,0,6.1-3.1,6.1-6.6
		c0-3.6-2.3-6.7-6.2-6.7C709.8,217.3,707.8,220.4,707.8,224"/>
	<path id="Path_16383" fill="#5E415C" d="M726.9,239.7v-19.9c0-1.4,0-2.8,0-4.2h2.4c0.1,0.5,0.1,1.7,0.1,3.1c1-1.9,3-3.5,6.6-3.5
		c4.5,0,7.8,3.7,7.8,8.5c0,5.3-3.7,9.1-8.2,9.1c-3.7,0-5.2-1.6-6.1-3.2v10.1H726.9z M735.3,217.3c-4.1,0-6,3-6,6.7
		c0,3.7,2,6.5,5.9,6.5c4,0,5.9-3.3,5.9-6.8C741.2,220.7,739.4,217.3,735.3,217.3"/>
	<path id="Path_16384" fill="#5E415C" d="M748,219.9c0-1.5,0-2.9,0-4.3h2.5c0.1,0.9,0.1,1.8,0.1,2.7c1.1-2,3.2-3.2,5.5-3.1
		c2.3-0.2,4.4,1.2,5.1,3.3c1.1-2.1,3.4-3.4,5.8-3.3c3.2,0,5.9,1.9,5.9,6.8v10.4h-2.5V222c0-2.1-0.7-4.7-3.8-4.7
		c-2.9,0-4.8,2-4.8,5.8v9.1h-2.5v-10.5c0-2.1-0.7-4.5-3.9-4.5c-3.4,0-4.7,2.7-4.7,6.1v8.8H748L748,219.9z"/>
	<path id="Path_16385" fill="#5E415C" d="M779.7,224.5c0.2,3.5,2.6,6.1,6.2,6.1c2.2,0.2,4.3-1,5.3-3h2.5c-0.9,2.4-3.2,5.1-8.1,5.1
		c-5.7,0-8.5-4.3-8.5-8.8c0-5.1,3.4-8.9,8.4-8.9c6.3,0,8.4,4.7,8.4,8.7v0.7L779.7,224.5z M791.3,222.6c-0.1-2.2-1.3-5.4-5.8-5.4
		c-3.6,0-5.5,2.3-5.8,5.4H791.3z"/>
	<path id="Path_16386" fill="#5E415C" d="M798.3,219.8c0-1.4,0-3,0-4.2h2.5c0.1,0.6,0.1,2.1,0.1,3.4c1-2.5,3.5-4,6.2-3.8
		c3.8,0,6.4,2.4,6.4,7v10.1h-2.5v-9.6c0-3-1.2-5.3-4.5-5.3c-3.7,0-5.6,3-5.6,7.1v7.9h-2.5L798.3,219.8z"/>
	<path id="Path_16387" fill="#5E415C" d="M816.4,215.6h3.4v-5.5h2.5v5.5h4.5v2.1h-4.5v9.8c0,2.1,0.6,3,2.4,3c0.6,0,1.2,0,1.7-0.2
		v1.9c-0.8,0.2-1.6,0.3-2.4,0.3c-3.3,0-4.3-1.5-4.3-4.8v-10h-3.4V215.6z"/>
	<path id="Path_16388" fill="#5E415C" d="M360,263.7c0,4.5-2.9,8.8-8.8,8.8c-5.5,0-8.6-4.2-8.6-8.8c-0.2-4.7,3.4-8.6,8.1-8.8
		c0.2,0,0.4,0,0.7,0C356.9,255,360,259.3,360,263.7 M345.1,263.8c0,3.4,2.2,6.6,6.1,6.6c4.1,0,6.1-3.1,6.1-6.6
		c0-3.6-2.3-6.7-6.2-6.7C347.1,257.1,345.1,260.2,345.1,263.8"/>
	<path id="Path_16389" fill="#5E415C" d="M364.3,260c0-1.5,0-3.1,0-4.5h2.4c0,0.5,0.1,2.2,0.1,3.9c1.2-2.7,3.9-4.5,6.9-4.3v2.5
		c-3.9-0.1-6.9,2.5-6.9,7.4v7.2h-2.5L364.3,260z"/>
	<path id="Path_16390" fill="#5E415C" d="M377,247.1h2.5v3.6H377V247.1z M377,255.4h2.5v16.7H377V255.4z"/>
	<path id="Path_16391" fill="#5E415C" d="M386.3,264.3c0.2,3.5,2.6,6.1,6.2,6.1c2.2,0.2,4.3-1,5.3-3h2.5c-0.9,2.4-3.2,5.1-8.1,5.1
		c-5.7,0-8.5-4.3-8.5-8.8c0-5.1,3.4-8.9,8.4-8.9c6.3,0,8.4,4.7,8.4,8.7v0.7L386.3,264.3z M398,262.4c-0.1-2.2-1.3-5.4-5.8-5.4
		c-3.6,0-5.5,2.3-5.8,5.4H398z"/>
	<path id="Path_16392" fill="#5E415C" d="M404.9,259.6c0-1.4,0-3,0-4.2h2.5c0.1,0.6,0.1,2.1,0.1,3.4c1-2.5,3.5-4,6.2-3.8
		c3.8,0,6.4,2.4,6.4,7v10.1h-2.5v-9.6c0-3-1.2-5.3-4.5-5.3c-3.7,0-5.6,3-5.6,7.1v7.9h-2.5L404.9,259.6z"/>
	<path id="Path_16393" fill="#5E415C" d="M423,255.4h3.4v-5.5h2.5v5.5h4.5v2.1h-4.5v9.8c0,2.1,0.6,3,2.4,3c0.6,0,1.2,0,1.7-0.2v1.9
		c-0.8,0.2-1.6,0.3-2.4,0.3c-3.3,0-4.3-1.5-4.3-4.8v-10H423V255.4z"/>
	<path id="Path_16394" fill="#5E415C" d="M438,264.3c0.2,3.5,2.6,6.1,6.2,6.1c2.2,0.2,4.3-1,5.3-3h2.5c-0.9,2.4-3.2,5.1-8.1,5.1
		c-5.7,0-8.5-4.3-8.5-8.8c0-5.1,3.4-8.9,8.4-8.9c6.3,0,8.4,4.7,8.4,8.7v0.7L438,264.3z M449.7,262.4c-0.1-2.2-1.3-5.4-5.8-5.4
		c-3.6,0-5.5,2.3-5.8,5.4H449.7z"/>
	<path id="Path_16395" fill="#5E415C" d="M472.4,247.1v20.1c0,1.6,0,3.3,0,4.9H470c-0.1-0.9-0.1-1.8-0.1-2.7
		c-0.8,1.5-2.3,3.2-6.3,3.2c-4.9,0-8.1-3.6-8.1-8.7c0-5.5,4-9,8.4-9c4.1,0,5.5,2,5.9,2.8v-10.7H472.4z M464,270.4c4.3,0,6-2.8,6-6.7
		s-1.3-6.5-5.9-6.5c-4.1,0-6,3.4-6,6.7C458.1,267.1,460.1,270.4,464,270.4"/>
	<path id="Path_16396" fill="#5E415C" d="M488.9,267.1c0.6,2.2,2.5,3.5,5.7,3.5c3.5,0,4.8-1.3,4.8-3c0-1.5-0.9-2.6-5.4-3.1
		c-5.7-0.7-6.9-2.7-6.9-4.7c0-2.1,1.7-4.8,6.9-4.8c5.8,0,7.3,3.1,7.4,4.9h-2.5c-0.3-1.1-1-2.9-5-2.9c-3.4,0-4.1,1.5-4.1,2.6
		c0,1.4,0.9,2.2,4.9,2.8c6.1,0.8,7.4,2.6,7.4,5.1c0,3-2.3,5.1-7.5,5.1c-4.9,0-7.6-2.1-8.2-5.5L488.9,267.1z"/>
	<path id="Path_16397" fill="#5E415C" d="M506.8,255.4c3.7,8.5,5.9,13.3,6.4,14.8h0c0.6-1.7,2.5-6.6,5.9-14.8h2.7l-6.8,16.3
		c-3,7.1-4.1,8.3-7.9,8.3c-0.7,0-1.4-0.1-2.1-0.2v-2.3c0.6,0.1,1.3,0.1,1.9,0.1c2.2,0,3.2-1,4.9-4.7l-7.8-17.5L506.8,255.4z"/>
	<path id="Path_16398" fill="#5E415C" d="M526.1,267.1c0.6,2.2,2.5,3.5,5.7,3.5c3.5,0,4.8-1.3,4.8-3c0-1.5-0.9-2.6-5.4-3.1
		c-5.7-0.7-6.9-2.7-6.9-4.7c0-2.1,1.7-4.8,6.9-4.8c5.8,0,7.3,3.1,7.4,4.9h-2.5c-0.3-1.1-1-2.9-5-2.9c-3.4,0-4.1,1.5-4.1,2.6
		c0,1.4,0.9,2.2,4.9,2.8c6.1,0.8,7.4,2.6,7.4,5.1c0,3-2.3,5.1-7.5,5.1c-4.9,0-7.6-2.1-8.2-5.5L526.1,267.1z"/>
	<path id="Path_16399" fill="#5E415C" d="M541,255.4h3.4v-5.5h2.5v5.5h4.5v2.1h-4.5v9.8c0,2.1,0.6,3,2.4,3c0.6,0,1.2,0,1.7-0.2v1.9
		c-0.8,0.2-1.6,0.3-2.4,0.3c-3.3,0-4.3-1.5-4.3-4.8v-10H541V255.4z"/>
	<path id="Path_16400" fill="#5E415C" d="M556,264.3c0.2,3.5,2.6,6.1,6.2,6.1c2.2,0.2,4.3-1,5.3-3h2.5c-0.9,2.4-3.2,5.1-8.1,5.1
		c-5.7,0-8.5-4.3-8.5-8.8c0-5.1,3.4-8.9,8.4-8.9c6.3,0,8.4,4.7,8.4,8.7v0.7L556,264.3z M567.6,262.4c-0.1-2.2-1.3-5.4-5.8-5.4
		c-3.6,0-5.5,2.3-5.8,5.4H567.6z"/>
	<path id="Path_16401" fill="#5E415C" d="M574.6,259.7c0-1.5,0-2.9,0-4.3h2.5c0.1,0.9,0.1,1.8,0.1,2.7c1.1-2,3.2-3.2,5.5-3.1
		c2.3-0.2,4.4,1.2,5.1,3.3c1.1-2.1,3.4-3.4,5.8-3.3c3.2,0,5.9,1.9,5.9,6.8v10.4h-2.5v-10.3c0-2.1-0.7-4.7-3.8-4.7
		c-2.9,0-4.8,2-4.8,5.8v9.1h-2.5v-10.5c0-2.1-0.7-4.5-3.9-4.5c-3.5,0-4.7,2.7-4.7,6.1v8.8h-2.5L574.6,259.7z"/>
	<path id="Path_16402" fill="#5E415C" d="M345.2,95h38.4c28.5,0,48,17.6,48,44s-19.5,44-48,44h-38.4V95z M382.9,169.1
		c19.6,0,32.3-11.9,32.3-30.1s-12.7-30.1-32.3-30.1h-21.3v60.3H382.9z"/>
	<path id="Path_16403" fill="#5E415C" d="M526.3,134.2v48.7H510v-22.6h-45.7v22.6h-16.1v-48.7c0-26.4,15.7-40.4,39.1-40.4
		S526.3,107.8,526.3,134.2 M510,146.6v-13.9c0-16.7-8.9-24.6-22.9-24.6s-22.9,7.9-22.9,24.6v13.9H510z"/>
	<path id="Path_16404" fill="#19D7AA" d="M627.3,95v87.9h-16.3v-37.7h-45.5v37.7h-16.3V95h16.3v36.3h45.5V95L627.3,95z"/>
	<path id="Path_16405" fill="#5E415C" d="M650.9,95h38.4c28.5,0,48,17.6,48,44s-19.5,44-48,44h-38.4V95z M688.5,169.1
		c19.6,0,32.3-11.9,32.3-30.1s-12.7-30.1-32.3-30.1h-21.4v60.3H688.5z"/>
	<path id="Path_16406" fill="#5E415C" d="M748.3,139c0-26,20.1-45.2,47.3-45.2S843,112.9,843,139s-20.1,45.2-47.3,45.2
		S748.3,165,748.3,139 M826.6,139c0-18-13.2-30.9-30.9-30.9S764.8,121,764.8,139s13.2,30.9,30.9,30.9S826.6,156.9,826.6,139"/>
	<path id="Path_16407" fill="#5E415C" d="M852.9,173.6l5.7-12.7c7,5.7,18.2,9.7,29,9.7c13.7,0,19.5-4.9,19.5-11.4
		c0-19-52.2-6.5-52.2-39.2c0-14.2,11.3-26.2,35.4-26.2c10.5,0,21.6,2.8,29.3,7.8l-5.2,12.7c-7.3-4.4-15.7-6.8-24.2-6.9
		c-13.6,0-19.1,5.3-19.1,11.9c0,18.7,52.1,6.5,52.1,38.8c0,14.1-11.4,26.1-35.5,26.1C873.9,184.2,860.2,179.9,852.9,173.6"/>
</g>
</svg>
