<svg xmlns="http://www.w3.org/2000/svg" xmlns:xlink="http://www.w3.org/1999/xlink" width="55.136" height="60.519" viewBox="0 0 55.136 60.519">
  <defs>
    <filter id="Path_17923" x="0" y="0" width="55.136" height="60.519" filterUnits="userSpaceOnUse">
      <feOffset dy="2" input="SourceAlpha"/>
      <feGaussianBlur stdDeviation="2" result="blur"/>
      <feFlood flood-opacity="0.412"/>
      <feComposite operator="in" in2="blur"/>
      <feComposite in="SourceGraphic"/>
    </filter>
  </defs>
  <g id="hamburguer" transform="translate(-28 -29)">
    <g id="hamburguer-2" data-name="hamburguer" transform="translate(34 33)">
      <g transform="matrix(1, 0, 0, 1, -6, -4)" filter="url(#Path_17923)">
        <path id="Path_17923-2" data-name="Path 17923" d="M3.115,39.026a4.187,4.187,0,0,1-1.888-3.267L1.218,15.217A4.186,4.186,0,0,1,3.1,11.948L20.889,1.669a4.185,4.185,0,0,1,3.773,0L42.457,11.931A4.186,4.186,0,0,1,44.345,15.2l.009,20.542a4.186,4.186,0,0,1-1.885,3.269L24.683,49.288a4.187,4.187,0,0,1-3.774,0Z" transform="translate(4.78 2.78)" fill="#5e415c"/>
      </g>
    </g>
    <g id="Group_11282" data-name="Group 11282" transform="translate(0.408 -1.178)">
      <line id="Line_171" data-name="Line 171" x2="13.949" transform="translate(48.593 51.177)" fill="none" stroke="#f0f4e8" stroke-linecap="round" stroke-width="2"/>
      <line id="Line_172" data-name="Line 172" x2="13.949" transform="translate(48.593 58.177)" fill="none" stroke="#f0f4e8" stroke-linecap="round" stroke-width="2"/>
      <line id="Line_173" data-name="Line 173" x2="13.949" transform="translate(48.593 65.177)" fill="none" stroke="#f0f4e8" stroke-linecap="round" stroke-width="2"/>
    </g>
  </g>
</svg>
