<svg xmlns="http://www.w3.org/2000/svg" xmlns:xlink="http://www.w3.org/1999/xlink" width="65.395" height="73.517" viewBox="0 0 65.395 73.517">
  <defs>
    <clipPath id="clip-path">
      <rect id="Rectangle_11254" data-name="Rectangle 11254" width="65.395" height="73.517" fill="#23d7aa"/>
    </clipPath>
  </defs>
  <g id="ico-seta-right" transform="translate(0)">
    <g id="Group_10999" data-name="Group 10999" transform="translate(0 0)">
      <g id="Group_10997" data-name="Group 10997" transform="translate(0 0)">
        <g id="Group_10996" data-name="Group 10996" transform="translate(0)" clip-path="url(#clip-path)">
          <path id="Path_17923" data-name="Path 17923" d="M4.081,58.264a6.317,6.317,0,0,1-2.849-4.93L1.218,22.34a6.316,6.316,0,0,1,2.845-4.932L30.9,1.9a6.315,6.315,0,0,1,5.693,0L63.441,17.382a6.316,6.316,0,0,1,2.849,4.93L66.3,53.306a6.316,6.316,0,0,1-2.845,4.932L36.623,73.747a6.318,6.318,0,0,1-5.694,0Z" transform="translate(-1.063 -1.064)" fill="#23d7aa"/>
        </g>
      </g>
      <g id="Group_10998" data-name="Group 10998" transform="translate(26.016 50.38) rotate(-90)">
        <path id="Path_17924" data-name="Path 17924" d="M0,0H19.527" transform="translate(0 0) rotate(45)" fill="none" stroke="#fff" stroke-linecap="round" stroke-width="3"/>
        <path id="Path_17925" data-name="Path 17925" d="M0,0H19.527" transform="translate(13.808 13.808) rotate(-45)" fill="none" stroke="#fff" stroke-linecap="round" stroke-width="3"/>
      </g>
    </g>
  </g>
</svg>
