<svg xmlns="http://www.w3.org/2000/svg" width="56.236" height="63.146" viewBox="0 0 56.236 63.146">
  <g id="ico-busca" transform="translate(-768.278 -12056.099)">
    <path id="Path_19145" data-name="Path 19145" d="M3.559,47.878a5.167,5.167,0,0,1-2.33-4.032L1.218,18.494A5.166,5.166,0,0,1,3.545,14.46L25.495,1.775a5.165,5.165,0,0,1,4.657,0L52.112,14.439a5.166,5.166,0,0,1,2.33,4.032l.011,25.352a5.166,5.166,0,0,1-2.327,4.034L30.177,60.542a5.167,5.167,0,0,1-4.657,0Z" transform="translate(768.56 12056.513)" fill="#f0f4e8" stroke="#5e415c" stroke-width="3"/>
    <path id="Icon_open-magnifying-glass" data-name="Icon open-magnifying-glass" d="M8.9-.02a8.9,8.9,0,1,0,0,17.8,8.794,8.794,0,0,0,4.22-1.042,2.542,2.542,0,0,0,.33.33l5.591,5.348A2.593,2.593,0,1,0,22.7,18.751L17.109,13.4a2.542,2.542,0,0,0-.407-.33,8.778,8.778,0,0,0,1.119-4.22,8.907,8.907,0,0,0-8.9-8.9Zm0,2.542a6.325,6.325,0,0,1,6.355,6.355,6.375,6.375,0,0,1-1.678,4.372l-.076.076a2.542,2.542,0,0,0-.33.33,6.361,6.361,0,0,1-4.3,1.6,6.355,6.355,0,1,1,0-12.711Z" transform="translate(784.233 12076.389)" fill="#5e415c"/>
  </g>
</svg>
