<svg id="logo-dahdos-demo" xmlns="http://www.w3.org/2000/svg" xmlns:xlink="http://www.w3.org/1999/xlink" width="913.678" height="267.037" viewBox="0 0 913.678 267.037">
  <defs>
    <clipPath id="clip-path">
      <rect id="Rectangle_11220" data-name="Rectangle 11220" width="913.678" height="267.037" fill="none"/>
    </clipPath>
  </defs>
  <g id="Group_10921" data-name="Group 10921" clip-path="url(#clip-path)">
    <path id="Path_16366" data-name="Path 16366" d="M500.778,282.329v20.1c0,1.625,0,3.284.033,4.91h-2.421a23.126,23.126,0,0,1-.133-2.72c-.8,1.46-2.321,3.185-6.3,3.185-4.876,0-8.061-3.649-8.061-8.658,0-5.474,4.013-8.958,8.426-8.958,4.115,0,5.474,1.957,5.938,2.82V282.329Zm-8.426,23.289c4.345,0,6.038-2.787,6.038-6.7s-1.328-6.536-5.872-6.536c-4.081,0-6.038,3.351-6.038,6.7,0,3.218,1.957,6.536,5.872,6.536" transform="translate(-150.769 -87.967)" fill="#5e415c"/>
    <path id="Path_16367" data-name="Path 16367" d="M530.017,306.92c0,1.493.1,3.583.166,3.981h-2.39a18.179,18.179,0,0,1-.2-2.62c-.9,1.824-2.753,3.085-6.4,3.085-4.777,0-6.47-2.887-6.47-5.341,0-4.246,3.881-5.408,8.594-5.408h4.246v-1c0-1.957-.83-3.848-4.712-3.848-3.483,0-4.312,1.559-4.677,3.284h-2.489c.2-2.256,1.691-5.308,7.166-5.308,5.74,0,7.167,2.82,7.167,5.573Zm-2.455-4.412h-4.181c-4.146,0-6.171.9-6.171,3.384,0,1.824,1.328,3.383,4.347,3.383,4.876,0,6-2.952,6-5.9Z" transform="translate(-160.375 -91.526)" fill="#5e415c"/>
    <path id="Path_16368" data-name="Path 16368" d="M541.024,291.932h3.417v-5.507h2.489v5.507h4.511v2.056H546.93v9.754c0,2.057.563,2.985,2.421,2.985a7.593,7.593,0,0,0,1.725-.165v1.923a6.737,6.737,0,0,1-2.356.3c-3.284,0-4.279-1.493-4.279-4.778V293.989h-3.417Z" transform="translate(-168.57 -89.243)" fill="#5e415c"/>
    <path id="Path_16369" data-name="Path 16369" d="M575.011,306.92c0,1.493.1,3.583.166,3.981h-2.39a18.188,18.188,0,0,1-.2-2.62c-.895,1.824-2.753,3.085-6.4,3.085-4.777,0-6.47-2.887-6.47-5.341,0-4.246,3.881-5.408,8.594-5.408h4.246v-1c0-1.957-.83-3.848-4.711-3.848-3.484,0-4.312,1.559-4.677,3.284h-2.489c.2-2.256,1.691-5.308,7.166-5.308,5.74,0,7.166,2.82,7.166,5.573Zm-2.455-4.412h-4.181c-4.146,0-6.171.9-6.171,3.384,0,1.824,1.328,3.383,4.347,3.383,4.876,0,6-2.952,6-5.9Z" transform="translate(-174.394 -91.526)" fill="#5e415c"/>
    <path id="Path_16370" data-name="Path 16370" d="M618.127,306.92c0,1.493.1,3.583.166,3.981H615.9a18.179,18.179,0,0,1-.2-2.62c-.895,1.824-2.753,3.085-6.4,3.085-4.777,0-6.47-2.887-6.47-5.341,0-4.246,3.881-5.408,8.594-5.408h4.246v-1c0-1.957-.83-3.848-4.711-3.848-3.484,0-4.312,1.559-4.677,3.284h-2.489c.2-2.256,1.691-5.308,7.166-5.308,5.74,0,7.166,2.82,7.166,5.573Zm-2.455-4.412h-4.181c-4.146,0-6.171.9-6.171,3.384,0,1.824,1.328,3.383,4.347,3.383,4.876,0,6-2.952,6-5.9Z" transform="translate(-187.828 -91.526)" fill="#5e415c"/>
    <path id="Path_16371" data-name="Path 16371" d="M633.456,298.428c0-1.426,0-2.953-.034-4.213h2.456c.065.6.1,2.09.1,3.351a6.262,6.262,0,0,1,6.2-3.815c3.848,0,6.437,2.389,6.437,7.033V310.9H646.1v-9.621c0-3.019-1.162-5.341-4.48-5.341-3.749,0-5.64,2.953-5.64,7.066v7.9h-2.522Z" transform="translate(-197.359 -91.526)" fill="#5e415c"/>
    <path id="Path_16372" data-name="Path 16372" d="M678.589,282.329v20.1c0,1.625,0,3.284.033,4.91H676.2a23.1,23.1,0,0,1-.134-2.72c-.8,1.46-2.323,3.185-6.3,3.185-4.876,0-8.061-3.649-8.061-8.658,0-5.474,4.014-8.958,8.426-8.958,4.115,0,5.474,1.957,5.938,2.82V282.329Zm-8.426,23.289c4.345,0,6.038-2.787,6.038-6.7s-1.328-6.536-5.872-6.536c-4.081,0-6.038,3.351-6.038,6.7,0,3.218,1.957,6.536,5.872,6.536" transform="translate(-206.171 -87.967)" fill="#5e415c"/>
    <path id="Path_16373" data-name="Path 16373" d="M711.337,282.329v11.579c.564-1.294,2.157-3.716,6.336-3.716,3.749,0,6.271,2.323,6.271,7.067v10.085h-2.488v-9.654c0-3.019-1.162-5.308-4.48-5.308-3.848,0-5.64,3.119-5.64,6.7v8.261h-2.522V282.329Z" transform="translate(-220.85 -87.967)" fill="#5e415c"/>
    <path id="Path_16374" data-name="Path 16374" d="M753.964,306.235c0,1.626,0,3.251.034,4.877h-2.389a29.684,29.684,0,0,1-.133-3.085c-.829,2.057-2.421,3.55-6.1,3.55-3.55,0-6.3-1.891-6.3-6.768V294.424h2.522v9.92c0,2.587,1.028,5.009,4.28,5.009,3.881,0,5.606-2.256,5.606-7.431v-7.5h2.489Z" transform="translate(-230.276 -91.736)" fill="#5e415c"/>
    <path id="Path_16375" data-name="Path 16375" d="M768.824,298.527c0-1.46,0-2.886-.034-4.313h2.456a22.1,22.1,0,0,1,.066,2.655,6.006,6.006,0,0,1,5.507-3.119,5.09,5.09,0,0,1,5.142,3.318,6.26,6.26,0,0,1,5.772-3.318c3.218,0,5.872,1.858,5.872,6.768V310.9h-2.489V300.617c0-2.09-.663-4.678-3.848-4.678-2.887,0-4.778,1.991-4.778,5.839V310.9h-2.522v-10.45c0-2.09-.7-4.512-3.881-4.512-3.45,0-4.744,2.72-4.744,6.138V310.9h-2.522Z" transform="translate(-239.537 -91.525)" fill="#5e415c"/>
    <path id="Path_16376" data-name="Path 16376" d="M826.192,306.92c0,1.493.1,3.583.166,3.981h-2.39a18.182,18.182,0,0,1-.2-2.62c-.9,1.824-2.753,3.085-6.4,3.085-4.777,0-6.47-2.887-6.47-5.341,0-4.246,3.881-5.408,8.593-5.408h4.247v-1c0-1.957-.83-3.848-4.712-3.848-3.483,0-4.312,1.559-4.677,3.284h-2.489c.2-2.256,1.691-5.308,7.166-5.308,5.74,0,7.167,2.82,7.167,5.573Zm-2.455-4.412h-4.181c-4.146,0-6.171.9-6.171,3.384,0,1.824,1.328,3.383,4.347,3.383,4.876,0,6-2.952,6-5.9Z" transform="translate(-252.656 -91.526)" fill="#5e415c"/>
    <path id="Path_16377" data-name="Path 16377" d="M841.519,298.428c0-1.426,0-2.953-.034-4.213h2.456c.065.6.1,2.09.1,3.351a6.262,6.262,0,0,1,6.2-3.815c3.848,0,6.437,2.389,6.437,7.033V310.9H854.16v-9.621c0-3.019-1.162-5.341-4.48-5.341-3.749,0-5.64,2.953-5.64,7.066v7.9h-2.522Z" transform="translate(-262.187 -91.526)" fill="#5e415c"/>
    <path id="Path_16378" data-name="Path 16378" d="M901.152,282.329v20.1c0,1.625,0,3.284.033,4.91h-2.421a23.111,23.111,0,0,1-.134-2.72c-.8,1.46-2.323,3.185-6.3,3.185-4.876,0-8.061-3.649-8.061-8.658,0-5.474,4.013-8.958,8.426-8.958,4.115,0,5.474,1.957,5.938,2.82V282.329Zm-8.426,23.289c4.345,0,6.038-2.787,6.038-6.7s-1.328-6.536-5.872-6.536c-4.081,0-6.038,3.351-6.038,6.7,0,3.218,1.957,6.536,5.872,6.536" transform="translate(-275.517 -87.967)" fill="#5e415c"/>
    <path id="Path_16379" data-name="Path 16379" d="M917.52,303.139c.2,3.55,2.555,6.1,6.2,6.1a5.514,5.514,0,0,0,5.341-2.986h2.522c-.862,2.355-3.185,5.109-8.062,5.109-5.739,0-8.526-4.314-8.526-8.759,0-5.142,3.416-8.858,8.426-8.858,6.269,0,8.393,4.678,8.393,8.693v.7Zm11.646-1.957c-.134-2.189-1.294-5.375-5.774-5.375-3.615,0-5.474,2.322-5.805,5.375Z" transform="translate(-285.093 -91.526)" fill="#5e415c"/>
    <path id="Path_16380" data-name="Path 16380" d="M944.923,294.425c1.293,3.086,5.573,12.574,6.2,14.3h.032c.4-1.227,1.527-3.947,6.072-14.3h2.587l-7.432,16.687H949.7l-7.532-16.687Z" transform="translate(-293.558 -91.736)" fill="#5e415c"/>
    <path id="Path_16381" data-name="Path 16381" d="M972.825,303.139c.2,3.55,2.555,6.1,6.2,6.1a5.514,5.514,0,0,0,5.342-2.986h2.522c-.862,2.355-3.185,5.109-8.062,5.109-5.739,0-8.525-4.314-8.525-8.759,0-5.142,3.416-8.858,8.426-8.858,6.27,0,8.393,4.678,8.393,8.693v.7Zm11.646-1.957c-.133-2.189-1.294-5.375-5.774-5.375-3.615,0-5.474,2.322-5.805,5.375Z" transform="translate(-302.324 -91.526)" fill="#5e415c"/>
    <rect id="Rectangle_11219" data-name="Rectangle 11219" width="2.522" height="25.015" transform="translate(688.973 194.362)" fill="#5e415c"/>
    <path id="Path_16382" data-name="Path 16382" d="M1028.057,302.541c0,4.511-2.853,8.825-8.757,8.825-5.474,0-8.626-4.18-8.626-8.792a8.464,8.464,0,0,1,8.758-8.825c5.574,0,8.625,4.313,8.625,8.792m-14.828.033c0,3.351,2.224,6.635,6.136,6.635,4.115,0,6.1-3.052,6.1-6.6,0-3.616-2.255-6.7-6.17-6.7-4.081,0-6.071,3.086-6.071,6.669" transform="translate(-314.903 -91.525)" fill="#5e415c"/>
    <path id="Path_16383" data-name="Path 16383" d="M1042.166,318.3V298.394c0-1.393,0-2.787-.034-4.179h2.423c.065.531.1,1.658.1,3.085.995-1.857,3.02-3.55,6.6-3.55,4.544,0,7.763,3.715,7.763,8.525,0,5.341-3.65,9.091-8.228,9.091-3.682,0-5.208-1.625-6.137-3.185V318.3Zm8.394-22.361c-4.114,0-5.973,2.986-5.973,6.7,0,3.683,1.957,6.5,5.906,6.5,3.981,0,5.938-3.284,5.938-6.768,0-3.118-1.823-6.436-5.871-6.436" transform="translate(-324.704 -91.526)" fill="#5e415c"/>
    <path id="Path_16384" data-name="Path 16384" d="M1072.852,298.527c0-1.46,0-2.886-.034-4.313h2.456a22.155,22.155,0,0,1,.066,2.655,6.006,6.006,0,0,1,5.507-3.119,5.09,5.09,0,0,1,5.142,3.318,6.26,6.26,0,0,1,5.772-3.318c3.218,0,5.872,1.858,5.872,6.768V310.9h-2.488V300.617c0-2.09-.663-4.678-3.848-4.678-2.887,0-4.778,1.991-4.778,5.839V310.9H1084v-10.45c0-2.09-.7-4.512-3.881-4.512-3.45,0-4.744,2.72-4.744,6.138V310.9h-2.522Z" transform="translate(-334.265 -91.525)" fill="#5e415c"/>
    <path id="Path_16385" data-name="Path 16385" d="M1117.636,303.139c.2,3.55,2.555,6.1,6.2,6.1a5.514,5.514,0,0,0,5.341-2.986h2.522c-.862,2.355-3.185,5.109-8.062,5.109-5.739,0-8.526-4.314-8.526-8.759,0-5.142,3.417-8.858,8.427-8.858,6.27,0,8.392,4.678,8.392,8.693v.7Zm11.646-1.957c-.134-2.189-1.294-5.375-5.774-5.375-3.615,0-5.474,2.322-5.805,5.375Z" transform="translate(-347.444 -91.526)" fill="#5e415c"/>
    <path id="Path_16386" data-name="Path 16386" d="M1145.786,298.428c0-1.426,0-2.953-.033-4.213h2.456c.066.6.1,2.09.1,3.351a6.262,6.262,0,0,1,6.2-3.815c3.848,0,6.437,2.389,6.437,7.033V310.9h-2.522v-9.621c0-3.019-1.162-5.341-4.479-5.341-3.749,0-5.64,2.953-5.64,7.066v7.9h-2.522Z" transform="translate(-356.99 -91.526)" fill="#5e415c"/>
    <path id="Path_16387" data-name="Path 16387" d="M1172.107,291.932h3.417v-5.507h2.489v5.507h4.511v2.056h-4.511v9.754c0,2.057.563,2.985,2.421,2.985a7.6,7.6,0,0,0,1.725-.165v1.923a6.735,6.735,0,0,1-2.355.3c-3.285,0-4.28-1.493-4.28-4.778V293.989h-3.417Z" transform="translate(-365.201 -89.243)" fill="#5e415c"/>
    <path id="Path_16388" data-name="Path 16388" d="M501.275,360.352c0,4.513-2.854,8.826-8.757,8.826-5.474,0-8.626-4.18-8.626-8.792a8.465,8.465,0,0,1,8.758-8.825c5.574,0,8.625,4.313,8.625,8.791m-14.829.034c0,3.351,2.224,6.635,6.137,6.635,4.114,0,6.1-3.052,6.1-6.6,0-3.616-2.256-6.7-6.17-6.7-4.081,0-6.072,3.086-6.072,6.668" transform="translate(-150.769 -109.538)" fill="#5e415c"/>
    <path id="Path_16389" data-name="Path 16389" d="M515.383,356.571c0-1.526,0-3.052-.034-4.545h2.423c.032.464.1,2.19.1,3.882a7.177,7.177,0,0,1,6.868-4.346v2.488c-3.882-.067-6.868,2.488-6.868,7.431v7.232h-2.488Z" transform="translate(-160.571 -109.538)" fill="#5e415c"/>
    <path id="Path_16390" data-name="Path 16390" d="M533.9,340.14h2.488v3.649H533.9Zm0,8.327h2.488v16.687H533.9Z" transform="translate(-166.35 -105.98)" fill="#5e415c"/>
    <path id="Path_16391" data-name="Path 16391" d="M546.292,360.95c.2,3.55,2.555,6.1,6.2,6.1a5.513,5.513,0,0,0,5.341-2.986h2.522c-.862,2.356-3.185,5.109-8.062,5.109-5.739,0-8.525-4.313-8.525-8.759,0-5.142,3.417-8.858,8.426-8.858,6.269,0,8.393,4.678,8.393,8.693v.7Zm11.646-1.957c-.134-2.189-1.294-5.374-5.774-5.374-3.615,0-5.474,2.322-5.806,5.374Z" transform="translate(-169.427 -109.538)" fill="#5e415c"/>
    <path id="Path_16392" data-name="Path 16392" d="M574.444,356.239c0-1.426,0-2.953-.034-4.213h2.456c.065.6.1,2.09.1,3.351a6.262,6.262,0,0,1,6.2-3.815c3.848,0,6.437,2.389,6.437,7.033v10.119h-2.522v-9.621c0-3.019-1.162-5.341-4.48-5.341-3.749,0-5.64,2.953-5.64,7.066v7.9h-2.522Z" transform="translate(-178.973 -109.538)" fill="#5e415c"/>
    <path id="Path_16393" data-name="Path 16393" d="M600.763,349.743h3.417v-5.507h2.489v5.507h4.511V351.8h-4.511v9.754c0,2.057.562,2.985,2.421,2.985a7.593,7.593,0,0,0,1.725-.165V366.3a6.781,6.781,0,0,1-2.355.3c-3.285,0-4.28-1.493-4.28-4.778V351.8h-3.417Z" transform="translate(-187.184 -107.256)" fill="#5e415c"/>
    <path id="Path_16394" data-name="Path 16394" d="M621.4,360.95c.2,3.55,2.555,6.1,6.2,6.1a5.513,5.513,0,0,0,5.341-2.986h2.522c-.862,2.356-3.185,5.109-8.062,5.109-5.739,0-8.526-4.313-8.526-8.759,0-5.142,3.417-8.858,8.426-8.858,6.271,0,8.394,4.678,8.394,8.693v.7Zm11.645-1.957c-.132-2.189-1.293-5.374-5.772-5.374-3.616,0-5.474,2.322-5.806,5.374Z" transform="translate(-192.828 -109.538)" fill="#5e415c"/>
    <path id="Path_16395" data-name="Path 16395" d="M664.862,340.14v20.1c0,1.625,0,3.284.033,4.909h-2.421a23.126,23.126,0,0,1-.133-2.72c-.8,1.459-2.323,3.185-6.3,3.185-4.876,0-8.061-3.649-8.061-8.658,0-5.475,4.014-8.958,8.426-8.958,4.115,0,5.474,1.957,5.938,2.82V340.14Zm-8.426,23.289c4.345,0,6.038-2.787,6.038-6.7s-1.328-6.536-5.872-6.536c-4.081,0-6.038,3.351-6.038,6.7,0,3.218,1.957,6.537,5.872,6.537" transform="translate(-201.894 -105.98)" fill="#5e415c"/>
    <path id="Path_16396" data-name="Path 16396" d="M695.281,363.67c.63,2.223,2.522,3.483,5.74,3.483,3.483,0,4.777-1.26,4.777-2.953,0-1.526-.863-2.621-5.375-3.119-5.707-.7-6.9-2.654-6.9-4.744,0-2.057,1.691-4.778,6.867-4.778,5.774,0,7.266,3.052,7.4,4.944h-2.52c-.266-1.1-1-2.92-5.043-2.92-3.417,0-4.147,1.492-4.147,2.554,0,1.393.863,2.223,4.877,2.754,6.137.8,7.4,2.621,7.4,5.143,0,2.986-2.289,5.142-7.464,5.142-4.944,0-7.564-2.091-8.162-5.507Z" transform="translate(-215.837 -109.538)" fill="#5e415c"/>
    <path id="Path_16397" data-name="Path 16397" d="M721.239,352.236c3.715,8.459,5.872,13.337,6.4,14.829h.034c.63-1.658,2.455-6.569,5.9-14.829h2.654L729.4,368.525c-2.986,7.1-4.114,8.261-7.863,8.261a14.3,14.3,0,0,1-2.056-.166V374.3a13.934,13.934,0,0,0,1.89.134c2.224,0,3.185-1,4.911-4.712l-7.83-17.483Z" transform="translate(-223.853 -109.748)" fill="#5e415c"/>
    <path id="Path_16398" data-name="Path 16398" d="M749.382,363.67c.63,2.223,2.522,3.483,5.74,3.483,3.483,0,4.778-1.26,4.778-2.953,0-1.526-.864-2.621-5.375-3.119-5.707-.7-6.9-2.654-6.9-4.744,0-2.057,1.691-4.778,6.867-4.778,5.774,0,7.266,3.052,7.4,4.944h-2.52c-.266-1.1-1-2.92-5.043-2.92-3.417,0-4.147,1.492-4.147,2.554,0,1.393.863,2.223,4.877,2.754,6.137.8,7.4,2.621,7.4,5.143,0,2.986-2.289,5.142-7.465,5.142-4.944,0-7.564-2.091-8.162-5.507Z" transform="translate(-232.694 -109.538)" fill="#5e415c"/>
    <path id="Path_16399" data-name="Path 16399" d="M772.118,349.743h3.417v-5.507h2.489v5.507h4.511V351.8h-4.511v9.754c0,2.057.563,2.985,2.421,2.985a7.594,7.594,0,0,0,1.725-.165V366.3a6.786,6.786,0,0,1-2.357.3c-3.284,0-4.278-1.493-4.278-4.778V351.8h-3.417Z" transform="translate(-240.574 -107.256)" fill="#5e415c"/>
    <path id="Path_16400" data-name="Path 16400" d="M792.752,360.95c.2,3.55,2.555,6.1,6.2,6.1a5.513,5.513,0,0,0,5.341-2.986h2.522c-.862,2.356-3.185,5.109-8.062,5.109-5.739,0-8.525-4.313-8.525-8.759,0-5.142,3.416-8.858,8.426-8.858,6.27,0,8.393,4.678,8.393,8.693v.7Zm11.646-1.957c-.134-2.189-1.294-5.374-5.774-5.374-3.615,0-5.474,2.322-5.805,5.374Z" transform="translate(-246.218 -109.538)" fill="#5e415c"/>
    <path id="Path_16401" data-name="Path 16401" d="M820.906,356.339c0-1.46,0-2.887-.034-4.313h2.456a22.145,22.145,0,0,1,.066,2.655,6.007,6.007,0,0,1,5.507-3.119,5.09,5.09,0,0,1,5.142,3.318,6.261,6.261,0,0,1,5.772-3.318c3.218,0,5.872,1.858,5.872,6.768v10.384H843.2V358.429c0-2.09-.663-4.678-3.848-4.678-2.887,0-4.778,1.991-4.778,5.839v9.124h-2.522v-10.45c0-2.09-.7-4.512-3.881-4.512-3.45,0-4.744,2.72-4.744,6.138v8.824h-2.522Z" transform="translate(-255.764 -109.538)" fill="#5e415c"/>
    <path id="Path_16402" data-name="Path 16402" d="M487.7,119.239h38.431c28.508,0,47.976,17.584,47.976,43.958s-19.467,43.957-47.976,43.957H487.7Zm37.677,74.1c19.592,0,32.277-11.931,32.277-30.141s-12.685-30.142-32.277-30.142H504.03v60.283Z" transform="translate(-151.957 -37.152)" fill="#5e415c"/>
    <path id="Path_16403" data-name="Path 16403" d="M715.406,157.857v48.729H699.079V183.979H653.364v22.606H637.289V157.857c0-26.375,15.7-40.441,39.058-40.441s39.059,14.066,39.059,40.441M699.079,170.29V156.349c0-16.7-8.917-24.615-22.857-24.615s-22.857,7.911-22.857,24.615V170.29Z" transform="translate(-198.564 -36.584)" fill="#5e415c"/>
    <path id="Path_16404" data-name="Path 16404" d="M862.069,119.24v87.914H845.743V169.477H800.278v37.677H783.952V119.24h16.325v36.3h45.466v-36.3Z" transform="translate(-244.261 -37.152)" fill="#19d7aa"/>
    <path id="Path_16405" data-name="Path 16405" d="M931.713,119.239h38.431c28.508,0,47.975,17.584,47.975,43.958s-19.467,43.957-47.975,43.957H931.713Zm37.677,74.1c19.592,0,32.277-11.931,32.277-30.141s-12.685-30.142-32.277-30.142H948.038v60.283Z" transform="translate(-290.3 -37.152)" fill="#5e415c"/>
    <path id="Path_16406" data-name="Path 16406" d="M1073.268,162.629c0-26,20.094-45.212,47.347-45.212s47.349,19.089,47.349,45.212-20.1,45.214-47.349,45.214-47.347-19.215-47.347-45.214m78.243,0c0-17.959-13.187-30.9-30.9-30.9s-30.895,12.936-30.895,30.9,13.188,30.9,30.895,30.9,30.9-12.936,30.9-30.9" transform="translate(-334.405 -36.584)" fill="#5e415c"/>
    <path id="Path_16407" data-name="Path 16407" d="M1225.226,197.292l5.651-12.684c7.033,5.651,18.211,9.671,29.011,9.671,13.689,0,19.466-4.9,19.466-11.429,0-18.964-52.245-6.531-52.245-39.184,0-14.193,11.3-26.248,35.416-26.248,10.549,0,21.6,2.763,29.264,7.786l-5.15,12.684a48.854,48.854,0,0,0-24.238-6.906c-13.565,0-19.091,5.275-19.091,11.931,0,18.712,52.12,6.53,52.12,38.807,0,14.066-11.428,26.124-35.541,26.124-13.689,0-27.38-4.271-34.663-10.551" transform="translate(-381.752 -36.584)" fill="#5e415c"/>
    <path id="Path_16408" data-name="Path 16408" d="M95.352,106.435A11.216,11.216,0,1,0,84.138,95.222a11.215,11.215,0,0,0,11.214,11.213m0-17.964a6.748,6.748,0,1,1-6.747,6.751,6.756,6.756,0,0,1,6.747-6.751" transform="translate(-26.215 -26.173)" fill="#19d7aa"/>
    <path id="Path_16409" data-name="Path 16409" d="M11.214,106.435A11.216,11.216,0,1,0,0,95.222a11.215,11.215,0,0,0,11.214,11.213m0-17.964a6.748,6.748,0,1,1-6.747,6.751,6.756,6.756,0,0,1,6.747-6.751" transform="translate(0 -26.173)" fill="#19d7aa"/>
    <path id="Path_16410" data-name="Path 16410" d="M219.473,237.212a11.214,11.214,0,1,0,11.214,11.216,11.213,11.213,0,0,0-11.214-11.216m0,17.961a6.747,6.747,0,1,1,6.747-6.745,6.754,6.754,0,0,1-6.747,6.745" transform="translate(-64.889 -73.91)" fill="#19d7aa"/>
    <path id="Path_16411" data-name="Path 16411" d="M219.473,304.923a11.214,11.214,0,1,0,11.214,11.216,11.213,11.213,0,0,0-11.214-11.216m0,17.961a6.747,6.747,0,1,1,6.747-6.745,6.754,6.754,0,0,1-6.747,6.745" transform="translate(-64.889 -95.007)" fill="#19d7aa"/>
    <path id="Path_16412" data-name="Path 16412" d="M219.473,22.435a11.218,11.218,0,1,0-11.214-11.216,11.217,11.217,0,0,0,11.214,11.216m0-17.968a6.75,6.75,0,1,1-6.747,6.752,6.757,6.757,0,0,1,6.747-6.752" transform="translate(-64.889 0)" fill="#19d7aa"/>
    <path id="Path_16413" data-name="Path 16413" d="M219.473,90.147a11.216,11.216,0,1,0-11.214-11.216,11.216,11.216,0,0,0,11.214,11.216m0-17.964a6.748,6.748,0,1,1-6.747,6.749,6.755,6.755,0,0,1,6.747-6.749" transform="translate(-64.889 -21.098)" fill="#19d7aa"/>
    <path id="Path_16414" data-name="Path 16414" d="M303.083,142.964a11.214,11.214,0,1,0-11.214-11.212,11.215,11.215,0,0,0,11.214,11.212m0-17.961a6.747,6.747,0,1,1-6.747,6.749A6.756,6.756,0,0,1,303.083,125" transform="translate(-90.94 -37.556)" fill="#19d7aa"/>
    <path id="Path_16415" data-name="Path 16415" d="M303.083,210.675a11.214,11.214,0,1,0-11.214-11.216,11.215,11.215,0,0,0,11.214,11.216m0-17.961a6.747,6.747,0,1,1-6.747,6.745,6.754,6.754,0,0,1,6.747-6.745" transform="translate(-90.94 -58.653)" fill="#19d7aa"/>
    <path id="Path_16416" data-name="Path 16416" d="M53.8,120.536a11.214,11.214,0,1,0,11.214,11.216A11.213,11.213,0,0,0,53.8,120.536m0,17.961a6.747,6.747,0,1,1,6.747-6.745A6.753,6.753,0,0,1,53.8,138.5" transform="translate(-13.269 -37.556)" fill="#19d7aa"/>
    <path id="Path_16417" data-name="Path 16417" d="M53.8,188.247A11.214,11.214,0,1,0,65.016,199.46,11.212,11.212,0,0,0,53.8,188.247m0,17.961a6.747,6.747,0,1,1,6.747-6.748,6.755,6.755,0,0,1-6.747,6.748" transform="translate(-13.269 -58.653)" fill="#19d7aa"/>
    <path id="Path_16418" data-name="Path 16418" d="M22.582,168.575c.035-.109.07-.218.1-.333.019-.061.036-.128.054-.186.027-.1.054-.211.078-.314.018-.077.037-.151.053-.225.021-.1.042-.2.059-.3s.036-.174.049-.26.03-.183.043-.276.025-.2.039-.3c.013-.083.021-.166.027-.25.014-.118.02-.24.029-.355,0-.067.013-.135.014-.205.008-.182.015-.372.015-.565a11.913,11.913,0,0,0-.235-2.333c-.078-.375-.176-.747-.288-1.11A11.576,11.576,0,0,0,1.143,160a11.045,11.045,0,0,0-.622,1.574c-.112.363-.209.735-.288,1.11A11.706,11.706,0,0,0,0,165.014c0,.192,0,.382.014.565,0,.07.008.138.013.205.01.116.017.237.03.355.006.084.016.167.025.25.016.1.027.2.041.3s.029.186.045.276.03.173.047.26.037.2.059.3c.018.074.034.148.053.225.023.1.053.211.078.314.019.058.036.125.058.186.032.116.063.224.1.333.014.048.032.089.046.134.043.129.087.254.131.379l5.31,13.905a15.506,15.506,0,0,1,0,9.905L.739,206.8c-.045.122-.088.251-.131.375-.014.045-.032.087-.046.131-.035.109-.065.221-.1.337-.021.061-.039.122-.058.189-.025.1-.055.209-.078.315-.019.07-.035.147-.053.221-.022.1-.043.2-.059.3-.017.083-.032.173-.047.26s-.032.176-.045.272-.025.2-.041.3c-.01.083-.02.163-.025.249-.013.116-.02.238-.03.353,0,.07-.01.138-.013.2C0,210.5,0,210.682,0,210.871A11.672,11.672,0,0,0,.233,213.2c.078.378.176.75.288,1.113a11.21,11.21,0,0,0,.622,1.576,11.572,11.572,0,0,0,21.479-1.576c.112-.362.21-.735.288-1.113a11.877,11.877,0,0,0,.235-2.334c0-.189-.007-.375-.015-.564,0-.067-.01-.134-.014-.2-.009-.116-.014-.238-.029-.353-.006-.086-.014-.167-.027-.246-.013-.1-.024-.2-.039-.3s-.029-.182-.043-.272-.03-.177-.049-.26c-.017-.1-.039-.2-.059-.3-.016-.074-.035-.151-.053-.221-.024-.106-.052-.211-.078-.315-.019-.067-.036-.128-.054-.189-.032-.116-.067-.228-.1-.337-.016-.045-.034-.09-.047-.134-.041-.125-.087-.251-.133-.372h0L17.1,192.9a15.517,15.517,0,0,1,0-9.905L22.4,169.088h0c.045-.125.092-.25.133-.375.013-.048.031-.09.047-.138" transform="translate(0 -47.81)" fill="#19d7aa"/>
    <path id="Path_16419" data-name="Path 16419" d="M105.679,168.575c.032-.109.067-.218.1-.333.019-.061.039-.128.056-.186l.078-.314c.02-.077.037-.151.054-.225.02-.1.04-.2.057-.3s.034-.174.049-.26.031-.183.043-.276.025-.2.037-.3c.012-.083.021-.166.029-.25.014-.118.019-.24.027-.355.007-.067.013-.135.02-.205.007-.182.012-.372.012-.565a11.914,11.914,0,0,0-.237-2.333,10.331,10.331,0,0,0-.287-1.11A10.729,10.729,0,0,0,105.1,160a11.575,11.575,0,0,0-20.857,0,11.393,11.393,0,0,0-.624,1.574c-.11.363-.207.735-.285,1.11a11.757,11.757,0,0,0-.234,2.333c0,.192,0,.382.012.565,0,.07.012.138.018.205.01.116.015.237.025.355.008.084.018.167.03.25.011.1.021.2.036.3s.031.186.047.276.028.173.047.26.037.2.058.3c.018.074.036.148.056.225l.076.314c.018.058.036.125.058.186.032.116.063.224.1.333.013.048.03.089.043.134.047.129.089.254.133.379l5.313,13.905a15.539,15.539,0,0,1,0,9.905l-5.313,13.9c-.044.122-.086.251-.133.375-.013.045-.03.087-.043.131-.036.109-.067.221-.1.337-.021.061-.04.122-.058.189-.025.1-.052.209-.076.315-.02.07-.039.147-.056.221-.021.1-.041.2-.058.3-.019.083-.032.173-.047.26s-.032.176-.047.272-.025.2-.036.3c-.012.083-.021.163-.03.249-.01.116-.016.238-.025.353-.006.07-.014.138-.018.2-.008.189-.012.375-.012.564a11.722,11.722,0,0,0,.234,2.334c.078.378.175.75.285,1.113a11.578,11.578,0,0,0,21.482,1.576,10.887,10.887,0,0,0,.622-1.576A10.172,10.172,0,0,0,106,213.2a11.878,11.878,0,0,0,.237-2.334c0-.189,0-.375-.012-.564-.007-.067-.013-.134-.02-.2-.008-.116-.013-.238-.027-.353-.008-.086-.017-.167-.029-.246-.012-.1-.021-.2-.037-.3s-.028-.182-.043-.272-.029-.177-.049-.26c-.017-.1-.037-.2-.057-.3-.017-.074-.034-.151-.054-.221-.025-.106-.052-.211-.078-.315-.018-.067-.038-.128-.056-.189-.032-.116-.067-.228-.1-.337-.017-.045-.033-.09-.048-.134-.043-.125-.085-.251-.132-.372h0l-5.315-13.9a15.539,15.539,0,0,1,0-9.905l5.315-13.905h0c.047-.125.089-.25.132-.375.014-.048.031-.09.048-.138" transform="translate(-25.89 -47.81)" fill="#19d7aa"/>
    <path id="Path_16420" data-name="Path 16420" d="M147.224,135.725c.036-.112.067-.221.1-.333.021-.061.04-.129.056-.186.028-.106.052-.212.079-.314.019-.077.036-.154.052-.228.021-.1.04-.2.06-.295s.033-.173.046-.263.032-.176.047-.273.027-.2.039-.3.019-.166.027-.253c.013-.116.017-.238.028-.353.008-.071.011-.135.014-.205.007-.183.017-.375.017-.568a11.643,11.643,0,0,0-.238-2.33,10.775,10.775,0,0,0-.285-1.11,10.991,10.991,0,0,0-.62-1.574,11.576,11.576,0,0,0-20.861,0,11.251,11.251,0,0,0-.623,1.574,11.136,11.136,0,0,0-.283,1.11,11.542,11.542,0,0,0-.239,2.33c0,.193.007.385.016.568,0,.07.008.134.014.205.01.115.017.237.028.353.009.087.018.169.029.253s.023.2.039.3.025.186.043.273.03.176.05.263.036.195.056.295c.019.074.035.151.055.228.027.1.052.208.078.314.017.057.033.125.057.186.032.112.064.221.1.333.013.045.028.089.041.132.045.131.088.257.131.381l5.315,13.9a15.569,15.569,0,0,1,0,9.911l-5.315,13.9c-.043.128-.086.256-.131.381-.014.042-.028.089-.041.132-.037.109-.069.221-.1.337a1.915,1.915,0,0,0-.057.186c-.026.106-.052.211-.078.314-.02.074-.036.154-.055.228-.019.1-.039.192-.056.295-.02.083-.034.173-.05.26s-.033.18-.043.273-.028.2-.039.3c-.011.08-.02.167-.029.253-.011.116-.018.237-.028.353-.006.07-.013.134-.014.2-.009.189-.016.379-.016.565a11.522,11.522,0,0,0,.239,2.334,10.891,10.891,0,0,0,.283,1.109,11.577,11.577,0,0,0,21.484,1.577,11.2,11.2,0,0,0,.62-1.577,10.544,10.544,0,0,0,.285-1.109,11.622,11.622,0,0,0,.238-2.334c0-.186-.01-.375-.017-.565,0-.07-.006-.134-.014-.2-.01-.116-.014-.238-.028-.353-.008-.086-.017-.167-.027-.25-.012-.1-.024-.2-.039-.3s-.03-.182-.047-.266-.03-.18-.046-.263c-.02-.1-.039-.2-.06-.295-.016-.074-.033-.154-.052-.228-.028-.1-.052-.208-.079-.314-.016-.061-.035-.125-.056-.186-.034-.116-.064-.228-.1-.337-.014-.042-.03-.089-.048-.135-.041-.125-.084-.25-.132-.378h0l-5.312-13.9a15.537,15.537,0,0,1,0-9.911l5.312-13.9h0c.048-.125.091-.25.132-.375.017-.049.033-.094.048-.138" transform="translate(-38.835 -37.574)" fill="#19d7aa"/>
    <path id="Path_16421" data-name="Path 16421" d="M188.771,168.575c.037-.109.068-.218.1-.333.021-.061.036-.128.058-.186.024-.1.051-.211.077-.314.019-.077.037-.151.054-.225.02-.1.043-.2.059-.3s.033-.174.048-.26.03-.183.045-.276.025-.2.037-.3c.012-.083.021-.166.028-.25.012-.118.017-.24.026-.355,0-.067.012-.135.015-.205.012-.182.017-.372.017-.565a11.708,11.708,0,0,0-.237-2.333c-.079-.375-.172-.747-.284-1.11A11.577,11.577,0,0,0,167.333,160a10.726,10.726,0,0,0-.622,1.574,10.5,10.5,0,0,0-.288,1.11,11.605,11.605,0,0,0-.237,2.333c0,.192.007.382.014.565,0,.07.008.138.016.205.01.116.017.237.028.355.008.084.016.167.028.25.014.1.024.2.037.3s.029.186.044.276.029.173.05.26.039.2.057.3c.017.074.036.148.055.225.023.1.053.211.078.314.018.058.032.125.054.186.032.116.065.224.1.333.014.048.028.089.043.134.047.129.089.254.132.379l5.313,13.905a15.539,15.539,0,0,1,0,9.905l-5.313,13.9c-.043.122-.085.251-.132.375-.014.045-.029.087-.043.131q-.054.163-.1.337c-.023.061-.036.122-.054.189-.025.1-.055.209-.078.315-.019.07-.039.147-.055.221-.019.1-.041.2-.057.3-.021.083-.036.173-.05.26s-.032.176-.044.272-.023.2-.037.3c-.012.083-.021.163-.028.249-.012.116-.019.238-.028.353-.008.07-.013.138-.016.2-.008.189-.014.375-.014.564a11.571,11.571,0,0,0,.237,2.334,10.332,10.332,0,0,0,.288,1.113,10.883,10.883,0,0,0,.622,1.576,11.577,11.577,0,0,0,20.859,0,11.83,11.83,0,0,0,.622-1.576c.112-.362.205-.735.284-1.113a11.673,11.673,0,0,0,.237-2.334c0-.189-.006-.375-.017-.564,0-.067-.01-.134-.015-.2-.009-.116-.014-.238-.026-.353-.008-.086-.016-.167-.028-.246-.012-.1-.023-.2-.037-.3s-.032-.182-.045-.272-.031-.177-.048-.26c-.016-.1-.039-.2-.059-.3-.017-.074-.034-.151-.054-.221-.026-.106-.053-.211-.077-.315-.022-.067-.037-.128-.058-.189-.032-.116-.064-.228-.1-.337-.014-.045-.032-.09-.045-.134-.045-.125-.088-.251-.136-.372h.006l-5.312-13.9a15.528,15.528,0,0,1,0-9.905l5.312-13.905h-.006c.048-.125.091-.25.136-.375.013-.048.03-.09.045-.138" transform="translate(-51.78 -47.81)" fill="#19d7aa"/>
    <path id="Path_16422" data-name="Path 16422" d="M253.136,206.8c-.044.122-.09.25-.134.375-.017.045-.028.087-.043.132q-.054.163-.1.336c-.019.061-.036.122-.054.189-.024.1-.054.209-.078.314-.02.071-.036.148-.054.222-.019.1-.04.2-.057.3-.021.083-.032.173-.047.26a2.57,2.57,0,0,0-.045.273c-.014.1-.027.2-.039.3-.01.083-.019.163-.028.25-.013.116-.017.237-.028.352a1.781,1.781,0,0,0-.016.205c-.008.189-.013.375-.013.565a11.76,11.76,0,0,0,.234,2.333,11.024,11.024,0,0,0,.287,1.112,11.165,11.165,0,0,0,.62,1.577,11.573,11.573,0,0,0,21.482-1.577c.112-.362.209-.735.286-1.112a11.607,11.607,0,0,0,.239-2.333c0-.189-.008-.375-.019-.565,0-.067-.009-.134-.014-.205-.01-.116-.013-.237-.024-.352-.013-.087-.02-.167-.032-.246-.01-.1-.021-.2-.037-.3s-.031-.183-.045-.273-.029-.176-.046-.26c-.018-.1-.038-.2-.058-.3-.019-.074-.035-.151-.056-.222-.025-.105-.052-.211-.077-.314-.02-.067-.036-.128-.058-.189-.032-.115-.064-.227-.1-.336-.017-.045-.032-.09-.045-.135-.044-.125-.088-.25-.134-.372h0L269.489,192.9a15.561,15.561,0,0,1,0-9.905l5.314-13.9h0c.046-.125.09-.251.134-.375.013-.048.029-.089.045-.138.035-.109.067-.218.1-.334.022-.061.038-.128.058-.186.026-.1.052-.211.077-.314.021-.076.036-.151.056-.224.02-.1.04-.2.058-.3s.034-.173.046-.26.03-.182.045-.276.027-.195.037-.295c.012-.083.019-.167.032-.25.011-.119.014-.24.024-.356,0-.067.012-.134.014-.205.012-.182.019-.372.019-.564a11.661,11.661,0,0,0-.239-2.334c-.078-.375-.175-.747-.286-1.109A11.421,11.421,0,0,0,274.4,160a11.578,11.578,0,0,0-20.861,0,10.929,10.929,0,0,0-.62,1.574,11.151,11.151,0,0,0-.287,1.109,11.814,11.814,0,0,0-.234,2.334c0,.191,0,.381.013.564a1.66,1.66,0,0,0,.016.205c.01.116.014.237.028.356.01.083.018.167.028.25.012.1.024.2.039.295a2.758,2.758,0,0,0,.045.276c.014.087.025.173.047.26s.038.2.057.3c.018.074.034.148.054.224.025.1.054.211.078.314.018.058.036.125.054.186.032.116.067.224.1.334.015.048.025.09.043.134.044.128.09.253.134.379l5.312,13.9a15.534,15.534,0,0,1,0,9.905Z" transform="translate(-78.641 -47.81)" fill="#19d7aa"/>
    <path id="Path_16423" data-name="Path 16423" d="M208.477,173.947c-.043.128-.09.256-.137.381-.012.042-.027.089-.041.132-.036.109-.069.221-.1.337-.021.061-.037.125-.054.186-.03.106-.054.211-.081.314-.017.074-.037.154-.054.228-.019.1-.039.192-.058.295-.019.083-.033.173-.047.26s-.031.18-.043.273-.027.2-.038.3c-.013.08-.022.167-.032.253-.012.116-.017.237-.027.353,0,.07-.01.134-.014.2-.007.189-.014.379-.014.565a11.523,11.523,0,0,0,.239,2.334,11.265,11.265,0,0,0,.282,1.109,11.578,11.578,0,0,0,21.485,1.577,11.64,11.64,0,0,0,.622-1.577c.11-.359.205-.731.286-1.109a11.772,11.772,0,0,0,.231-2.334c0-.186,0-.375-.011-.565,0-.07-.008-.134-.014-.2-.01-.116-.016-.238-.027-.353-.01-.086-.018-.167-.029-.25-.011-.1-.023-.2-.041-.3s-.027-.182-.043-.266-.027-.18-.044-.263c-.019-.1-.038-.2-.061-.295-.019-.074-.036-.154-.052-.228-.027-.1-.053-.208-.08-.314-.017-.061-.039-.125-.058-.186-.032-.116-.063-.228-.1-.337-.014-.042-.032-.089-.046-.135-.04-.125-.084-.25-.135-.378h.007l-5.313-13.9a15.542,15.542,0,0,1,0-9.911l5.313-13.9h-.007c.051-.125.1-.25.135-.375.014-.049.032-.094.046-.138.036-.112.068-.221.1-.333.019-.061.041-.129.058-.186.027-.106.053-.211.08-.314.016-.077.033-.154.052-.228.023-.1.043-.2.061-.295s.03-.173.044-.263.034-.176.043-.273.03-.2.041-.3.019-.166.029-.253c.012-.116.018-.238.027-.353.006-.071.011-.135.014-.205.006-.183.011-.375.011-.568a11.793,11.793,0,0,0-.231-2.33c-.081-.375-.176-.75-.286-1.11a11.42,11.42,0,0,0-.622-1.574,11.576,11.576,0,0,0-20.861,0,11.254,11.254,0,0,0-.624,1.574c-.109.359-.208.735-.282,1.11a11.543,11.543,0,0,0-.239,2.33c0,.193.008.385.014.568,0,.07.012.134.014.205.01.115.014.237.027.353.01.087.019.169.032.253s.022.2.038.3.024.186.043.273.028.176.047.263.039.195.058.295c.017.074.037.151.054.228.027.1.052.208.081.314.017.057.032.125.054.186.032.112.064.221.1.333.014.045.029.089.041.132.047.131.094.257.137.381l5.311,13.9a15.564,15.564,0,0,1,0,9.911Z" transform="translate(-64.725 -37.574)" fill="#19d7aa"/>
    <path id="Path_16424" data-name="Path 16424" d="M333.115,206.8c-.047.122-.089.25-.132.375-.014.045-.031.087-.047.132-.033.109-.064.221-.1.336-.021.061-.039.122-.056.189-.029.1-.054.209-.081.314-.016.071-.035.148-.052.222-.023.1-.042.2-.058.3-.019.083-.034.173-.047.26s-.035.176-.046.273-.026.2-.039.3c-.01.083-.02.163-.03.25-.01.116-.016.237-.026.352-.006.071-.011.138-.014.205-.009.189-.014.375-.014.565a11.559,11.559,0,0,0,.235,2.333c.078.378.175.75.286,1.112a11.576,11.576,0,0,0,22.1,0c.11-.362.209-.735.285-1.112a11.71,11.71,0,0,0,.236-2.333c0-.189,0-.375-.013-.565,0-.067-.01-.134-.016-.205-.008-.116-.016-.237-.028-.352a2.116,2.116,0,0,0-.03-.246c-.01-.1-.021-.2-.035-.3s-.03-.183-.044-.273-.031-.176-.05-.26c-.017-.1-.037-.2-.059-.3-.016-.074-.036-.151-.052-.222-.03-.105-.054-.211-.08-.314-.018-.067-.036-.128-.054-.189-.036-.115-.068-.227-.1-.336-.015-.045-.032-.09-.047-.135-.04-.125-.087-.25-.132-.372h0L349.469,192.9a15.55,15.55,0,0,1,0-9.905l5.315-13.9h0c.045-.125.092-.251.132-.375.014-.048.032-.089.047-.138.034-.109.067-.218.1-.334.019-.061.036-.128.054-.186.025-.1.05-.211.08-.314.016-.076.035-.151.052-.224.021-.1.041-.2.059-.3s.036-.173.05-.26.031-.182.044-.276.025-.195.035-.295a2.379,2.379,0,0,0,.03-.25c.012-.119.019-.24.028-.356.006-.067.012-.134.016-.205.008-.182.013-.372.013-.564a11.764,11.764,0,0,0-.236-2.334c-.076-.375-.175-.747-.285-1.109a11.185,11.185,0,0,0-.622-1.574,11.577,11.577,0,0,0-20.86,0,11.26,11.26,0,0,0-.622,1.574c-.11.362-.208.734-.286,1.109a11.611,11.611,0,0,0-.235,2.334c0,.191.005.381.014.564,0,.071.008.138.014.205.01.116.016.237.026.356.01.083.019.167.03.25.013.1.025.2.039.295s.029.187.046.276.028.173.047.26.035.2.058.3c.017.074.036.148.052.224.026.1.052.211.081.314.018.058.035.125.056.186.033.116.064.224.1.334.016.048.032.09.047.134.043.128.085.253.132.379l5.311,13.9a15.512,15.512,0,0,1,0,9.905Z" transform="translate(-103.561 -47.81)" fill="#19d7aa"/>
    <path id="Path_16425" data-name="Path 16425" d="M22.429,285.214c.045-.125.092-.247.133-.372.013-.051.031-.093.047-.138.035-.112.07-.228.1-.337.019-.061.036-.128.054-.189.027-.1.054-.205.078-.31.017-.078.037-.154.053-.228.021-.1.041-.2.059-.295s.036-.17.049-.26.03-.182.043-.272.025-.2.039-.3c.013-.083.02-.167.027-.251.014-.118.019-.237.029-.355,0-.068.013-.132.014-.205.008-.183.014-.376.014-.568a11.89,11.89,0,0,0-.234-2.33c-.078-.375-.176-.747-.288-1.106a11.166,11.166,0,0,0-.62-1.577,11.575,11.575,0,0,0-20.859,0A10.852,10.852,0,0,0,.547,277.7c-.112.359-.209.73-.287,1.106a11.721,11.721,0,0,0-.175,1.168c2.032,4.455,5.352,8.53,9.093,10.688l9.155,5.281,4.1-10.728Z" transform="translate(-0.026 -83.991)" fill="#19d7aa"/>
    <path id="Path_16426" data-name="Path 16426" d="M63.548,299.165a11.566,11.566,0,0,0,.622-1.574c.111-.366.21-.734.286-1.112a11.792,11.792,0,0,0,.235-2.331c0-.191,0-.378-.013-.57,0-.067-.01-.131-.013-.2-.01-.121-.017-.237-.03-.359-.008-.084-.019-.164-.03-.244-.012-.1-.024-.2-.037-.3s-.029-.186-.043-.275-.031-.173-.047-.26-.039-.2-.061-.3c-.016-.074-.033-.147-.053-.227-.025-.1-.054-.209-.08-.308-.017-.065-.035-.129-.054-.19-.035-.112-.065-.227-.1-.336-.013-.048-.03-.09-.045-.135-.041-.125-.087-.253-.134-.378h0l-5.315-13.9a15.583,15.583,0,0,1,0-9.911l5.315-13.9h0c.046-.125.092-.253.134-.375.015-.047.032-.09.045-.135.036-.115.066-.227.1-.336.019-.067.037-.129.054-.193.025-.1.054-.208.08-.308.02-.076.037-.151.053-.233s.041-.193.061-.289.032-.173.047-.262.032-.18.043-.27.025-.2.037-.3c.011-.077.022-.161.03-.244.013-.118.02-.237.03-.356,0-.067.01-.132.013-.2.008-.189.013-.381.013-.571a11.781,11.781,0,0,0-.235-2.33c-.076-.378-.175-.747-.286-1.109a11.211,11.211,0,0,0-.622-1.574,11.574,11.574,0,0,0-20.861,0,11.377,11.377,0,0,0-.62,1.574q-.167.543-.286,1.109a11.73,11.73,0,0,0-.235,2.33c0,.189.008.381.017.571,0,.07.008.134.015.2.008.119.014.237.025.356.01.083.018.167.029.247.012.1.023.2.039.3s.027.182.044.273.029.176.045.262.039.2.061.289.035.157.053.233c.025.1.053.206.081.308a1.92,1.92,0,0,0,.056.193c.03.109.063.224.1.336.017.045.03.087.045.132.045.125.087.253.133.378l5.311,13.9a15.545,15.545,0,0,1,0,9.911l-5.311,13.9c-.046.125-.088.253-.133.381-.014.042-.028.084-.045.132-.035.109-.067.224-.1.336a1.473,1.473,0,0,0-.056.19c-.028.1-.055.208-.081.308-.018.08-.035.154-.053.227-.01.045-.019.092-.029.139l19.031,10.977a11.567,11.567,0,0,0,2.725-3.6" transform="translate(-12.944 -73.754)" fill="#19d7aa"/>
    <path id="Path_16427" data-name="Path 16427" d="M106,329.331a11.894,11.894,0,0,0,.237-2.334c0-.189,0-.375-.012-.567-.006-.064-.013-.128-.019-.2-.008-.122-.013-.237-.027-.355-.008-.087-.017-.164-.029-.247-.012-.1-.021-.2-.037-.3s-.029-.186-.043-.273-.029-.176-.049-.263-.037-.192-.057-.288c-.017-.081-.035-.154-.054-.231l-.078-.31c-.019-.064-.038-.125-.056-.189-.032-.112-.067-.224-.1-.336-.017-.045-.033-.09-.048-.135-.043-.125-.085-.251-.132-.375h0l-5.315-13.9a15.563,15.563,0,0,1,0-9.911l5.315-13.9h0c.047-.125.089-.247.132-.372.014-.051.031-.093.048-.138.032-.112.067-.227.1-.337.019-.061.038-.128.056-.189.025-.1.052-.205.078-.31.019-.078.037-.154.054-.228.02-.1.04-.2.057-.295s.034-.17.049-.26.031-.182.043-.272.025-.2.037-.3c.012-.083.021-.167.029-.251.014-.118.019-.237.027-.355.006-.068.013-.132.019-.205.008-.183.012-.375.012-.568a11.891,11.891,0,0,0-.237-2.33,10.011,10.011,0,0,0-.287-1.106,10.473,10.473,0,0,0-.622-1.577,11.573,11.573,0,0,0-20.858,0,11.181,11.181,0,0,0-.624,1.577c-.11.359-.207.73-.285,1.106a11.733,11.733,0,0,0-.234,2.33c0,.193,0,.385.012.568,0,.074.012.138.018.205.01.118.014.237.025.355.008.084.018.167.03.251.01.1.021.195.036.295s.031.186.047.275.028.177.047.26.036.2.058.295c.017.074.036.15.056.228.025.105.052.208.077.31.018.061.036.129.058.189.032.109.063.224.1.337.013.045.031.087.044.135.046.125.089.249.133.375l5.313,13.9a15.564,15.564,0,0,1,0,9.911l-4.022,10.523,20.277,11.7c.106-.267.231-.525.315-.8a10.135,10.135,0,0,0,.287-1.112" transform="translate(-25.89 -83.991)" fill="#19d7aa"/>
    <path id="Path_16428" data-name="Path 16428" d="M147.224,251.853c.036-.115.067-.227.1-.337.021-.067.04-.128.056-.192.028-.1.052-.208.079-.308.019-.077.036-.151.052-.234s.04-.193.06-.288.033-.173.046-.262.032-.18.047-.27.027-.2.039-.3c.01-.077.019-.16.027-.244.013-.118.017-.237.028-.356.008-.067.011-.132.014-.2.007-.189.017-.381.017-.571a11.629,11.629,0,0,0-.238-2.33,10.765,10.765,0,0,0-.285-1.109,11.162,11.162,0,0,0-.62-1.574,11.574,11.574,0,0,0-20.861,0,11.431,11.431,0,0,0-.623,1.574,11.126,11.126,0,0,0-.283,1.109,11.529,11.529,0,0,0-.239,2.33c0,.189.007.381.016.571,0,.07.008.134.014.2.01.118.017.238.028.356.009.083.018.167.029.246.011.1.023.2.039.3s.025.183.043.273.03.176.05.262.036.2.056.288.035.157.055.234c.027.1.052.205.078.308.017.064.033.125.057.192.032.109.064.224.1.337.013.045.028.087.041.131.045.125.088.253.131.378l5.315,13.9a15.572,15.572,0,0,1,0,9.911l-5.315,13.9c-.043.125-.086.253-.131.381-.014.041-.028.083-.041.131-.037.109-.069.225-.1.337a1.729,1.729,0,0,0-.057.19c-.026.1-.052.208-.078.307-.02.081-.036.154-.055.228-.019.1-.039.2-.056.295s-.034.176-.05.26-.033.183-.043.279-.028.193-.039.3c-.011.08-.02.163-.029.246-.011.122-.018.238-.028.359-.006.067-.013.131-.014.2-.009.193-.016.379-.016.571a11.528,11.528,0,0,0,.239,2.33,11.386,11.386,0,0,0,.283,1.112,11.783,11.783,0,0,0,.623,1.574,11.575,11.575,0,0,0,21.481-1.574,11.011,11.011,0,0,0,.285-1.112,11.628,11.628,0,0,0,.238-2.33c0-.192-.01-.378-.017-.571,0-.067-.006-.131-.014-.2-.01-.122-.014-.238-.028-.359-.008-.083-.017-.163-.027-.243-.012-.1-.024-.2-.039-.3s-.03-.187-.047-.276-.03-.173-.046-.26-.039-.2-.06-.295c-.016-.074-.033-.147-.052-.228-.028-.1-.052-.209-.079-.307-.016-.065-.035-.129-.056-.19-.034-.112-.064-.227-.1-.337-.014-.048-.03-.09-.048-.134-.041-.125-.084-.253-.132-.378h0l-5.312-13.9a15.54,15.54,0,0,1,0-9.911l5.312-13.9h0c.048-.125.091-.253.132-.375.017-.048.033-.09.048-.135" transform="translate(-38.835 -73.755)" fill="#19d7aa"/>
    <path id="Path_16429" data-name="Path 16429" d="M188.771,284.7c.037-.112.068-.228.1-.337.021-.061.036-.128.058-.189.024-.1.051-.205.077-.31.019-.078.037-.154.054-.228.02-.1.043-.2.059-.295s.033-.17.048-.26.03-.182.045-.272.025-.2.037-.3c.012-.083.021-.167.028-.251.012-.118.017-.237.026-.355,0-.068.012-.132.015-.206.012-.182.017-.375.017-.567a11.685,11.685,0,0,0-.237-2.33c-.079-.375-.172-.747-.284-1.106a11.342,11.342,0,0,0-.622-1.577,11.575,11.575,0,0,0-20.859,0,10.469,10.469,0,0,0-.622,1.577,10.166,10.166,0,0,0-.288,1.106,11.582,11.582,0,0,0-.237,2.33c0,.192.007.385.014.567,0,.074.008.138.016.206.01.118.017.237.028.355.008.084.016.167.028.251.014.1.024.195.037.295s.029.186.044.275.029.176.05.26.039.2.057.295c.017.074.036.15.055.228.023.105.053.208.078.31.018.061.032.129.054.189.032.109.065.224.1.337.014.045.028.087.043.134.047.125.089.25.132.375l5.313,13.9a15.566,15.566,0,0,1,0,9.912l-5.313,13.9c-.043.125-.085.254-.132.375-.014.045-.029.09-.043.135q-.054.168-.1.337c-.023.064-.036.125-.054.189-.025.1-.055.208-.078.31-.019.077-.039.151-.055.231-.019.1-.041.193-.057.288s-.036.177-.05.26-.032.182-.044.279-.023.2-.037.295c-.012.083-.021.164-.028.251-.012.118-.019.233-.028.355-.008.071-.013.134-.016.2-.008.192-.014.378-.014.567a11.587,11.587,0,0,0,.237,2.334,10.277,10.277,0,0,0,.288,1.112,10.86,10.86,0,0,0,.622,1.577,11.577,11.577,0,0,0,20.859,0,11.8,11.8,0,0,0,.622-1.577c.112-.365.205-.73.284-1.112a11.689,11.689,0,0,0,.237-2.334c0-.189-.006-.375-.017-.567,0-.065-.01-.128-.015-.2-.009-.122-.014-.237-.026-.355-.008-.087-.016-.164-.028-.248-.012-.1-.023-.2-.037-.3s-.032-.186-.045-.273-.031-.176-.048-.263-.039-.192-.059-.288c-.017-.08-.034-.154-.054-.231-.026-.1-.053-.208-.077-.31-.022-.064-.037-.125-.058-.189-.032-.112-.064-.224-.1-.337-.014-.045-.032-.09-.045-.135-.045-.125-.088-.25-.136-.375h.006l-5.312-13.9a15.555,15.555,0,0,1,0-9.912l5.312-13.9h-.006c.048-.125.091-.247.136-.372.013-.051.03-.093.045-.138" transform="translate(-51.78 -83.991)" fill="#19d7aa"/>
    <path id="Path_16430" data-name="Path 16430" d="M266.375,299.112l5.311-13.9h0c.049-.125.1-.246.136-.372a1.135,1.135,0,0,1,.048-.137c.034-.113.067-.228.1-.337.021-.061.035-.127.058-.189.024-.1.051-.206.079-.311.016-.077.035-.154.051-.228.021-.1.043-.2.061-.295s.032-.17.046-.259.03-.183.044-.273.027-.2.037-.3c.013-.083.023-.167.03-.25.013-.118.017-.238.028-.356.006-.067.012-.131.016-.205.008-.183.014-.375.014-.567a11.882,11.882,0,0,0-.234-2.33,11.879,11.879,0,0,0-.909-2.683,11.579,11.579,0,0,0-20.865,0,11.419,11.419,0,0,0-.618,1.577c-.112.358-.207.73-.286,1.106a11.679,11.679,0,0,0-.234,2.33c0,.192,0,.384.014.567,0,.074.008.138.013.205.01.118.016.238.027.356.009.083.018.167.028.25.012.1.027.2.04.295s.027.186.043.276.029.176.046.259.039.2.061.295c.016.074.036.151.054.228.024.105.051.208.078.311.02.061.036.128.054.189.032.109.066.224.1.337.014.044.028.086.045.134.044.125.085.25.131.375l5.312,13.9a15.558,15.558,0,0,1,0,9.911l-5.312,13.9c-.045.125-.087.253-.131.375-.017.045-.031.09-.045.135q-.053.167-.1.336c-.019.064-.034.125-.054.189-.028.1-.054.209-.078.311-.019.077-.039.151-.054.231-.023.1-.041.192-.061.288s-.032.176-.046.26-.032.182-.043.279-.028.2-.04.3c-.01.083-.019.163-.028.25-.011.118-.017.234-.027.356,0,.07-.011.134-.013.2-.01.193-.014.379-.014.567a11.688,11.688,0,0,0,.234,2.334c.078.382.174.747.286,1.112.047.153.12.295.175.445l20.274-11.718-3.876-10.147a15.563,15.563,0,0,1,0-9.911" transform="translate(-77.67 -83.991)" fill="#19d7aa"/>
    <path id="Path_16431" data-name="Path 16431" d="M313.511,290.921c-.029-.112-.064-.227-.1-.337-.013-.048-.03-.089-.045-.134-.041-.125-.085-.253-.132-.378h0l-5.315-13.9a15.55,15.55,0,0,1,0-9.911l5.315-13.9h0c.047-.125.092-.253.132-.375.014-.048.032-.09.045-.135.039-.115.074-.227.1-.336.017-.068.039-.129.056-.193.024-.1.055-.208.078-.308.019-.077.035-.151.053-.234s.043-.193.059-.288.032-.173.048-.262.03-.18.042-.27.028-.2.04-.3c.011-.077.019-.16.03-.244.012-.118.019-.237.028-.356,0-.067.01-.132.013-.2.009-.189.014-.381.014-.571a11.83,11.83,0,0,0-.234-2.33c-.077-.378-.176-.747-.286-1.109a11.7,11.7,0,0,0-.622-1.574,11.583,11.583,0,0,0-21.484,1.574c-.109.362-.207.731-.284,1.109a11.68,11.68,0,0,0-.236,2.33c0,.189.008.381.017.571,0,.07.007.134.014.2.008.119.013.238.024.356.009.083.019.167.029.247.014.1.026.2.041.3s.024.182.043.273.028.176.045.262.04.2.059.288.039.157.055.234c.028.1.051.205.08.308.018.064.034.125.054.193.03.109.064.224.1.336.016.045.03.087.045.131.043.125.088.253.134.379l5.311,13.9a15.572,15.572,0,0,1,0,9.911l-5.311,13.9c-.045.125-.09.253-.134.381-.014.042-.029.083-.045.131-.037.109-.071.225-.1.337-.02.061-.036.125-.054.19-.029.1-.052.208-.08.307-.017.081-.034.154-.055.228-.019.1-.039.2-.059.295s-.03.177-.045.26-.032.183-.043.28-.027.192-.041.295c-.01.08-.02.163-.029.246-.011.122-.017.238-.024.359-.007.067-.012.131-.014.2-.009.192-.017.378-.017.57a11.68,11.68,0,0,0,.236,2.33c.077.379.175.747.284,1.112a11.837,11.837,0,0,0,.623,1.574,11.549,11.549,0,0,0,2.422,3.3l19.235-11.117c-.021-.078-.042-.16-.061-.235s-.039-.129-.056-.19" transform="translate(-90.615 -73.755)" fill="#19d7aa"/>
    <path id="Path_16432" data-name="Path 16432" d="M354.378,276.123a11.575,11.575,0,0,0-20.86,0,11.086,11.086,0,0,0-.622,1.577c-.11.359-.208.73-.286,1.106a11.582,11.582,0,0,0-.235,2.33c0,.192.006.385.014.567,0,.074.008.138.014.206.01.118.017.237.026.355.01.084.019.167.03.25.013.1.025.2.039.3s.028.186.045.275.028.176.047.26.036.2.058.294c.018.074.036.151.052.229.026.105.052.208.081.31.017.061.034.129.056.189.034.109.064.224.1.337.016.045.032.086.046.134.043.125.085.25.132.375l3.941,10.312,8.591-4.965c4.078-2.356,7.651-6.988,9.6-11.91-.07-.322-.15-.642-.245-.95a10.935,10.935,0,0,0-.622-1.577" transform="translate(-103.561 -83.991)" fill="#19d7aa"/>
    <path id="Path_16433" data-name="Path 16433" d="M147.266,368.491c.048-.125.091-.25.132-.378.017-.045.033-.09.047-.132.036-.112.067-.224.1-.337.021-.064.04-.128.056-.193.028-.1.052-.205.079-.31.019-.074.036-.151.052-.228.021-.1.04-.192.06-.292s.033-.173.046-.263.032-.179.047-.272.027-.2.039-.3c.01-.083.019-.164.027-.247.013-.118.017-.237.028-.356.008-.07.011-.134.014-.2.007-.186.017-.379.017-.565a11.616,11.616,0,0,0-.238-2.334,10.817,10.817,0,0,0-.285-1.109,11.328,11.328,0,0,0-.62-1.577,11.581,11.581,0,0,0-21.484,1.577c-.012.042-.02.087-.032.129L145.626,372.8l1.645-4.305Z" transform="translate(-39.056 -109.938)" fill="#19d7aa"/>
    <path id="Path_16434" data-name="Path 16434" d="M219.309,352.845a11.592,11.592,0,0,0-11.054,8.129c-.108.363-.208.731-.282,1.11a11.51,11.51,0,0,0-.239,2.333c0,.186.008.379.014.565,0,.07.012.134.014.205.01.118.014.237.027.355.01.084.02.164.033.247.01.1.021.2.037.3s.024.186.043.272.028.177.047.264.039.192.058.291c.017.077.037.154.054.228.027.106.052.208.081.31.017.065.032.129.054.193q.046.168.1.337c.014.042.03.086.042.128.047.132.093.257.136.381l1.517,3.97,20.278-11.718a11.964,11.964,0,0,0-.531-1.346,11.586,11.586,0,0,0-10.431-6.552" transform="translate(-64.725 -109.938)" fill="#19d7aa"/>
  </g>
</svg>
