<svg xmlns="http://www.w3.org/2000/svg" xmlns:xlink="http://www.w3.org/1999/xlink" width="484.182" height="107.194" viewBox="0 0 484.182 107.194">
  <defs>
    <clipPath id="clip-path">
      <rect id="Rectangle_11311" data-name="Rectangle 11311" width="484.182" height="107.194" fill="rgba(0,0,0,0)"/>
    </clipPath>
  </defs>
  <g id="logo-dahdos-rodape" transform="translate(0)">
    <g id="Group_11127" data-name="Group 11127" transform="translate(0)" clip-path="url(#clip-path)">
      <path id="Path_18291" data-name="Path 18291" d="M487.968,186.279v10.649c0,.862,0,1.74.018,2.6H486.7a12.257,12.257,0,0,1-.071-1.441c-.422.773-1.23,1.687-3.339,1.687-2.583,0-4.27-1.933-4.27-4.587a4.517,4.517,0,0,1,4.464-4.745c2.179,0,2.9,1.036,3.145,1.494v-5.658ZM483.5,198.615c2.3,0,3.2-1.476,3.2-3.55s-.7-3.462-3.111-3.462c-2.162,0-3.2,1.775-3.2,3.55a3.2,3.2,0,0,0,3.111,3.462" transform="translate(-302.363 -117.581)" fill="#f0f4e8"/>
      <path id="Path_18292" data-name="Path 18292" d="M517.609,204.547c0,.791.052,1.9.088,2.109h-1.266a9.619,9.619,0,0,1-.106-1.388c-.475.966-1.458,1.634-3.391,1.634-2.53,0-3.427-1.529-3.427-2.829,0-2.25,2.056-2.865,4.552-2.865h2.25v-.527c0-1.037-.44-2.038-2.5-2.038-1.845,0-2.284.826-2.477,1.74h-1.318c.105-1.2.9-2.812,3.8-2.812,3.041,0,3.8,1.494,3.8,2.952Zm-1.3-2.337h-2.215c-2.2,0-3.269.475-3.269,1.793,0,.966.7,1.792,2.3,1.792,2.583,0,3.181-1.564,3.181-3.128Z" transform="translate(-321.606 -124.708)" fill="#f0f4e8"/>
      <path id="Path_18293" data-name="Path 18293" d="M535.515,193.246h1.81v-2.917h1.318v2.917h2.389v1.089h-2.389V199.5c0,1.09.3,1.582,1.283,1.582a4.018,4.018,0,0,0,.914-.088v1.019a3.573,3.573,0,0,1-1.248.158c-1.739,0-2.266-.791-2.266-2.53v-5.307h-1.81Z" transform="translate(-338.021 -120.137)" fill="#f0f4e8"/>
      <path id="Path_18294" data-name="Path 18294" d="M562.1,204.547c0,.791.052,1.9.088,2.109h-1.266a9.628,9.628,0,0,1-.105-1.388c-.474.966-1.458,1.634-3.391,1.634-2.531,0-3.427-1.529-3.427-2.829,0-2.25,2.056-2.865,4.552-2.865H560.8v-.527c0-1.037-.44-2.038-2.5-2.038-1.845,0-2.284.826-2.477,1.74h-1.318c.105-1.2.9-2.812,3.8-2.812,3.041,0,3.8,1.494,3.8,2.952Zm-1.3-2.337h-2.214c-2.2,0-3.269.475-3.269,1.793,0,.966.7,1.792,2.3,1.792,2.583,0,3.181-1.564,3.181-3.128Z" transform="translate(-349.687 -124.708)" fill="#f0f4e8"/>
      <path id="Path_18295" data-name="Path 18295" d="M604.732,204.547c0,.791.052,1.9.088,2.109h-1.266a9.628,9.628,0,0,1-.105-1.388c-.474.966-1.458,1.634-3.391,1.634-2.531,0-3.427-1.529-3.427-2.829,0-2.25,2.056-2.865,4.552-2.865h2.249v-.527c0-1.037-.44-2.038-2.5-2.038-1.845,0-2.284.826-2.477,1.74H597.14c.106-1.2.9-2.812,3.8-2.812,3.041,0,3.8,1.494,3.8,2.952Zm-1.3-2.337h-2.215c-2.2,0-3.269.475-3.269,1.793,0,.966.7,1.792,2.3,1.792,2.583,0,3.181-1.564,3.181-3.128Z" transform="translate(-376.598 -124.708)" fill="#f0f4e8"/>
      <path id="Path_18296" data-name="Path 18296" d="M626.9,200.049c0-.756,0-1.564-.018-2.232h1.3c.035.316.052,1.107.052,1.775a3.317,3.317,0,0,1,3.286-2.021c2.038,0,3.41,1.265,3.41,3.726v5.36h-1.336v-5.1c0-1.6-.615-2.829-2.373-2.829-1.986,0-2.987,1.564-2.987,3.743v4.182H626.9Z" transform="translate(-395.691 -124.708)" fill="#f0f4e8"/>
      <path id="Path_18297" data-name="Path 18297" d="M663.786,186.279v10.649c0,.862,0,1.74.018,2.6h-1.283a12.285,12.285,0,0,1-.071-1.441c-.422.773-1.23,1.687-3.339,1.687-2.583,0-4.27-1.933-4.27-4.587a4.517,4.517,0,0,1,4.464-4.745c2.179,0,2.9,1.036,3.146,1.494v-5.658Zm-4.463,12.336c2.3,0,3.2-1.476,3.2-3.55s-.7-3.462-3.111-3.462c-2.162,0-3.2,1.775-3.2,3.55a3.2,3.2,0,0,0,3.111,3.462" transform="translate(-413.341 -117.581)" fill="#f0f4e8"/>
      <path id="Path_18298" data-name="Path 18298" d="M702.762,186.278v6.133a3.359,3.359,0,0,1,3.356-1.968c1.986,0,3.322,1.23,3.322,3.743v5.342h-1.318v-5.114c0-1.6-.616-2.812-2.373-2.812-2.038,0-2.987,1.652-2.987,3.55v4.376h-1.336v-13.25Z" transform="translate(-442.746 -117.58)" fill="#f0f4e8"/>
      <path id="Path_18299" data-name="Path 18299" d="M739.231,204.495c0,.861,0,1.722.018,2.583h-1.266a15.8,15.8,0,0,1-.07-1.634c-.439,1.09-1.283,1.88-3.233,1.88-1.88,0-3.339-1-3.339-3.585v-5.5h1.336v5.255c0,1.37.545,2.653,2.267,2.653,2.056,0,2.97-1.195,2.97-3.936v-3.972h1.318Z" transform="translate(-461.628 -125.13)" fill="#f0f4e8"/>
      <path id="Path_18300" data-name="Path 18300" d="M760.748,200.1c0-.773,0-1.529-.018-2.284h1.3a11.738,11.738,0,0,1,.035,1.406,3.182,3.182,0,0,1,2.917-1.652,2.7,2.7,0,0,1,2.724,1.757,3.316,3.316,0,0,1,3.058-1.757c1.705,0,3.111.984,3.111,3.585v5.5h-1.318v-5.448c0-1.107-.351-2.478-2.038-2.478-1.529,0-2.531,1.055-2.531,3.093v4.833h-1.336v-5.536c0-1.107-.369-2.39-2.056-2.39-1.827,0-2.513,1.441-2.513,3.251v4.674h-1.336Z" transform="translate(-480.179 -124.708)" fill="#f0f4e8"/>
      <path id="Path_18301" data-name="Path 18301" d="M810.467,204.547c0,.791.052,1.9.088,2.109h-1.266a9.636,9.636,0,0,1-.105-1.388c-.474.966-1.458,1.634-3.391,1.634-2.531,0-3.427-1.529-3.427-2.829,0-2.25,2.056-2.865,4.552-2.865h2.249v-.527c0-1.037-.44-2.038-2.5-2.038-1.845,0-2.284.826-2.477,1.74h-1.318c.105-1.2.9-2.812,3.8-2.812,3.041,0,3.8,1.494,3.8,2.952Zm-1.3-2.337h-2.215c-2.2,0-3.269.475-3.269,1.793,0,.966.7,1.792,2.3,1.792,2.583,0,3.181-1.564,3.181-3.128Z" transform="translate(-506.459 -124.708)" fill="#f0f4e8"/>
      <path id="Path_18302" data-name="Path 18302" d="M832.629,200.049c0-.756,0-1.564-.018-2.232h1.3c.035.316.052,1.107.052,1.775a3.317,3.317,0,0,1,3.286-2.021c2.038,0,3.41,1.265,3.41,3.726v5.36h-1.336v-5.1c0-1.6-.615-2.829-2.373-2.829-1.986,0-2.987,1.564-2.987,3.743v4.182h-1.336Z" transform="translate(-525.551 -124.708)" fill="#f0f4e8"/>
      <path id="Path_18303" data-name="Path 18303" d="M883.856,186.279v10.649c0,.862,0,1.74.018,2.6h-1.283a12.271,12.271,0,0,1-.071-1.441c-.422.773-1.23,1.687-3.339,1.687-2.583,0-4.27-1.933-4.27-4.587a4.517,4.517,0,0,1,4.464-4.745c2.179,0,2.9,1.036,3.146,1.494v-5.658Zm-4.463,12.336c2.3,0,3.2-1.476,3.2-3.55s-.7-3.462-3.111-3.462c-2.161,0-3.2,1.775-3.2,3.55a3.2,3.2,0,0,0,3.111,3.462" transform="translate(-552.251 -117.581)" fill="#f0f4e8"/>
      <path id="Path_18304" data-name="Path 18304" d="M906.637,202.545a3.194,3.194,0,0,0,3.286,3.233,2.921,2.921,0,0,0,2.829-1.581h1.336a4.21,4.21,0,0,1-4.271,2.706,4.669,4.669,0,0,1-.052-9.332c3.321,0,4.446,2.478,4.446,4.6v.369Zm6.169-1.037a2.818,2.818,0,0,0-3.058-2.847,2.914,2.914,0,0,0-3.075,2.847Z" transform="translate(-571.434 -124.708)" fill="#f0f4e8"/>
      <path id="Path_18305" data-name="Path 18305" d="M933.625,198.239c.685,1.634,2.952,6.66,3.286,7.574h.017c.211-.65.809-2.091,3.216-7.574h1.37l-3.937,8.839h-1.423l-3.99-8.839Z" transform="translate(-588.391 -125.13)" fill="#f0f4e8"/>
      <path id="Path_18306" data-name="Path 18306" d="M961.323,202.545a3.194,3.194,0,0,0,3.286,3.233,2.921,2.921,0,0,0,2.829-1.581h1.336A4.211,4.211,0,0,1,964.5,206.9a4.669,4.669,0,0,1-.052-9.332c3.321,0,4.446,2.478,4.446,4.6v.369Zm6.169-1.037a2.818,2.818,0,0,0-3.058-2.847,2.914,2.914,0,0,0-3.075,2.847Z" transform="translate(-605.952 -124.708)" fill="#f0f4e8"/>
      <rect id="Rectangle_11310" data-name="Rectangle 11310" width="1.336" height="13.25" transform="translate(365.156 68.698)" fill="#f0f4e8"/>
      <path id="Path_18307" data-name="Path 18307" d="M1009.113,202.228a4.6,4.6,0,1,1-9.208.017,4.6,4.6,0,1,1,9.208-.017m-7.855.017a3.312,3.312,0,0,0,3.251,3.515c2.179,0,3.234-1.616,3.234-3.5a3.279,3.279,0,0,0-3.269-3.55c-2.161,0-3.216,1.634-3.216,3.532" transform="translate(-631.148 -124.708)" fill="#f0f4e8"/>
      <path id="Path_18308" data-name="Path 18308" d="M1031.027,210.575V200.031c0-.738,0-1.476-.018-2.214h1.283c.034.281.052.878.052,1.634a3.694,3.694,0,0,1,3.5-1.88,4.21,4.21,0,0,1,4.112,4.516c0,2.829-1.933,4.815-4.359,4.815a3.353,3.353,0,0,1-3.251-1.687v5.36Zm4.447-11.844c-2.179,0-3.164,1.581-3.164,3.55,0,1.951,1.037,3.445,3.128,3.445,2.109,0,3.145-1.74,3.145-3.585a3.135,3.135,0,0,0-3.11-3.409" transform="translate(-650.781 -124.708)" fill="#f0f4e8"/>
      <path id="Path_18309" data-name="Path 18309" d="M1061.37,200.1c0-.773,0-1.529-.018-2.284h1.3a11.81,11.81,0,0,1,.034,1.406,3.182,3.182,0,0,1,2.917-1.652,2.7,2.7,0,0,1,2.724,1.757,3.315,3.315,0,0,1,3.057-1.757c1.705,0,3.111.984,3.111,3.585v5.5h-1.318v-5.448c0-1.107-.352-2.478-2.039-2.478-1.529,0-2.531,1.055-2.531,3.093v4.833h-1.336v-5.536c0-1.107-.369-2.39-2.056-2.39-1.827,0-2.513,1.441-2.513,3.251v4.674h-1.336Z" transform="translate(-669.934 -124.708)" fill="#f0f4e8"/>
      <path id="Path_18310" data-name="Path 18310" d="M1104.512,202.545a3.194,3.194,0,0,0,3.286,3.233,2.921,2.921,0,0,0,2.829-1.581h1.335a4.21,4.21,0,0,1-4.271,2.706,4.669,4.669,0,0,1-.053-9.332c3.321,0,4.445,2.478,4.445,4.6v.369Zm6.169-1.037a2.818,2.818,0,0,0-3.059-2.847,2.914,2.914,0,0,0-3.075,2.847Z" transform="translate(-696.334 -124.708)" fill="#f0f4e8"/>
      <path id="Path_18311" data-name="Path 18311" d="M1133.488,200.049c0-.756,0-1.564-.018-2.232h1.3c.035.316.052,1.107.052,1.775a3.316,3.316,0,0,1,3.286-2.021c2.038,0,3.41,1.265,3.41,3.726v5.36h-1.336v-5.1c0-1.6-.616-2.829-2.372-2.829-1.986,0-2.987,1.564-2.987,3.743v4.182h-1.336Z" transform="translate(-715.455 -124.708)" fill="#f0f4e8"/>
      <path id="Path_18312" data-name="Path 18312" d="M1159.529,193.246h1.81v-2.917h1.318v2.917h2.39v1.089h-2.39V199.5c0,1.09.3,1.582,1.283,1.582a4.019,4.019,0,0,0,.913-.088v1.019a3.574,3.574,0,0,1-1.248.158c-1.74,0-2.267-.791-2.267-2.53v-5.307h-1.81Z" transform="translate(-731.904 -120.137)" fill="#f0f4e8"/>
      <path id="Path_18313" data-name="Path 18313" d="M488.231,259.392a4.6,4.6,0,1,1-9.208.018,4.6,4.6,0,1,1,9.208-.018m-7.855.018a3.312,3.312,0,0,0,3.251,3.515c2.179,0,3.234-1.616,3.234-3.5a3.279,3.279,0,0,0-3.268-3.55c-2.162,0-3.216,1.634-3.216,3.532" transform="translate(-302.363 -160.791)" fill="#f0f4e8"/>
      <path id="Path_18314" data-name="Path 18314" d="M510.146,257.388c0-.808,0-1.616-.018-2.407h1.283c.017.246.052,1.16.052,2.056a3.8,3.8,0,0,1,3.637-2.3v1.318c-2.056-.035-3.637,1.318-3.637,3.936v3.831h-1.318Z" transform="translate(-321.997 -160.791)" fill="#f0f4e8"/>
      <path id="Path_18315" data-name="Path 18315" d="M528.467,243.442h1.318v1.933h-1.318Zm0,4.411h1.318v8.839h-1.318Z" transform="translate(-333.573 -153.663)" fill="#f0f4e8"/>
      <path id="Path_18316" data-name="Path 18316" d="M539.568,259.709a3.193,3.193,0,0,0,3.286,3.233,2.921,2.921,0,0,0,2.829-1.582h1.336a4.211,4.211,0,0,1-4.271,2.707,4.669,4.669,0,0,1-.052-9.332c3.321,0,4.446,2.478,4.446,4.6v.369Zm6.169-1.037a2.818,2.818,0,0,0-3.058-2.847,2.914,2.914,0,0,0-3.075,2.847Z" transform="translate(-339.737 -160.791)" fill="#f0f4e8"/>
      <path id="Path_18317" data-name="Path 18317" d="M568.545,257.213c0-.756,0-1.564-.018-2.232h1.3c.035.316.052,1.107.052,1.775a3.317,3.317,0,0,1,3.286-2.021c2.038,0,3.409,1.265,3.409,3.726v5.36H575.24v-5.1c0-1.6-.616-2.829-2.373-2.829-1.986,0-2.987,1.564-2.987,3.743v4.183h-1.336Z" transform="translate(-358.859 -160.791)" fill="#f0f4e8"/>
      <path id="Path_18318" data-name="Path 18318" d="M594.585,250.41h1.81v-2.917h1.318v2.917H600.1V251.5h-2.389v5.166c0,1.09.3,1.582,1.283,1.582a4.02,4.02,0,0,0,.913-.088v1.019a3.59,3.59,0,0,1-1.247.158c-1.74,0-2.267-.79-2.267-2.53V251.5h-1.81Z" transform="translate(-375.307 -156.22)" fill="#f0f4e8"/>
      <path id="Path_18319" data-name="Path 18319" d="M613.832,259.709a3.194,3.194,0,0,0,3.286,3.233,2.921,2.921,0,0,0,2.829-1.582h1.336a4.211,4.211,0,0,1-4.271,2.707,4.669,4.669,0,0,1-.052-9.332c3.322,0,4.446,2.478,4.446,4.6v.369ZM620,258.671a2.817,2.817,0,0,0-3.058-2.847,2.914,2.914,0,0,0-3.075,2.847Z" transform="translate(-386.613 -160.791)" fill="#f0f4e8"/>
      <path id="Path_18320" data-name="Path 18320" d="M650.213,243.442v10.649c0,.861,0,1.74.018,2.6h-1.282a12.272,12.272,0,0,1-.071-1.441c-.422.773-1.23,1.687-3.339,1.687-2.583,0-4.27-1.933-4.27-4.587a4.517,4.517,0,0,1,4.464-4.745c2.179,0,2.9,1.037,3.146,1.494v-5.658Zm-4.464,12.336c2.3,0,3.2-1.476,3.2-3.55s-.7-3.462-3.111-3.462c-2.161,0-3.2,1.775-3.2,3.55a3.2,3.2,0,0,0,3.111,3.462" transform="translate(-404.774 -153.663)" fill="#f0f4e8"/>
      <path id="Path_18321" data-name="Path 18321" d="M686.872,261.149c.333,1.178,1.336,1.845,3.041,1.845,1.845,0,2.53-.668,2.53-1.564,0-.808-.457-1.388-2.847-1.652-3.023-.369-3.655-1.406-3.655-2.513,0-1.089.9-2.531,3.637-2.531,3.058,0,3.849,1.617,3.919,2.618h-1.335c-.141-.58-.528-1.546-2.672-1.546-1.81,0-2.2.791-2.2,1.353,0,.738.457,1.178,2.583,1.459,3.251.422,3.919,1.388,3.919,2.724,0,1.582-1.212,2.724-3.954,2.724-2.618,0-4.007-1.107-4.323-2.917Z" transform="translate(-432.705 -160.791)" fill="#f0f4e8"/>
      <path id="Path_18322" data-name="Path 18322" d="M712.432,255.4c1.968,4.481,3.111,7.065,3.392,7.855h.018c.334-.879,1.3-3.48,3.128-7.855h1.406l-3.62,8.628c-1.581,3.761-2.179,4.376-4.165,4.376a7.54,7.54,0,0,1-1.089-.088v-1.23a7.4,7.4,0,0,0,1,.07c1.178,0,1.687-.527,2.6-2.5l-4.147-9.261Z" transform="translate(-448.761 -161.213)" fill="#f0f4e8"/>
      <path id="Path_18323" data-name="Path 18323" d="M740.367,261.149c.334,1.178,1.336,1.845,3.041,1.845,1.845,0,2.53-.668,2.53-1.564,0-.808-.457-1.388-2.847-1.652-3.023-.369-3.655-1.406-3.655-2.513,0-1.089.9-2.531,3.638-2.531,3.058,0,3.849,1.617,3.919,2.618h-1.335c-.141-.58-.528-1.546-2.672-1.546-1.81,0-2.2.791-2.2,1.353,0,.738.457,1.178,2.583,1.459,3.251.422,3.919,1.388,3.919,2.724,0,1.582-1.212,2.724-3.954,2.724-2.618,0-4.007-1.107-4.323-2.917Z" transform="translate(-466.471 -160.791)" fill="#f0f4e8"/>
      <path id="Path_18324" data-name="Path 18324" d="M764.02,250.41h1.81v-2.917h1.318v2.917h2.389V251.5h-2.389v5.166c0,1.09.3,1.582,1.283,1.582a4.018,4.018,0,0,0,.914-.088v1.019a3.592,3.592,0,0,1-1.248.158c-1.739,0-2.266-.79-2.266-2.53V251.5h-1.81Z" transform="translate(-482.256 -156.22)" fill="#f0f4e8"/>
      <path id="Path_18325" data-name="Path 18325" d="M783.267,259.709a3.194,3.194,0,0,0,3.286,3.233,2.921,2.921,0,0,0,2.829-1.582h1.336a4.21,4.21,0,0,1-4.271,2.707,4.669,4.669,0,0,1-.052-9.332c3.321,0,4.446,2.478,4.446,4.6v.369Zm6.169-1.037a2.818,2.818,0,0,0-3.058-2.847,2.914,2.914,0,0,0-3.075,2.847Z" transform="translate(-493.562 -160.791)" fill="#f0f4e8"/>
      <path id="Path_18326" data-name="Path 18326" d="M812.246,257.266c0-.773,0-1.529-.018-2.284h1.3a11.715,11.715,0,0,1,.035,1.406,3.183,3.183,0,0,1,2.917-1.652,2.7,2.7,0,0,1,2.724,1.757,3.316,3.316,0,0,1,3.058-1.757c1.705,0,3.111.984,3.111,3.585v5.5h-1.318v-5.448c0-1.107-.351-2.478-2.038-2.478-1.529,0-2.531,1.055-2.531,3.093v4.833h-1.336v-5.536c0-1.107-.369-2.39-2.056-2.39-1.827,0-2.513,1.441-2.513,3.251v4.674h-1.336Z" transform="translate(-512.685 -160.791)" fill="#f0f4e8"/>
      <path id="Path_18327" data-name="Path 18327" d="M482.794,25.017h20.357c15.1,0,25.413,9.314,25.413,23.284s-10.312,23.284-25.413,23.284H482.794Zm19.958,39.25c10.378,0,17.1-6.32,17.1-15.966s-6.718-15.966-17.1-15.966h-11.31V64.267Z" transform="translate(-304.744 -15.791)" fill="#f0f4e8"/>
      <path id="Path_18328" data-name="Path 18328" d="M672.08,44.636V70.447h-8.649V58.472H639.216V70.447H630.7V44.636c0-13.971,8.316-21.422,20.689-21.422s20.69,7.451,20.69,21.422m-8.649,6.586V43.837c0-8.848-4.723-13.039-12.107-13.039s-12.107,4.191-12.107,13.039v7.384Z" transform="translate(-398.104 -14.653)" fill="#f0f4e8"/>
      <path id="Path_18329" data-name="Path 18329" d="M817.1,25.017V71.585h-8.648V51.627H784.37V71.585h-8.648V25.017h8.648V44.243h24.083V25.017Z" transform="translate(-489.642 -15.791)" fill="#19d7aa"/>
      <path id="Path_18330" data-name="Path 18330" d="M921.827,25.017h20.357c15.1,0,25.413,9.314,25.413,23.284s-10.312,23.284-25.413,23.284H921.827Zm19.958,39.25c10.378,0,17.1-6.32,17.1-15.966s-6.719-15.966-17.1-15.966h-11.31V64.267Z" transform="translate(-581.865 -15.791)" fill="#f0f4e8"/>
      <path id="Path_18331" data-name="Path 18331" d="M1061.8,47.164c0-13.771,10.644-23.949,25.08-23.949s25.081,10.111,25.081,23.949-10.645,23.95-25.081,23.95-25.08-10.179-25.08-23.95m41.446,0c0-9.513-6.986-16.365-16.366-16.365s-16.365,6.852-16.365,16.365,6.985,16.366,16.365,16.366,16.366-6.852,16.366-16.366" transform="translate(-670.215 -14.654)" fill="#f0f4e8"/>
      <path id="Path_18332" data-name="Path 18332" d="M1212.052,65.524l2.994-6.719a25.8,25.8,0,0,0,15.368,5.123c7.251,0,10.311-2.594,10.311-6.054,0-10.045-27.675-3.46-27.675-20.756,0-7.518,5.987-13.9,18.76-13.9,5.588,0,11.443,1.464,15.5,4.125l-2.728,6.719a25.877,25.877,0,0,0-12.839-3.658c-7.185,0-10.113,2.794-10.113,6.32,0,9.912,27.609,3.459,27.609,20.556,0,7.451-6.053,13.837-18.826,13.837-7.251,0-14.5-2.262-18.361-5.589" transform="translate(-765.057 -14.653)" fill="#f0f4e8"/>
      <path id="Path_18333" data-name="Path 18333" d="M5.766,0A5.765,5.765,0,1,0,11.53,5.765,5.766,5.766,0,0,0,5.766,0" fill="#19d7aa"/>
      <path id="Path_18334" data-name="Path 18334" d="M42.309,0a5.765,5.765,0,1,0,5.765,5.765A5.765,5.765,0,0,0,42.309,0" transform="translate(-23.067)" fill="#19d7aa"/>
      <path id="Path_18335" data-name="Path 18335" d="M188.467,11.53A5.765,5.765,0,1,0,182.7,5.764a5.767,5.767,0,0,0,5.763,5.766" transform="translate(-115.324)" fill="#19d7aa"/>
      <path id="Path_18336" data-name="Path 18336" d="M225.008,0a5.765,5.765,0,1,0,5.766,5.765A5.765,5.765,0,0,0,225.008,0m0,9.164a3.4,3.4,0,1,1,3.4-3.4,3.4,3.4,0,0,1-3.4,3.4" transform="translate(-138.389)" fill="#19d7aa"/>
      <path id="Path_18337" data-name="Path 18337" d="M298.091,0a5.765,5.765,0,1,0,5.764,5.765A5.765,5.765,0,0,0,298.091,0" transform="translate(-184.519)" fill="#19d7aa"/>
      <path id="Path_18338" data-name="Path 18338" d="M334.63,11.53a5.765,5.765,0,1,0-5.765-5.766,5.765,5.765,0,0,0,5.765,5.766" transform="translate(-207.582)" fill="#19d7aa"/>
      <path id="Path_18339" data-name="Path 18339" d="M5.766,35.13a5.765,5.765,0,1,0,5.765,5.765A5.765,5.765,0,0,0,5.766,35.13" transform="translate(0 -22.174)" fill="#19d7aa"/>
      <path id="Path_18340" data-name="Path 18340" d="M42.309,35.13a5.765,5.765,0,1,0,5.765,5.765,5.764,5.764,0,0,0-5.765-5.765" transform="translate(-23.067 -22.174)" fill="#19d7aa"/>
      <path id="Path_18341" data-name="Path 18341" d="M78.847,35.13a5.765,5.765,0,1,0,5.765,5.765,5.765,5.765,0,0,0-5.765-5.765" transform="translate(-46.129 -22.174)" fill="#19d7aa"/>
      <path id="Path_18342" data-name="Path 18342" d="M115.387,35.13a5.765,5.765,0,1,0,5.765,5.765,5.765,5.765,0,0,0-5.765-5.765m0,9.164a3.4,3.4,0,1,1,3.4-3.4,3.4,3.4,0,0,1-3.4,3.4" transform="translate(-69.194 -22.174)" fill="#19d7aa"/>
      <path id="Path_18343" data-name="Path 18343" d="M225.008,35.13a5.765,5.765,0,1,0,5.766,5.765,5.764,5.764,0,0,0-5.766-5.765" transform="translate(-138.389 -22.174)" fill="#19d7aa"/>
      <path id="Path_18344" data-name="Path 18344" d="M261.549,35.13a5.765,5.765,0,1,0,5.765,5.765,5.764,5.764,0,0,0-5.765-5.765" transform="translate(-161.454 -22.174)" fill="#19d7aa"/>
      <path id="Path_18345" data-name="Path 18345" d="M298.091,35.13a5.765,5.765,0,1,0,5.764,5.765,5.765,5.765,0,0,0-5.764-5.765" transform="translate(-184.519 -22.174)" fill="#19d7aa"/>
      <path id="Path_18346" data-name="Path 18346" d="M334.63,35.13a5.765,5.765,0,1,0,5.765,5.765,5.764,5.764,0,0,0-5.765-5.765m0,9.164a3.4,3.4,0,1,1,3.4-3.4,3.4,3.4,0,0,1-3.4,3.4" transform="translate(-207.582 -22.174)" fill="#19d7aa"/>
      <path id="Path_18347" data-name="Path 18347" d="M5.766,81.788A5.765,5.765,0,1,0,0,76.023a5.765,5.765,0,0,0,5.766,5.765m0-9.164a3.4,3.4,0,1,1-3.4,3.4,3.4,3.4,0,0,1,3.4-3.4" transform="translate(0 -44.347)" fill="#19d7aa"/>
      <path id="Path_18348" data-name="Path 18348" d="M78.847,70.259a5.765,5.765,0,1,0,5.765,5.765,5.766,5.766,0,0,0-5.765-5.765" transform="translate(-46.129 -44.348)" fill="#19d7aa"/>
      <path id="Path_18349" data-name="Path 18349" d="M115.387,81.79a5.765,5.765,0,1,0-5.765-5.765,5.766,5.766,0,0,0,5.765,5.765" transform="translate(-69.194 -44.349)" fill="#19d7aa"/>
      <path id="Path_18350" data-name="Path 18350" d="M151.93,70.259a5.765,5.765,0,1,0,5.766,5.765,5.765,5.765,0,0,0-5.766-5.765" transform="translate(-92.261 -44.348)" fill="#19d7aa"/>
      <path id="Path_18351" data-name="Path 18351" d="M225.008,70.259a5.765,5.765,0,1,0,5.766,5.765,5.765,5.765,0,0,0-5.766-5.765" transform="translate(-138.389 -44.348)" fill="#19d7aa"/>
      <path id="Path_18352" data-name="Path 18352" d="M261.549,70.259a5.765,5.765,0,1,0,5.765,5.765,5.765,5.765,0,0,0-5.765-5.765" transform="translate(-161.454 -44.348)" fill="#19d7aa"/>
      <path id="Path_18353" data-name="Path 18353" d="M298.091,70.259a5.765,5.765,0,1,0,5.764,5.765,5.766,5.766,0,0,0-5.764-5.765" transform="translate(-184.519 -44.348)" fill="#19d7aa"/>
      <path id="Path_18354" data-name="Path 18354" d="M334.63,70.259a5.765,5.765,0,1,0,5.765,5.765,5.765,5.765,0,0,0-5.765-5.765" transform="translate(-207.582 -44.348)" fill="#19d7aa"/>
      <path id="Path_18355" data-name="Path 18355" d="M5.766,105.389a5.765,5.765,0,1,0,5.765,5.766,5.767,5.767,0,0,0-5.765-5.766" transform="translate(0 -66.522)" fill="#19d7aa"/>
      <path id="Path_18356" data-name="Path 18356" d="M42.309,105.389a5.765,5.765,0,1,0,5.765,5.766,5.766,5.766,0,0,0-5.765-5.766" transform="translate(-23.067 -66.522)" fill="#19d7aa"/>
      <path id="Path_18357" data-name="Path 18357" d="M78.847,105.389a5.765,5.765,0,1,0,5.765,5.766,5.767,5.767,0,0,0-5.765-5.766" transform="translate(-46.129 -66.522)" fill="#19d7aa"/>
      <path id="Path_18358" data-name="Path 18358" d="M115.387,116.92a5.765,5.765,0,1,0-5.765-5.765,5.765,5.765,0,0,0,5.765,5.765" transform="translate(-69.194 -66.523)" fill="#19d7aa"/>
      <path id="Path_18359" data-name="Path 18359" d="M151.93,105.389a5.765,5.765,0,1,0,5.766,5.766,5.765,5.765,0,0,0-5.766-5.766" transform="translate(-92.261 -66.522)" fill="#19d7aa"/>
      <path id="Path_18360" data-name="Path 18360" d="M188.467,105.389a5.765,5.765,0,1,0,5.768,5.766,5.766,5.766,0,0,0-5.768-5.766m0,9.164a3.4,3.4,0,1,1,3.4-3.4,3.4,3.4,0,0,1-3.4,3.4" transform="translate(-115.324 -66.522)" fill="#19d7aa"/>
      <path id="Path_18361" data-name="Path 18361" d="M225.008,105.389a5.765,5.765,0,1,0,5.766,5.766,5.766,5.766,0,0,0-5.766-5.766" transform="translate(-138.389 -66.522)" fill="#19d7aa"/>
      <path id="Path_18362" data-name="Path 18362" d="M261.549,105.389a5.765,5.765,0,1,0,5.765,5.766,5.765,5.765,0,0,0-5.765-5.766" transform="translate(-161.454 -66.522)" fill="#19d7aa"/>
      <path id="Path_18363" data-name="Path 18363" d="M298.091,105.389a5.765,5.765,0,1,0,5.764,5.766,5.766,5.766,0,0,0-5.764-5.766" transform="translate(-184.519 -66.522)" fill="#19d7aa"/>
      <path id="Path_18364" data-name="Path 18364" d="M334.63,105.389a5.765,5.765,0,1,0,5.765,5.766,5.765,5.765,0,0,0-5.765-5.766" transform="translate(-207.582 -66.522)" fill="#19d7aa"/>
      <path id="Path_18365" data-name="Path 18365" d="M5.766,140.52a5.765,5.765,0,1,0,5.765,5.765,5.766,5.766,0,0,0-5.765-5.765" transform="translate(0 -88.697)" fill="#19d7aa"/>
      <path id="Path_18366" data-name="Path 18366" d="M42.309,140.52a5.765,5.765,0,1,0,5.765,5.765,5.765,5.765,0,0,0-5.765-5.765" transform="translate(-23.067 -88.697)" fill="#19d7aa"/>
      <path id="Path_18367" data-name="Path 18367" d="M78.847,140.52a5.765,5.765,0,1,0,5.765,5.765,5.766,5.766,0,0,0-5.765-5.765" transform="translate(-46.129 -88.697)" fill="#19d7aa"/>
      <path id="Path_18368" data-name="Path 18368" d="M115.387,140.52a5.765,5.765,0,1,0,5.765,5.765,5.766,5.766,0,0,0-5.765-5.765m0,9.164a3.4,3.4,0,1,1,3.4-3.4,3.4,3.4,0,0,1-3.4,3.4" transform="translate(-69.194 -88.697)" fill="#19d7aa"/>
      <path id="Path_18369" data-name="Path 18369" d="M151.93,140.52a5.765,5.765,0,1,0,5.766,5.765,5.765,5.765,0,0,0-5.766-5.765" transform="translate(-92.261 -88.697)" fill="#19d7aa"/>
      <path id="Path_18370" data-name="Path 18370" d="M188.467,140.52a5.765,5.765,0,1,0,5.768,5.765,5.765,5.765,0,0,0-5.768-5.765" transform="translate(-115.324 -88.697)" fill="#19d7aa"/>
      <path id="Path_18371" data-name="Path 18371" d="M225.008,140.52a5.765,5.765,0,1,0,5.766,5.765,5.765,5.765,0,0,0-5.766-5.765" transform="translate(-138.389 -88.697)" fill="#19d7aa"/>
      <path id="Path_18372" data-name="Path 18372" d="M267.314,146.285a5.764,5.764,0,1,0-5.765,5.766,5.764,5.764,0,0,0,5.765-5.766m-9.162,0a3.4,3.4,0,1,1,3.4,3.4,3.4,3.4,0,0,1-3.4-3.4" transform="translate(-161.454 -88.697)" fill="#19d7aa"/>
      <path id="Path_18373" data-name="Path 18373" d="M298.091,140.52a5.765,5.765,0,1,0,5.764,5.765,5.766,5.766,0,0,0-5.764-5.765" transform="translate(-184.519 -88.697)" fill="#19d7aa"/>
      <path id="Path_18374" data-name="Path 18374" d="M334.63,140.52a5.765,5.765,0,1,0,5.765,5.765,5.765,5.765,0,0,0-5.765-5.765" transform="translate(-207.582 -88.697)" fill="#19d7aa"/>
      <path id="Path_18375" data-name="Path 18375" d="M11.632,181.417a5.762,5.762,0,0,0-11.471-.783,12.592,12.592,0,0,0,4.673,5.356L6.766,187.1a5.76,5.76,0,0,0,4.865-5.687" transform="translate(-0.102 -110.873)" fill="#19d7aa"/>
      <path id="Path_18376" data-name="Path 18376" d="M42.309,175.651a5.765,5.765,0,1,0,5.765,5.765,5.766,5.766,0,0,0-5.765-5.765m0,9.163a3.4,3.4,0,1,1,3.4-3.4,3.4,3.4,0,0,1-3.4,3.4" transform="translate(-23.067 -110.872)" fill="#19d7aa"/>
      <path id="Path_18377" data-name="Path 18377" d="M78.847,175.651a5.765,5.765,0,1,0,5.765,5.765,5.767,5.767,0,0,0-5.765-5.765" transform="translate(-46.129 -110.872)" fill="#19d7aa"/>
      <path id="Path_18378" data-name="Path 18378" d="M115.387,175.651a5.765,5.765,0,1,0,5.765,5.765,5.766,5.766,0,0,0-5.765-5.765" transform="translate(-69.194 -110.872)" fill="#19d7aa"/>
      <path id="Path_18379" data-name="Path 18379" d="M151.93,175.651a5.765,5.765,0,1,0,5.766,5.765,5.765,5.765,0,0,0-5.766-5.765" transform="translate(-92.261 -110.872)" fill="#19d7aa"/>
      <path id="Path_18380" data-name="Path 18380" d="M188.467,175.651a5.765,5.765,0,1,0,5.768,5.765,5.766,5.766,0,0,0-5.768-5.765" transform="translate(-115.324 -110.872)" fill="#19d7aa"/>
      <path id="Path_18381" data-name="Path 18381" d="M225.008,175.651a5.765,5.765,0,1,0,5.766,5.765,5.766,5.766,0,0,0-5.766-5.765" transform="translate(-138.389 -110.872)" fill="#19d7aa"/>
      <path id="Path_18382" data-name="Path 18382" d="M261.549,175.651a5.765,5.765,0,1,0,5.765,5.765,5.765,5.765,0,0,0-5.765-5.765" transform="translate(-161.454 -110.872)" fill="#19d7aa"/>
      <path id="Path_18383" data-name="Path 18383" d="M298.091,175.651a5.765,5.765,0,1,0,5.764,5.765,5.766,5.766,0,0,0-5.764-5.765" transform="translate(-184.519 -110.872)" fill="#19d7aa"/>
      <path id="Path_18384" data-name="Path 18384" d="M334.63,175.651a5.762,5.762,0,0,0-.94,11.447l2.01-1.161a12.556,12.556,0,0,0,4.636-5.294,5.762,5.762,0,0,0-5.706-4.991" transform="translate(-207.582 -110.872)" fill="#19d7aa"/>
      <path id="Path_18385" data-name="Path 18385" d="M43.645,210.782a5.757,5.757,0,0,0-4.984,2.877l9.98,5.756a5.758,5.758,0,0,0-5-8.633" transform="translate(-24.403 -133.047)" fill="#19d7aa"/>
      <path id="Path_18386" data-name="Path 18386" d="M78.847,210.782a5.765,5.765,0,1,0,5.765,5.765,5.766,5.766,0,0,0-5.765-5.765" transform="translate(-46.129 -133.047)" fill="#19d7aa"/>
      <path id="Path_18387" data-name="Path 18387" d="M115.387,210.782a5.765,5.765,0,1,0,5.765,5.765,5.765,5.765,0,0,0-5.765-5.765" transform="translate(-69.194 -133.047)" fill="#19d7aa"/>
      <path id="Path_18388" data-name="Path 18388" d="M151.93,210.782a5.765,5.765,0,1,0,5.766,5.765,5.764,5.764,0,0,0-5.766-5.765" transform="translate(-92.261 -133.047)" fill="#19d7aa"/>
      <path id="Path_18389" data-name="Path 18389" d="M188.467,210.782a5.765,5.765,0,1,0,5.768,5.765,5.765,5.765,0,0,0-5.768-5.765" transform="translate(-115.324 -133.047)" fill="#19d7aa"/>
      <path id="Path_18390" data-name="Path 18390" d="M225.008,210.782a5.765,5.765,0,1,0,5.766,5.765,5.765,5.765,0,0,0-5.766-5.765" transform="translate(-138.389 -133.047)" fill="#19d7aa"/>
      <path id="Path_18391" data-name="Path 18391" d="M261.549,210.782a5.765,5.765,0,1,0,5.765,5.765,5.764,5.764,0,0,0-5.765-5.765" transform="translate(-161.454 -133.047)" fill="#19d7aa"/>
      <path id="Path_18392" data-name="Path 18392" d="M298.091,210.782a5.758,5.758,0,0,0-5,8.625l9.974-5.764a5.756,5.756,0,0,0-4.974-2.861" transform="translate(-184.519 -133.047)" fill="#19d7aa"/>
      <path id="Path_18393" data-name="Path 18393" d="M121.236,251.676a5.763,5.763,0,0,0-11.48-.719l9.2,5.305a5.75,5.75,0,0,0,2.282-4.586" transform="translate(-69.279 -155.222)" fill="#19d7aa"/>
      <path id="Path_18394" data-name="Path 18394" d="M151.93,245.913a5.765,5.765,0,1,0,5.766,5.763,5.764,5.764,0,0,0-5.766-5.763" transform="translate(-92.261 -155.222)" fill="#19d7aa"/>
      <path id="Path_18395" data-name="Path 18395" d="M188.467,245.913a5.765,5.765,0,1,0,5.768,5.763,5.764,5.764,0,0,0-5.768-5.763" transform="translate(-115.324 -155.222)" fill="#19d7aa"/>
      <path id="Path_18396" data-name="Path 18396" d="M225.008,245.913a5.759,5.759,0,0,0-3.468,10.361l9.185-5.308a5.763,5.763,0,0,0-5.718-5.052" transform="translate(-138.389 -155.222)" fill="#19d7aa"/>
    </g>
  </g>
</svg>
